SplineFontDB: 3.0
FontName: CoelacanthHairline
FullName: CoelacanthHairline
FamilyName: Coelacanth
Weight: Regular

StartChar: a
Encoding: 97 97 0
Width: 413
VWidth: 1159
Flags: HMW
HStem: -15 43<75 181> 161 32<153 246> 364 52<128 220>
VStem: 33 64<34 133> 247 65<60 164 191 321>
AnchorPoint: "Bottom" 203 -15 basechar 0
AnchorPoint: "Ogonek" 354 18 basechar 0
AnchorPoint: "Top" 201 465 basechar 0
LayerCount: 2
Fore
SplineSet
285 156 m 1x01d0
 277 158 271 158 263 158 c 0
 230 159 187 153 170 149 c 0
 117 137 70 114 70 65 c 3
 70 33 74 13 110 13 c 3
 171 13 223 31 287 58 c 1
 284 72 284 89 284 111 c 3
 284 132 284 142 285 156 c 1x01d0
207 434 m 3
 231 434 296 381 306 361 c 0
 311 349 313 325 313 310 c 3
 313 240 308 179 308 111 c 3
 308 82 307 52 314 35 c 0
 318 17 327 16 330 16 c 3
 342 16 366 38 384 62 c 1
 403 47 l 1
 380 19 349 -8 331 -8 c 3x05b0
 310 -8 294 2 290 33 c 1
 228 8 178 -11 110 -11 c 7
 59 -11 46 23 46 65 c 3x03d0
 46 81 53 101 58 109 c 0
 67 123 73 130 89 141 c 0
 130 169 198 190 285 180 c 1
 287 233 289 310 289 310 c 3
 289 320 288 343 284 354 c 0
 279 364 223 410 207 410 c 3
 194 410 87 377 87 331 c 3
 87 325 92 316 93 312 c 1
 69 306 l 1
 66 316 63 325 63 331 c 3x03b0
 63 348 71 366 88 380 c 0
 122 408 193 434 207 434 c 3
EndSplineSet
Substitution2: "case-1" A
Substitution2: "pcap-1" a.pcap
Substitution2: "smcp-1" a.smcp
EndChar

StartChar: b
Encoding: 98 98 1
Width: 507
VWidth: 1159
Flags: HMW
HStem: -9 44<177 317> 369 43<190 315>
VStem: 72 65<68 347 368 624> 398 69<122 283>
AnchorPoint: "Bottom" 248 -15 basechar 0
AnchorPoint: "Top" 104 749 basechar 0
LayerCount: 2
Fore
SplineSet
87 323 m 1
 84 224 84 167 84 68 c 3
 84 64 83 59 90 54 c 0
 130 26 186 9 240 9 c 3
 342 9 436 93 436 210 c 3
 436 299 366 394 266 394 c 3
 192 394 104 339 87 323 c 1
7 680 m 1
 58 705 77 712 91 759 c 1
 113 749 l 1
 99 717 96 689 95 667 c 0
 87 509 87 522 87 354 c 1
 117 376 194 418 266 418 c 3
 379 418 460 311 460 210 c 3
 460 85 361 -15 240 -15 c 3
 142 -15 111 23 79 23 c 3
 74 23 62 -1 56 -10 c 1
 34 1 l 1
 39 13 53 29 57 41 c 0
 60 49 59 76 60 145 c 0
 62 288 64 367 64 510 c 3
 64 541 71 640 71 667 c 0
 71 686 71 683 70 683 c 3
 64 683 39 669 19 658 c 1
 7 680 l 1
EndSplineSet
Substitution2: "case-1" B
Substitution2: "pcap-1" b.pcap
Substitution2: "smcp-1" b.smcp
EndChar

StartChar: c
Encoding: 99 99 2
Width: 421
VWidth: 1159
Flags: HMW
HStem: -15 52<185 333> 357 60<169 308>
VStem: 34 71<119 282>
AnchorPoint: "Bottom" 228 -15 basechar 0
AnchorPoint: "Top" 231 465 basechar 0
LayerCount: 2
Back
SplineSet
338 313 m 5
 300 333 248 353 214 353 c 7
 144 353 106 300.154929577 106 219 c 7
 106 113 178 40 274 40 c 7
 313 40 346 56 369 72 c 5
 385 46 l 5
 351 19 292 -11 232 -11 c 7
 183 -11 34 7 34 182 c 7
 34 307.648535565 145 413 267 413 c 7
 315 413 364 393 395 370 c 5
 394 343 393 345 338 313 c 5
EndSplineSet
Fore
SplineSet
377 352 m 1
 341 376 293 388 261 388 c 3
 148 388 60 290 60 190 c 3
 60 62 164 11 236 11 c 3
 290 11 336 36 368 60 c 1
 382 41 l 1
 350 15 293 -13 236 -13 c 3
 187 -13 36 19 36 190 c 3
 36 311 143 412 261 412 c 3
 309 412 358 393 389 372 c 1
 377 352 l 1
EndSplineSet
Substitution2: "case-1" C
Substitution2: "pcap-1" c.pcap
Substitution2: "smcp-1" c.smcp
EndChar

StartChar: d
Encoding: 100 100 3
Width: 511
VWidth: 1159
Flags: HMW
HStem: 451 102<-225.927 -142.073>
VStem: -236 104<460.954 543.046>
AnchorPoint: "Bottom" 224 -15 basechar 0
AnchorPoint: "Top" 390 734 basechar 0
AnchorPoint: "TopRight" 504 581 basechar 0
LayerCount: 2
Fore
SplineSet
403 63 m 5
 352 22 277 -11 198 -11 c 7
 98 -11 35 76 35 172 c 7
 35 254 70 322 131 363 c 4
 179 395 237 411 268 411 c 7
 304 411 385 382 405 379 c 5
 405 454 415 588 419 672 c 4
 421 710 417 710 417 710 c 7
 407 710 382 680 349 671 c 5
 344 694 l 5
 369 702 413 737 428 756 c 5
 449 749 l 5
 448 734 446 706 445 695 c 4
 434 537 428 357 428 185 c 7
 428 118 429 33 429 -9 c 7
 429 -11 429 -21 435 -21 c 7
 446 -21 487 6 502 15 c 5
 517 -3 l 5
 476 -28 446 -46 430 -46 c 7
 420 -46 405 -38 405 -9 c 7
 405 15 403 59 403 63 c 5
268 387 m 7
 231 387 173 365 145 344 c 4
 98 308 59 244 59 172 c 7
 59 93 108 13 198 13 c 7
 280 13 358 56 403 99 c 5
 403 182 403 268 405 352 c 5
 403 353 l 4
 360 369 284 387 268 387 c 7
EndSplineSet
Substitution2: "case-1" D
Substitution2: "pcap-1" d.pcap
Substitution2: "smcp-1" d.smcp
EndChar

StartChar: e
Encoding: 101 101 4
Width: 409
VWidth: 1159
Flags: HMW
HStem: 425 168
VStem: 53 185
AnchorPoint: "Bottom" 213 -15 basechar 0
AnchorPoint: "Ogonek" 307 23 basechar 0
AnchorPoint: "Top" 217 465 basechar 0
LayerCount: 2
Back
SplineSet
207 415 m 7
 265 415 324 363 347 307 c 4
 348 304 349 303 370 306 c 5
 372 282 l 5
 278 262 162 236 71 215 c 5
 69 202 67 189 67 176 c 7
 67 60 133 13 196 13 c 7
 255 13 310 42 347 73 c 5
 362 54 l 5
 321 19 263 -11 196 -11 c 7
 109 -11 43 57 43 176 c 7
 43 243.338770088 62.666015625 290.749023438 86.9267578125 328 c 4
 126.134765625 388.201171875 183.456911092 415 207 415 c 7
EndSplineSet
Fore
SplineSet
207 415 m 3
 265 415 324 363 347 307 c 0
 348 304 349 303 370 306 c 1
 372 282 l 1
 278 262 162 236 71 215 c 1
 69 202 67 189 67 176 c 3
 67 60 133 13 196 13 c 3
 255 13 310 42 347 73 c 1
 362 54 l 1
 321 19 263 -11 196 -11 c 3
 109 -11 43 57 43 176 c 3
 43 344.632673307 169.423155091 415 207 415 c 3
207 391 m 3
 182 391 99 345 76 241 c 1
 321 298 l 0
 324 299 l 1
 310 344 259 391 207 391 c 3
EndSplineSet
Substitution2: "case-1" E
Substitution2: "pcap-1" e.pcap
Substitution2: "smcp-1" e.smcp
EndChar

StartChar: f
Encoding: 102 102 5
Width: 357
VWidth: 1159
Flags: HMW
HStem: -6 37<34 97 191 283> 355 47<39 113 187 338> 701 55<268 384>
VStem: 114 70<42 369 405 614>
AnchorPoint: "Bottom" 156 -15 basechar 0
AnchorPoint: "Top" 262 748 basechar 0
LayerCount: 2
Fore
SplineSet
320 769 m 7
 367 769 412 752 435 731 c 5
 420 713 l 5
 389 737 347 745 320 745 c 7
 255 745 146 666 146 505 c 4
 146 495 146 448 146 413 c 5
 207 413 261 413 322 413 c 5
 322 389 l 5
 262 389 206 389 146 389 c 5
 146 349 146 317 146 300 c 7
 145 209 145 124 145 36 c 4
 145 26 145 27 156 26 c 4
 180 25 202 23 226 21 c 5
 222 -3 l 5
 196 1 159 2 133 2 c 7
 112 2 80 -1 59 -5 c 5
 55 19 l 5
 70 21 88 24 105 25 c 4
 121 27 121 26 121 63 c 4
 121 122 121 199 122 273 c 7
 122 298 122 343 122 389 c 5
 100 389 80 389 58 389 c 5
 58 413 l 5
 80 413 100 413 122 413 c 5
 122 448 122 489 122 500 c 7
 122 610 157 669 204 715 c 4
 226 737 269 769 320 769 c 7
EndSplineSet
Substitution2: "salt-1" f.alt
Substitution2: "case-1" F
Substitution2: "pcap-1" f.pcap
Substitution2: "smcp-1" f.smcp
EndChar

StartChar: g
Encoding: 103 103 6
Width: 475
VWidth: 1159
Flags: HMW
HStem: -335 65<94 297> -106 69<153 388> 362 42<153 268>
VStem: 45 68<155 306> 321 73<144 309> 404 48<-213 -122>
AnchorPoint: "Bottom" 225 -318 basechar 0
AnchorPoint: "Top" 224 465 basechar 0
LayerCount: 2
Fore
SplineSet
96 -10 m 7
 96 -47 160 -60 227 -60 c 7
 253 -60 274 -60 302 -60 c 7
 417 -60 458 -123 458 -178 c 7
 458 -310 230 -341 181 -341 c 7
 52 -341 28 -263 28 -206 c 7
 28 -131 115 -86 130 -77 c 5
 59 -47 70 -16 68 6 c 5
 104 32 155 56 194 70 c 5
 122 84 53 143 53 229 c 7
 53 343 131 409 241 409 c 7
 278 409 319 398 344 377 c 5
 366 385 385 385 410 385 c 7
 426 385 447 382 454 378 c 5
 446 355 l 5
 434 359 423 361 410 361 c 4
 395 361 383 361 364 356 c 5
 386 330 403 295 403 238 c 7
 403 135 319 93 249 66 c 4
 99 8 96 -4 96 -10 c 7
241 385 m 7
 127 385 77 316 77 229 c 7
 77 149 151 88 239 90 c 5
 313 114 379 161 379 238 c 7
 379 297 349 385 241 385 c 7
52 -206 m 7
 52 -303 133 -317 181 -317 c 7
 236 -317 434 -285 434 -178 c 7
 434 -129 394 -84 302 -84 c 7
 277 -84 252 -84 227 -84 c 7
 203 -84 179 -83 165 -82 c 5
 89 -117 52 -166 52 -206 c 7
EndSplineSet
Substitution2: "case-1" G
Substitution2: "pcap-1" g.pcap
Substitution2: "smcp-1" g.smcp
EndChar

StartChar: h
Encoding: 104 104 7
Width: 531
VWidth: 1159
Flags: HMW
HStem: -7 33<21 68 169 229 322 368 450 517> 353 50<219 349>
VStem: 92 70<42 333 352 611> 379 68<33 322>
AnchorPoint: "Bottom" 275 -15 basechar 0
AnchorPoint: "Top" 120 733 basechar 0
LayerCount: 2
Back
SplineSet
131 332 m 1
 128.5 291.916666666 128 242.960441267 128 189 c 3
 128 120.375330275 125.965002312 55.8072433023 127 32 c 0
 124.723819865 27.2544441279 148.170974189 27.8267821468 162 26 c 0
 175.378137079 23.7472029389 198.105263158 20 211 18 c 1
 206 -6 l 1
 174.72972973 0.07663917805 146.545242976 5 117 5 c 3
 87.9375 5 53.0625 0 24 -4 c 1
 20 25 l 1
 38.4642857143 28.2 51.1340081339 29.4365321839 67 33 c 0
 90.5041634419 33.2376962076 106.500178715 37.3624114009 103 49 c 0
 103.979027206 108.018457995 104 200.136363636 104 274 c 3
 104 541.295876524 105.314206966 647.289706536 104 671 c 0
 104.150576322 669.967147692 103.666666667 669 96 669 c 3
 89.5714285714 669 42.9142857143 657 30 656 c 1
 22 679 l 1
 56.8903225807 689.698630137 97.148387097 714.931506849 126 750 c 1
 145 738 l 1
 138.142857143 721.846153846 130.782385148 690.749228824 129 678 c 0
 130.111111111 672.877306812 131.888888889 469.197604791 131 361 c 1
 180.236686391 390.14 248.98224852 408 288 408 c 3
 378.526315789 408 414.014263326 349.001345502 420 301 c 0
 421.867246595 280.8550056 423 234.695238095 423 183 c 3
 423 118.046511628 422 55.3720930233 422 36 c 0
 422 27.8181818182 441.242069314 26.8806551816 455 24 c 0
 468.613586945 21.3816508888 502.739130435 21 516 17 c 1
 508 -6 l 1
 474.102803738 3 451.504672897 5 415 5 c 3
 391 5 367.8 0 347 -6 c 1
 340 18 l 1
 350.62962963 22.2 355.317465893 22.5124148809 371 26 c 0
 397.892745983 31.0787599379 394.215726646 30.6668864316 395 38 c 0
 398.016991899 62.304388256 399 120.247596879 399 144 c 3
 399 196.25 398.711146448 280.899070813 396 296 c 0
 386.441008442 348.683159476 351.790697674 384 290 384 c 3
 255.419161098 384 180.648293963 365.5 131 332 c 1
EndSplineSet
Fore
SplineSet
116 312 m 1
 116 278 116 236 116 189 c 3
 116 120 115 57 115 32 c 0
 115 29 119 28 122 28 c 0
 148 27 185 20 208 18 c 1
 203 -6 l 1
 169 0 134 5 105 5 c 3
 80 5 51 0 26 -4 c 1
 22 20 l 1
 47 23 62 27 85 28 c 0
 92 28 91 34 91 44 c 0
 92 104 92 198 92 274 c 3
 92 541 93 647 92 671 c 0
 92 678 91 684 88 684 c 3
 85 684 52 660 31 656 c 1
 23 679 l 1
 54 690 89 715 114 750 c 1
 133 738 l 1
 126 722 118 691 117 678 c 0
 116 665 117 456 116 341 c 1
 177 383 263 408 311 408 c 3
 402 408 437 349 443 301 c 0
 445 281 446 235 446 183 c 3
 446 118 445 55 445 36 c 0
 445 31 447 30 455 29 c 0
 469 28 502 22 515 17 c 1
 507 -6 l 1
 482 3 465 5 438 5 c 3
 406 5 376 0 348 -6 c 1
 341 18 l 1
 362 21 379 24 407 26 c 0
 418 28 421 31 421 38 c 0
 421 63 422 120 422 144 c 3
 422 196 422 264 419 296 c 0
 414 349 374 384 313 384 c 3
 253 384 172 352 116 312 c 1
EndSplineSet
Substitution2: "case-1" H
Substitution2: "pcap-1" h.pcap
Substitution2: "smcp-1" h.smcp
EndChar

StartChar: k
Encoding: 107 107 10
Width: 486
VWidth: 1159
Flags: HMW
HStem: -6 33<17 67 297 341 441 484> 371 32<251 284 383 449>
VStem: 88 63<55 214 237 488>
DStem2: 215 255 161 220 0.728431 -0.685119<0 239.996>
AnchorPoint: "Bottom" 242 -15 basechar 0
AnchorPoint: "Top" 123 739 basechar 0
LayerCount: 2
Back
SplineSet
117 215 m 5
 169.75862069 252.362637363 246.651917731 307.410423628 297 351 c 4
 305.892429663 357.806558125 323 367.296296296 323 373 c 7
 323 384.580495356 281.288410887 382.425696594 285 386 c 5
 287 401 l 5
 304.431818182 399 327.897727273 399 346 399 c 7
 375.027777778 399 412.851851852 401 441 403 c 5
 443 379 l 5
 364.746268657 374.038461538 377.435556585 375.353854063 351 357 c 6
 196 258 l 5
 274.962616822 182.295566502 350.302070896 108.81773399 434 32 c 5
 456 14 452.420467186 25.0679824561 494 19 c 5
 490 -5 l 5
 462.510638298 1 447.957446809 5 414 5 c 7
 387.260869565 5 358.739130435 -2 332 -4 c 5
 329 20 l 5
 378.787234043 26.25 378.787234043 29.9 394 31 c 5
 325.644995503 94.7912087912 234.723756906 180.489236791 167 246 c 5
 117 212 l 5
 117 141.45 120.716272251 74.5674554973 117 46 c 4
 117 24 120.379520355 32.6168900995 138 25 c 4
 152.433471179 22.5749260208 166.235294118 21 186 19 c 5
 179 -4 l 5
 152.157894737 0.90909090909 137.157894737 5 104 5 c 7
 79.3125 5 49.6875 -2 25 -4 c 5
 23 20 l 5
 36.75 22.4 52.5457453146 27.3861776071 63 27 c 4
 83.1400129283 29.1175861628 92.2674347039 30.101438277 88 38 c 4
 90.7777777778 99.97979798 93 196.516084459 93 274 c 7
 93 559.113636364 94.4588242475 625.066725204 93 660 c 4
 92.9583333333 669.6 92.7083333333 678 92 678 c 7
 82.0487804878 678 44.5853658537 665.21978022 24 663 c 5
 16 685 l 5
 49.4285714286 695.397260274 87.357142857 719.863013699 115 754 c 5
 134 742 l 5
 127.142857143 725.307692308 117.714019674 693.257606068 118 680 c 4
 117.523809524 602.327394209 117 343.418708241 117 215 c 5
EndSplineSet
Fore
SplineSet
111 240 m 1
 165 270 242 316 296 351 c 0
 306 357 322 367 322 373 c 3
 322 376 314 374 286 377 c 1
 288 401 l 1
 305 399 328 399 345 399 c 3
 374 399 412 401 440 403 c 1
 442 379 l 1
 364 374 377 374 350 357 c 2
 190 258 l 1
 260 181 327 107 402 29 c 1
 430 29 451 25 487 19 c 1
 483 -5 l 1
 451 1 434 5 394 5 c 3
 367 5 339 -2 312 -4 c 1
 309 20 l 1
 356 25 356 27 370 28 c 1
 308 93 229 180 169 246 c 1
 111 212 l 1
 111 141 111 73 111 46 c 0
 111 25 110 28 132 26 c 0
 151 24 164 22 186 19 c 1
 179 -4 l 1
 150 1 134 5 98 5 c 3
 79 5 57 -2 38 -4 c 1
 36 20 l 1
 50 22 66 25 76 27 c 0
 87 29 87 31 87 38 c 0
 87 100 87 197 87 274 c 3
 87 559 87 625 87 660 c 0
 87 676 86 690 84 690 c 3
 76 690 51 668 30 663 c 1
 22 685 l 1
 51 695 85 720 109 754 c 1
 128 742 l 1
 121 725 112 693 112 680 c 0
 112 607 111 362 111 240 c 1
EndSplineSet
Substitution2: "case-1" K
Substitution2: "pcap-1" k.pcap
Substitution2: "smcp-1" k.smcp
EndChar

StartChar: l
Encoding: 108 108 11
Width: 248
VWidth: 1159
Flags: HMW
HStem: -7 33<9 67 174 243>
VStem: 91 70<57 558>
AnchorPoint: "Bottom" 119 -15 basechar 0
AnchorPoint: "TopRight" 220 581 basechar 0
AnchorPoint: "Top" 121 734 basechar 0
LayerCount: 2
Fore
SplineSet
138 300 m 7
 138 215 138 83 138 45 c 4
 138 27 136 29 160 27 c 4
 174 26 197 24 232 17 c 5
 228 -7 l 5
 196 -1 166 4 125 4 c 7
 105 4 51 -1 22 -5 c 5
 20 19 l 5
 39 21 64 25 85 26 c 4
 116 28 114 27 114 49 c 4
 114 108 114 200 114 274 c 7
 114 548 114 630 114 655 c 4
 114 691 113 693 112 693 c 7
 107 693 85 670 47 658 c 5
 39 680 l 5
 71 690 107 717 133 749 c 5
 152 734 l 5
 134 715 138 718 138 686 c 4
 138 611 138 424 138 300 c 7
EndSplineSet
Substitution2: "case-1" L
Substitution2: "pcap-1" l.pcap
Substitution2: "smcp-1" l.smcp
EndChar

StartChar: m
Encoding: 109 109 12
Width: 791
VWidth: 1159
Flags: HMW
HStem: -7 33<21 68 170 229 296 348 440 492 572 619 711 776> 348 37<290 599>
VStem: 95 66<44 317 330 333> 367 68<36 321> 637 68<36 306>
AnchorPoint: "Bottom" 390 -15 basechar 0
AnchorPoint: "Top" 407 465 basechar 0
LayerCount: 2
Back
SplineSet
696 170 m 3
 696 111.23364486 699.310938888 57.8455000039 696 39 c 0
 691 25.8449197861 695.101228731 25.2389205169 708 25 c 0
 721.7968977 23.1707793973 766.102040816 22 781 20 c 1
 777 -4 l 1
 734.388888889 5 704.888888889 7 659 7 c 3
 640.170212766 7 616.319148936 2 600 -4 c 1
 596 20 l 1
 610.78125 22.8 620.960623299 21.3877191101 639 27 c 0
 666.320652948 35.4989082379 670.682676419 50.168067788 674 98 c 0
 673.159219643 119.13871583 672 153.791044777 672 157 c 3
 672 201.011362169 675.09755143 248.436681379 672 266 c 0
 659.142857143 335 633.347826087 376 545 376 c 3
 480.720836418 376 444.885714286 363.730769229 401 347 c 1
 402 336.347826087 402 325.75179847 402 312 c 3
 402 281.883528328 406 233.142857143 406 192 c 3
 406 126.76744186 408.761968997 59.4412431051 406 39 c 0
 403 23.7272727273 406.848109265 32.0136803574 421 29 c 0
 435.48242496 25.841796875 460.285714286 25 476 21 c 1
 471 -4 l 1
 436.926315789 5 424.694736842 7 388 7 c 3
 362.897959184 7 327.755102041 2 306 -4 c 1
 301 19 l 1
 314.756756757 23 340.740527754 20.8685502253 354 24 c 0
 376.819767442 29.7777777778 373.50050434 34.4233592943 375 76 c 0
 373.75 94.1492537314 382 145.985074627 382 152 c 3
 382 196 380.944600292 261.764115306 382 280 c 0
 378.176470588 336.220779221 354.717647059 391 284 391 c 3
 210.8 391 162.2 361.753085815 116 338 c 1
 118.111111111 232.42608815 112 99.570815451 112 56 c 3
 112 25.3615384615 110.750776406 32.9442719102 133 28 c 0
 148.01297716 24.6637828533 182.368421053 20.8 200 19 c 1
 195 -4 l 1
 150.918918918 4 134.702702703 7 98 7 c 3
 73.3125 7 43.6875 2 19 -2 c 1
 15 21 l 1
 26.3928571428 22.6 32.9885507961 23.1067294013 44 25 c 0
 77.02844135 32.420571666 81.4691801584 39.6220709567 88 78 c 0
 92.1176470588 112.764227642 92 174.156986738 92 208 c 3
 92 232.070425756 87.9270133455 315.637202874 85 339 c 0
 82.4520581492 367.131859302 85.4250527797 366 65 366 c 3
 55.0594405594 366 55.4125291376 364 40 364 c 1
 33 378 l 1
 52.0967741936 382.980769231 71.193548387 385.826923077 97 415 c 1
 119 408 l 1
 113.666666667 394.056338029 106.666666667 373.915492958 109 353 c 1
 160.559006211 380.457142857 238.214285713 415 310 415 c 3
 356.161290323 415 378.806451613 386.074626865 391 358 c 1
 433.877192983 375.76923077 496.543859649 400 579 400 c 3
 662.102803738 400 696 348.405172414 696 267 c 3
 696 237.361111111 696 203.231481481 696 170 c 3
EndSplineSet
Fore
SplineSet
696 169 m 7
 696 111 696 57 696 39 c 4
 696 28 696 30 708 29 c 4
 723 28 766 23 781 19 c 5
 777 -5 l 5
 734 4 705 6 659 6 c 7
 640 6 616 1 600 -5 c 5
 596 19 l 5
 611 23 623 26 639 28 c 4
 672 33 672 20 672 60 c 4
 672 83 672 135 672 156 c 7
 672 200 672 247 672 265 c 4
 671 333 644 376 579 376 c 7
 514 376 455 358 401 333 c 5
 404 322 406 311 406 296 c 7
 406 271 406 227 406 191 c 7
 406 127 406 62 406 42 c 4
 406 32 406 29 421 28 c 4
 437 27 460 24 476 18 c 5
 471 -5 l 5
 437 4 425 6 388 6 c 7
 363 6 328 1 306 -5 c 5
 301 18 l 5
 320 23 345 23 366 28 c 4
 383 32 382 26 382 60 c 4
 382 82 382 131 382 151 c 7
 382 195 382 261 382 279 c 4
 382 336 364 391 311 391 c 7
 231 391 167 355 112 331 c 5
 112 231 112 98 112 55 c 7
 112 27 112 31 133 29 c 4
 154 27 182 23 200 18 c 5
 195 -5 l 5
 161 6 135 6 98 6 c 7
 73 6 44 1 19 -3 c 5
 15 20 l 5
 32 23 41 24 59 27 c 4
 87 32 88 28 88 60 c 4
 88 97 87 169 87 207 c 7
 87 232 88 320 88 344 c 4
 88 369 86 369 82 369 c 7
 71 369 69 362 41 356 c 5
 34 378 l 5
 53 383 71 386 96 415 c 5
 118 408 l 5
 115 395 113 376 112 356 c 5
 163 382 240 415 311 415 c 7
 357 415 379 386 391 357 c 5
 434 375 497 400 579 400 c 7
 662 400 696 348 696 266 c 7
 696 236 696 202 696 169 c 7
EndSplineSet
Substitution2: "case-1" M
Substitution2: "pcap-1" m.pcap
Substitution2: "smcp-1" m.smcp
EndChar

StartChar: n
Encoding: 110 110 13
Width: 526
VWidth: 1159
Flags: HMW
HStem: -7 33<21 68 170 229 308 360 454 512> 338 60<237 357>
VStem: 95 66<44 316 330 333> 379 68<36 316>
AnchorPoint: "Bottom" 269 -15 basechar 0
AnchorPoint: "Top" 272 465 basechar 0
LayerCount: 2
Fore
SplineSet
95 353 m 4
 95 358 94 363 94 363 c 7
 89 363 61 347 38 347 c 5
 34 371 l 5
 54 377 75 380 102 415 c 5
 124 405 l 5
 122 392 119 368 119 355 c 5
 175 386 236 414 309 414 c 7
 389 414 445 381 445 273 c 7
 445 245 443 214 443 183 c 7
 443 114 440 58 440 36 c 7
 440 31 442 31 461 29 c 4
 472 28 513 20 519 17 c 5
 510 -5 l 5
 487 3 443 7 419 7 c 7
 407 7 345 -2 334 -7 c 5
 324 15 l 5
 332 19 386 28 395 29 c 4
 415 32 413 28 416 60 c 4
 418 91 419 154 419 183 c 7
 419 214 421 258 421 273 c 4
 420 343 397 390 309 390 c 7
 235 390 171 356 119 327 c 5
 119 227 119 98 119 55 c 7
 119 28 120 32 140 27 c 4
 147 25 203 19 210 16 c 5
 204 -7 l 5
 184 -1 126 7 105 7 c 7
 87 7 37 -2 19 -6 c 5
 13 18 l 5
 23 20 58 25 68 27 c 4
 96 32 95 29 95 60 c 4
 95 97 95 160 95 199 c 7
 95 227 95 327 95 353 c 4
EndSplineSet
Substitution2: "case-1" N
Substitution2: "pcap-1" n.pcap
Substitution2: "smcp-1" n.smcp
EndChar

StartChar: o
Encoding: 111 111 14
Width: 505
VWidth: 1159
Flags: HW
HStem: -11 39<199.926 327.747> 374 45<168.903 305.133>
VStem: 32 76<130.211 291.037> 395 78<107.641 276.826>
AnchorPoint: "Middle" 256 206 basechar 0
AnchorPoint: "Bottom" 250 -15 basechar 0
AnchorPoint: "Ogonek" 342 20 basechar 0
AnchorPoint: "Horn" 422 342 basechar 0
AnchorPoint: "Top" 252 465 basechar 0
LayerCount: 2
Fore
SplineSet
256 422 m 7
 392 422 473 311 473 202 c 7
 473 77 379 -11 255 -11 c 7
 131 -11 32 75 32 203 c 7
 32 356 166 422 256 422 c 7
256 398 m 7
 186 398 56 345 56 203 c 7
 56 93 140 13 255 13 c 7
 377 13 449 104 449 202 c 7
 449 311 366 398 256 398 c 7
EndSplineSet
Substitution2: "case-1" O
Substitution2: "pcap-1" o.pcap
Substitution2: "smcp-1" o.smcp
EndChar

StartChar: p
Encoding: 112 112 15
Width: 513
VWidth: 1159
Flags: HMW
HStem: -342 34<164.753 242> -10 41<180.88 340.791> 355 47<211.583 333.731>
VStem: 89 73<-208.562 7 49.7914 263.889> 415 66<116.734 264.787>
AnchorPoint: "Bottom" 286 -15 basechar 0
AnchorPoint: "Top" 251 465 basechar 0
LayerCount: 2
Fore
SplineSet
84 39 m 7xbe
 84 184 84 327 84 351 c 7
 84 374 83 382 81 382 c 7
 76 382 62 367 12 351 c 5
 4 375 l 5
 28 380 64 399 91 429 c 5
 107 419 108 424 108 372 c 5
 163 392 239 416 303 416 c 7
 400 416 476 311 476 216 c 7
 476 79 356 -8 239 -8 c 7
 192 -8 147 6 108 29 c 5
 108 -62 108 -254 108 -295 c 4
 108 -312 111 -313 140 -314 c 4
 151 -314 163 -316 172 -316 c 5
 170 -340 l 5x7e
 150 -339 126 -337 99 -337 c 7
 81 -337 53 -342 35 -346 c 5
 31 -323 l 5
 40 -321 46 -320 56 -318 c 4
 85 -312 84 -312 84 -285 c 4
 84 -228 84 -128 84 39 c 7xbe
303 392 m 7
 228 392 167 365 108 346 c 5
 108 61 l 5
 144 36 185 16 239 16 c 7
 344 16 452 94 452 216 c 7
 452 293 393 392 303 392 c 7
EndSplineSet
Substitution2: "case-1" P
Substitution2: "pcap-1" p.pcap
Substitution2: "smcp-1" p.smcp
EndChar

StartChar: q
Encoding: 113 113 16
Width: 491
VWidth: 1159
Flags: HMW
HStem: -337 34<473 508> -9 43<185 329> 375 44<186 331>
VStem: 32 74<114 280> 367 66<-164 26 53 347> 438 18<411 417>
AnchorPoint: "Bottom" 218 -15 basechar 0
AnchorPoint: "Top" 272 465 basechar 0
LayerCount: 2
Fore
SplineSet
415 64 m 5
 415 170 416 230 416 335 c 7
 416 341 416 359 411 362 c 4
 384 379 339 391 299 391 c 7
 166 391 63 291 63 181 c 7
 63 95 136 9 224 9 c 7
 314 9 398 55 415 64 c 5
415 32 m 5
 371 13 304 -15 224 -15 c 7
 119 -15 39 86 39 181 c 7
 39 308 158 415 299 415 c 7
 363 415 396 394 415 394 c 7
 424 394 427 413 430 419 c 5
 455 409 l 5
 441 382 441 377 441 363 c 4
 441 348 440 331 440 266 c 4
 440 241 439 135 439 93 c 7
 439 -152 439 -244 439 -286 c 4
 439 -324 442 -317 469 -319 c 4
 476 -320 491 -321 496 -321 c 5
 494 -345 l 5
 478 -344 455 -343 427 -343 c 7
 409 -343 367 -348 349 -352 c 5
 346 -328 l 5
 358 -327 365 -325 378 -323 c 4
 415 -318 415 -321 415 -293 c 4
 415 -258 415 -100 415 32 c 5
EndSplineSet
Substitution2: "case-1" Q
Substitution2: "pcap-1" q.pcap
Substitution2: "smcp-1" q.smcp
EndChar

StartChar: r
Encoding: 114 114 17
Width: 358
VWidth: 1159
Flags: HMW
HStem: -5 32<30 59 177 273> 316 108<269 335>
VStem: 91 69<53 321>
AnchorPoint: "Bottom" 145 -15 basechar 0
AnchorPoint: "Top" 166 465 basechar 0
LayerCount: 2
Fore
SplineSet
121 196 m 4
 120 152 120 42 120 33 c 4
 120 31 119 30 158 27 c 4
 180 26 204 25 223 24 c 5
 223 0 l 5
 199 1 156 4 130 4 c 7
 103 4 75 -1 48 -5 c 5
 44 19 l 5
 53 20 59 21 70 22 c 4
 95 26 95 24 95 57 c 4
 95 85 97 188 97 218 c 7
 97 253 97 325 97 363 c 4
 97 369 97 378 96 378 c 7
 88 378 81 354 49 337 c 5
 39 360 l 5
 56 367 81 396 100 433 c 5
 121 425 121 425 121 406 c 7
 121 397 121 369 121 337 c 5
 158 380 237 424 292 424 c 7
 318 424 344 402 344 388 c 7
 321 381 l 5
 318 391 305 400 292 400 c 7
 240 400 121 338 121 278 c 4
 121 247 121 210 121 196 c 4
EndSplineSet
Substitution2: "case-1" R
Substitution2: "pcap-1" r.pcap
Substitution2: "smcp-1" r.smcp
EndChar

StartChar: s
Encoding: 115 115 18
Width: 352
VWidth: 1159
Flags: HMW
HStem: -9 38<111 233> 370 38<130 232>
VStem: 49 68<274 353> 250 68<46 140>
AnchorPoint: "Bottom" 164 -15 basechar 0
AnchorPoint: "Top" 182 465 basechar 0
LayerCount: 2
Back
SplineSet
57 108 m 1
 67.760828125 60.1617246686 78.043359375 25 176 25 c 1
 223.02734375 25 284 50.5634765625 284 99 c 1
 284 147.999930245 235.44140625 179.765206473 198 189 c 0
 137.364905197 208.09480366 51 228.169356497 51 296 c 1
 51 356.775614754 111.111111111 408 191 408 c 1
 222.244161184 408 250.648221628 401 280 394 c 1
 280 394 286.153320312 350.644097222 290 322 c 1
 276 320 l 1
 280.50877193 352.710526316 228.968904195 382 174 382 c 1
 127.63671875 382 80 343.424804688 80 298 c 1
 80 270.161879596 108.411132812 244.769545611 164 237 c 0
 252.949048913 212.241210938 312 149.188476562 312 91 c 1
 312 14.4340186665 201.156575521 -6 151 -6 c 1
 103.357680622 -6 67.7004039797 7.6396484375 32 25 c 1
 38 39 41 52.9599609375 41 68 c 1
 41 73.8977903803 39.5712890625 91.10220962 36 97 c 1
 57 108 l 1
EndSplineSet
Fore
SplineSet
53 105 m 5
 77 75 27 18 151 18 c 7
 230 18 287 46 287 98 c 7
 287 153 232 180 173 198 c 4
 123 215 51 238 51 307 c 7
 51 363 111 409 191 409 c 7
 223 409 251 402 281 395 c 5
 281 395 287 351 291 322 c 5
 267 320 l 5
 259 377 250 385 191 385 c 7
 118 385 75 345 75 307 c 7
 75 273 108 244 181 221 c 4
 277 193 312 147 312 98 c 7
 312 26 237 -6 151 -6 c 7
 102 -6 65 8 28 25 c 5
 34 39 37 53 37 68 c 7
 37 73 36 89 32 94 c 5
 53 105 l 5
EndSplineSet
Substitution2: "case-1" S
Substitution2: "pcap-1" s.pcap
Substitution2: "smcp-1" s.smcp
EndChar

StartChar: t
Encoding: 116 116 19
Width: 341
VWidth: 1159
Flags: HMW
HStem: -10 49<154 261> 360 36<148 304>
VStem: 68 74<52 357>
AnchorPoint: "Bottom" 183 -15 basechar 0
AnchorPoint: "TopRight" 313 531 basechar 0
AnchorPoint: "Top" 144 508 basechar 0
LayerCount: 2
Fore
SplineSet
28 399 m 5
 73 399 72 395 79 465 c 5
 103 463 l 5
 101 441 100 423 98 399 c 5
 158 399 230 399 290 399 c 5
 290 375 l 5
 229 375 158 375 97 375 c 5
 94 305 87 219 87 103 c 7
 87 59 108 14 155 14 c 7
 213 14 264 43 297 62 c 5
 310 42 l 5
 273 19 211 -10 155 -10 c 7
 135 -10 63 1 63 103 c 7
 63 208 70 272 73 375 c 5
 73 375 45 375 28 375 c 5
 28 399 l 5
EndSplineSet
Substitution2: "case-1" T
Substitution2: "pcap-1" t.pcap
Substitution2: "smcp-1" t.smcp
EndChar

StartChar: u
Encoding: 117 117 20
Width: 506
VWidth: 1159
Flags: HMW
HStem: -11 55<171 272> 338 31<291 350>
VStem: 69 76<71 327> 358 65<36 52 75 331>
AnchorPoint: "Bottom" 255 -15 basechar 0
AnchorPoint: "Ogonek" 392 -3 basechar 0
AnchorPoint: "Horn" 434 333 basechar 0
AnchorPoint: "Top" 264 465 basechar 0
LayerCount: 2
Fore
SplineSet
321 369 m 1
 353 378 387 389 412 399 c 1
 429 385 l 1
 426 341 425 175 425 137 c 3
 425 107 425 81 427 54 c 0
 430 22 435 -3 436 -3 c 3
 440 -3 467 13 487 24 c 1
 501 4 l 1
 484 -5 467 -14 447 -24 c 0
 442 -26 438 -28 434 -28 c 3
 411 -28 409 -6 404 46 c 1
 351 25 252 -12 178 -12 c 3
 141 -12 107 4 89 41 c 0
 76 68 70 96 70 148 c 3
 70 201 71 261 76 312 c 0
 81 368 l 3
 80 368 45 338 38 333 c 1
 25 353 l 1
 62 388 68 395 87 420 c 1
 111 411 l 1
 99 331 94 236 94 148 c 3
 94 75 109 12 178 12 c 3
 247 12 345 51 403 72 c 1
 398 110 402 324 402 333 c 3
 402 369 400 365 333 347 c 1
 321 369 l 1
EndSplineSet
Substitution2: "case-1" U
Substitution2: "pcap-1" u.pcap
Substitution2: "smcp-1" u.smcp
EndChar

StartChar: v
Encoding: 118 118 21
Width: 418
VWidth: 1159
Flags: HMW
HStem: 371 30<6 43 144 203 270 316>
DStem2: 224 95 55 339 0.322551 -0.946552<-271.079 -13.8948> 224 95 273 128 0.393919 0.919145<1.32074 223.239>
AnchorPoint: "Bottom" 193 -15 basechar 0
AnchorPoint: "Top" 210 465 basechar 0
LayerCount: 2
Back
SplineSet
419 392 m 1
 377 381.578125 374.093714123 379.906770769 360 345 c 0
 328.965517241 274.711229947 299.750700738 201.577863895 270 133 c 0
 250.759095793 87.549823044 228.444444444 38 205 -20 c 1
 188 -20 l 1
 153.056 112.543956044 103.673614836 251.915350835 64 354 c 0
 59.9226087382 364.490434651 58.1267027027 376.580953002 42 377 c 0
 30.6532436755 375.828565797 15.5806451613 380.888888889 3 382 c 1
 6 405 l 1
 22.5487804878 401 48.4512195122 400 65 400 c 3
 99.8869565217 400 150.165217391 405 183 411 c 1
 188 387 l 1
 162.109090909 381.444444444 99 377 99 377 c 1
 96.2693069307 379.293069307 91 393.676268674 91 388 c 3
 91 404.348017554 90.2924170751 403.592905089 86.2025335423 413.99999811 c 0
 100.022338673 307.981745627 164.419006607 139.245788108 199 29 c 1
 243.651285512 128.948621263 304.922772749 257.171564448 334.317382812 364 c 0
 334.160981838 364.469559246 336 358.624702744 336 362 c 3
 336 387.230769231 331.603448276 375.076923077 269 389 c 1
 277 412 l 1
 310.46031746 405 325.571428571 404 345 404 c 3
 366.710526316 404 392.763157895 409 411 415 c 1
 419 392 l 1
EndSplineSet
Fore
SplineSet
419 392 m 1
 377 382 375 379 360 345 c 0
 329 275 299 202 270 133 c 0
 251 88 228 38 205 -20 c 1
 188 -20 l 1
 153 113 104 252 64 354 c 0
 60 364 58 376 42 377 c 0
 31 378 16 381 3 382 c 1
 6 405 l 1
 23 401 48 400 65 400 c 3
 100 400 150 405 183 411 c 1
 188 387 l 1
 162 381 99 377 99 377 c 0
 92 376 88 375 88 367 c 3
 88 366 89 356 91 351 c 0
 126 258 174 122 199 29 c 1
 240 123 291 246 331 340 c 0
 334 347 336 353 336 362 c 3
 336 387 332 375 269 389 c 1
 277 412 l 1
 310 405 326 404 345 404 c 3
 367 404 393 409 411 415 c 1
 419 392 l 1
EndSplineSet
Substitution2: "case-1" V
Substitution2: "pcap-1" v.pcap
Substitution2: "smcp-1" v.smcp
EndChar

StartChar: w
Encoding: 119 119 22
Width: 657
VWidth: 1159
Flags: HMW
HStem: 371 30<5 41 152 191 245 282 383 442 510 554>
DStem2: 208 109 254 128 0.453531 0.891241<1.73782 195.326> 447 95 321 271 0.269208 -0.963082<-202.488 0> 447 95 497 128 0.445318 0.895373<0.637142 266.408>
AnchorPoint: "Bottom" 294 -15 basechar 0
AnchorPoint: "Top" 323 465 basechar 0
LayerCount: 2
Back
SplineSet
659 391 m 1
 633.65 380.53125 633.937712787 378.193533318 620 353 c 0
 582.650595497 278.79920586 533.074115549 205.49481911 493 133 c 0
 467.879205067 89.3483533911 441.94265233 38 416 -20 c 1
 395 -20 l 1
 369.524096386 84.0709459459 343.344234079 193.293918919 320 285 c 1
 301.28358209 236.328671329 282.233302536 185.418855606 263 140 c 0
 241.849248801 92.0998174282 219 39.6535947712 191 -20 c 1
 169 -20 l 1
 143.588235294 98.3241758242 95.5781741063 240.675707739 51 345 c 0
 45.8799344639 356.965764005 39.6186597735 375.312749158 32 373 c 0
 22.4684647095 372.730791103 12 377.793650794 2 381 c 1
 5 405 l 1
 17.3414634146 401 36.6585365854 400 49 400 c 3
 85.9423076923 400 127.230769231 402.5 162 410 c 1
 166 386 l 1
 136.976744186 378.5 84.755179896 376.67551759 88 377 c 0
 85.4066569404 376.140667097 84 390.887221555 84 390 c 3
 84 406.160695989 83.6273722091 404.028811688 81.6050150639 412.999998381 c 0
 99.7786165644 300.785229138 143.061425742 151.800454932 178 36 c 1
 218.96 127.591836735 250 202 322 308 c 1
 315.928571429 324.5 311.992436374 343.494874547 305 359 c 0
 299.890703205 371.690729079 300.434062824 379.994266343 286 376 c 0
 272.102823828 375.092144168 253.6875 379.888888889 239 381 c 1
 242 405 l 1
 261.592592593 401 291.407407407 400 311 400 c 3
 345.591304348 400 395.443478261 406.363636364 428 414 c 1
 433 390 l 1
 405.528301887 383.333333333 342 378 342 378 c 0
 333.833333333 377 328 376 328 367 c 3
 328 366 329.643401613 355.88633709 331 351 c 0
 351.9375 255.164609053 383.515625 116.135802469 410 23 c 1
 459.833333333 133 528.543177165 240.078728673 590 352 c 0
 595.430126382 360.161395346 600 365 600 374 c 3
 600 383.58974359 590.121921139 380.922275641 527 391 c 1
 532 415 l 1
 572.538461538 405.375 593.461538462 404 617 404 c 3
 627.810810811 404 639.918918919 409 649 415 c 1
 659 391 l 1
EndSplineSet
Fore
SplineSet
659 391 m 1
 634 381 634 378 620 353 c 0
 580 280 533 205 493 133 c 0
 469 89 442 38 416 -20 c 1
 395 -20 l 1
 371 84 347 193 327 285 c 1
 306 236 283 187 263 140 c 0
 242 92 219 40 191 -20 c 1
 169 -20 l 1
 144 98 93 240 51 345 c 0
 45 359 39 377 32 377 c 0
 23 377 12 378 2 381 c 1
 5 405 l 1
 17 401 37 400 49 400 c 3
 81 400 117 402 147 409 c 1
 151 385 l 1
 122 378 74 377 74 377 c 0
 70 377 68 376 68 372 c 3
 68 365 73 353 77 344 c 0
 119 245 158 125 184 24 c 1
 230 125 267 211 318 325 c 1
 316 336 313 348 312 359 c 0
 310 375 310 374 299 376 c 0
 285 377 265 380 249 381 c 1
 252 405 l 1
 271 401 299 400 318 400 c 3
 345 400 383 406 408 414 c 1
 413 390 l 1
 394 383 349 378 349 378 c 0
 341 377 336 376 336 367 c 3
 336 366 337 356 338 351 c 0
 358 255 387 116 410 23 c 1
 461 133 527 240 592 352 c 0
 597 360 600 365 600 374 c 3
 600 384 596 379 539 391 c 1
 544 415 l 1
 579 405 597 404 617 404 c 3
 628 404 640 409 649 415 c 1
 659 391 l 1
EndSplineSet
Substitution2: "case-1" W
Substitution2: "pcap-1" w.pcap
Substitution2: "smcp-1" w.smcp
EndChar

StartChar: x
Encoding: 120 120 23
Width: 435
VWidth: 1159
Flags: HW
HStem: -6 29<10.2759 49.706 116.703 163.933 229.222 267.152 356.707 423.966> 371 33<19 96.6319 177.005 205.552> 379 26<263 307.763 387.82 420>
AnchorPoint: "Bottom" 211 -15 basechar 0
AnchorPoint: "Top" 220 465 basechar 0
LayerCount: 2
Back
SplineSet
8 18 m 1
 38 21.347826087 51.9426336509 20.5466534514 60 29 c 2
 207 211 l 1
 128 354 l 2
 107.802437341 388.300802523 91.1983471074 377 19 380 c 1
 19 404 l 1
 36 403 69 401 86 401 c 0
 124 401 169 403 205 407 c 1
 209 383 l 1
 174 375.911136184 160 379.26071255 160 374 c 3
 160 372.25 162.067053827 369.170764869 163 367 c 2
 222 229 l 1
 319 346 l 2
 326.344742798 353.275739598 340 369.266666667 340 378 c 3
 340 387.166666667 287 377 262 388 c 1
 263 405 l 1
 279 404 306 404 322 404 c 0
 352 404 399 406 420 407 c 1
 423 383 l 1
 376.142857143 380.434782609 378.549826475 379.433171756 363 362 c 0
 320.704203209 311.24504385 279 260 237 209 c 1
 263.206896552 153 287.120806564 91.7004065057 313 41 c 0
 325.546319219 19.6743030965 358.060543253 25.1875 427 19 c 1
 423 -5 l 1
 396 -1 346 2 318 2 c 0
 295.295454545 2 270.068181818 -1 244 -5 c 1
 241 14 l 1
 279 26.7857142857 289 17.2857142857 289 31 c 3
 289 28.7142857143 294.565368274 19.8084150111 293 23 c 2
 221 190 l 1
 104 45 l 2
 99.6907643654 40.2227797624 97 35 97 30 c 3
 97 21.5217391304 111.320754717 22.3913043478 166 17 c 1
 163 -6 l 1
 141 -4 111 -1 88 -1 c 0
 63 -1 34 -4 11 -6 c 1
 8 18 l 1
EndSplineSet
Fore
SplineSet
8 18 m 1xc0
 38 21 53 20 60 29 c 2
 207 211 l 1
 125 354 l 2
 97 382 92 377 19 380 c 1
 19 404 l 1xc0
 36 403 69 401 86 401 c 0
 124 401 169 403 205 407 c 1
 209 383 l 1
 157 376 142 379 142 374 c 3
 142 372 144 369 145 367 c 2
 222 229 l 1
 319 346 l 2
 326 354 340 369 340 378 c 3
 340 381 288 380 262 381 c 1
 263 405 l 1xa0
 279 404 306 404 322 404 c 0
 352 404 399 406 420 407 c 1
 423 383 l 1
 376 380 378 380 363 362 c 0
 320 310 277 257 234 205 c 1
 266 150 296 95 327 41 c 0
 344 23 357 25 427 19 c 1
 423 -5 l 1
 396 -1 346 2 318 2 c 0
 291 2 261 -1 230 -5 c 1
 227 17 l 1
 294 30 303 19 303 31 c 3
 303 33 301 36 299 39 c 2
 218 186 l 1
 104 45 l 2
 100 40 97 35 97 30 c 3
 97 22 111 22 166 17 c 1
 163 -6 l 1
 141 -4 111 -1 88 -1 c 0
 63 -1 34 -4 11 -6 c 1
 8 18 l 1xc0
EndSplineSet
Substitution2: "case-1" X
Substitution2: "pcap-1" x.pcap
Substitution2: "smcp-1" x.smcp
EndChar

StartChar: y
Encoding: 121 121 24
Width: 446
VWidth: 1159
Flags: HMW
HStem: 365 30<9 37 170 185 277 339 410 444>
DStem2: 176 -32 383 308 0.447214 0.894427<-152.969 14.7689>
AnchorPoint: "Bottom" 291 -15 basechar 0
AnchorPoint: "Top" 232 465 basechar 0
LayerCount: 2
Back
SplineSet
79 -346 m 1
 76.3114754098 -346 63.5409836066 -343 38 -343 c 3
 12.6551724138 -343 6.74137931034 -345 -11 -346 c 1
 -11 -346 -10 -340.074074074 -12 -336 c 5
 78.0322580645 -311.022727273 51.9677419355 -293.954545455 198 -11 c 5
 153.685652586 146.709627511 75.2717236072 373.388347294 52.3310546875 378 c 0
 49.7665308396 372.398602694 50.7407003906 373.387465405 47 375 c 0
 35.0797952389 376.857142857 19.2258064516 381.547619048 6 382 c 1
 10 406 l 1
 27.6049382716 402 54.3950617284 400 72 400 c 3
 95.1489361702 400 114.212765957 400.571428571 136 404 c 1
 140 384 l 1
 144 385 80.8776257119 367.47357183 86 370 c 0
 88.9129475105 376.341707305 83 411.497204588 83 412 c 3
 83 419.672260418 86.0245284227 415.342541934 87.365234375 416 c 0
 107.856465574 324.933901679 157.010731789 152.808054784 205 12 c 1
 257.75 117.840758633 319.553705257 238.080709222 360 344 c 0
 362.523970359 348.848616223 367 353.049875621 367 361 c 3
 367 390.964331152 357.395348837 369.724137931 278 388 c 1
 284 411 l 1
 317.358695652 404 363.630434783 400 383 400 c 3
 403.945945946 400 427.405405405 402 445 408 c 1
 450 384 l 1
 403.172839506 373.372881356 396.036348689 375.278434941 385 339 c 0
 371 301.8125 324.120228161 189.567012334 225 -11 c 0
 150 -156 73 -311 79 -346 c 1
EndSplineSet
Fore
SplineSet
79 -346 m 1
 77 -346 69 -343 52 -343 c 3
 23 -343 16 -345 -4 -346 c 1
 -4 -346 -3 -334 -5 -326 c 1
 63 -312 24 -360 198 -11 c 1
 154 117 81 313 63 354 c 0
 53 376 53 376 47 377 c 0
 36 378 22 379 10 382 c 1
 14 406 l 1
 30 402 56 400 72 400 c 3
 102 400 127 401 155 407 c 1
 159 383 l 1
 140 380 108 376 89 376 c 0
 83 376 83 375 83 373 c 3
 83 368 87 360 90 352 c 0
 122 269 170 144 213 20 c 1
 262 124 316 240 361 344 c 0
 365 352 369 368 369 372 c 3
 369 380 359 372 283 388 c 1
 289 411 l 1
 321 404 365 400 383 400 c 3
 399 400 416 402 429 408 c 1
 434 384 l 1
 394 373 399 373 385 339 c 0
 370 302 300 139 225 -11 c 0
 95 -272 73 -311 79 -346 c 1
EndSplineSet
Substitution2: "case-1" Y
Substitution2: "pcap-1" y.pcap
Substitution2: "smcp-1" y.smcp
EndChar

StartChar: z
Encoding: 122 122 25
Width: 453
VWidth: 1159
Flags: HMW
HStem: 0 31<137 361> 362 32<77 314>
DStem2: 314 360 137 31 0.646621 0.762811<-366.184 0>
AnchorPoint: "Bottom" 226 -15 basechar 0
AnchorPoint: "Top" 232 465 basechar 0
LayerCount: 2
Fore
SplineSet
351 -2 m 6
 166 -2 l 6
 140 -2 49 -2 30 -2 c 5
 19 16 l 5
 139 125 265 250 387 376 c 5
 339 376 293 376 245 376 c 7
 197 376 154 377 107 375 c 4
 69 375 65 375 35 310 c 5
 13 319 l 5
 50 399 l 5
 72 400 100 400 229 400 c 7
 319 400 392 400 415 400 c 5
 425 381 l 5
 315 265 197 148 60 22 c 5
 279 22 l 6
 318 22 370 19 379 28 c 4
 388 37 390 49 399 72 c 4
 403 82 408 92 413 106 c 5
 435 98 l 5
 396 -2 l 5
 396 -2 379 -2 351 -2 c 6
EndSplineSet
Substitution2: "case-1" Z
Substitution2: "pcap-1" z.pcap
Substitution2: "smcp-1" z.smcp
EndChar

StartChar: A
Encoding: 65 65 26
Width: 705
VWidth: 1159
Flags: HMW
HStem: -10 37<475.198 516.465 640.751 690.047> 245 42<237 427.657> 692 20G<348 395.5>
VStem: 350 43<632.023 712>
DStem2: 96 80 154 87 0.391141 0.920331<-3.53261 211.909 245.659 524.174> 407 642 465 236 0.354654 -0.934998<388.302 400.179 571.058 597.203>
AnchorPoint: "Bottom" 353 -15 basechar 0
AnchorPoint: "Ogonek" 523 27 basechar 0
AnchorPoint: "Top" 367 699 basechar 0
LayerCount: 2
Fore
SplineSet
224 314 m 1
 299 314 435 312 505 312 c 1
 455 446 423 533 374 670 c 1
 322 536 276 438 224 314 c 1
563 -7 m 1
 563 17 l 1
 621 27 624 18 609 54 c 0
 574.368421053 138.554621849 552.6 195.579831933 515 288 c 1
 439 289 320 290 214 290 c 1
 173.788461538 199.35443038 151.230769231 140.873417722 112 59 c 0
 93 19 101 27 184 19 c 1
 184 -5 l 1
 163 -2 133 0 103 0 c 0
 71 0 40 -2 17 -6 c 1
 17 18 l 1
 67 25 68 18 85 56 c 0
 182.231372549 270.804384486 266.564705882 470.760539629 338 643 c 0
 354 682 355 682 364 711 c 1
 384 711 l 5
 393 684 393 685 408 645 c 0
 498.607758621 400.613114754 555.362068966 250.603278689 639 39 c 0
 647 19 651 22 693 17 c 1
 693 -7 l 1
 668 -3 651 0 630 0 c 0
 613 0 592 -2 563 -7 c 1
EndSplineSet
Position2: "cpsp-1" dx=0 dy=0 dh=50 dv=100
Substitution2: "c2pc-1" a.pcap
Substitution2: "c2sc-1" a.smcp
EndChar

StartChar: B
Encoding: 66 66 27
Width: 584
VWidth: 1159
Flags: HMW
HStem: -4 38<17 91.426 193.57 383.69> 349 30<183 322.635> 653 41<19 86.219 195.972 328.268>
VStem: 101 80<45.6349 349 379 533.879> 388 90<447.929 586.24> 459 90<100.26 258.491>
AnchorPoint: "Bottom" 282 -15 basechar 0
AnchorPoint: "Top" 249 699 basechar 0
LayerCount: 2
Fore
SplineSet
19 20 m 1
 85 24 86 22 86 54 c 0
 86 59.9008264463 86 166.115702479 86 292 c 3
 86 472.854700855 86 627.170940171 86 637 c 0
 86 663 86 662 65 664 c 0
 59 665 26 669 20 670 c 1
 24 693 l 1
 33 693 70 684 121 684 c 3
 170 684 221 694 267 694 c 3
 410 694 448 575.978021978 448 515 c 3
 448 445.429530201 400 394.476510067 331 369 c 1
 454 345.255319149 534 278.968085106 534 183 c 3
 534 69.2041884817 432 -6 273 -6 c 3
 224 -6 178 0 125 0 c 3
 70 0 28 -4 21 -4 c 1
 19 20 l 1
267 378 m 0
 369 389.742857143 424 446.5 424 515 c 3
 424 553.259493671 400 670 267 670 c 3
 249 670 215 668 202 666 c 0
 112 655 111 662 111 637 c 0
 111 376 l 1
 240 376 251 376 267 378 c 0
243 352 m 0
 111 352 l 1
 111 240.553264605 111 132.065292096 111 65 c 0
 111 23 113 24 201 22 c 0
 210 22 250 18 273 18 c 3
 402 18 510 74.3173652695 510 183 c 3
 510 266.01754386 433 352 243 352 c 0
EndSplineSet
Position2: "cpsp-1" dx=0 dy=0 dh=50 dv=100
Substitution2: "c2pc-1" b.pcap
Substitution2: "c2sc-1" b.smcp
EndChar

StartChar: C
Encoding: 67 67 28
Width: 743
VWidth: 1159
Flags: HW
HStem: -9 42<347.099 553.906> 659 40<323.855 545.759>
VStem: 43 103<245.223 465.81> 633 33<522.188 588.436> 673 27<150.932 169.074>
AnchorPoint: "Bottom" 416 -9 basechar 0
AnchorPoint: "Top" 426 699 basechar 0
LayerCount: 2
Back
SplineSet
43 348 m 7
 43 525.39031339 167 710 447 710 c 7
 509 710 544 706 603 689 c 4
 644 678 661 684 676 689 c 5
 703 675 l 5
 665 615 666 578 666 556 c 4
 666 536 665 529 633 529 c 13
 618 566 630 604 596 625 c 4
 542 657 499 670 433 670 c 31
 273 670 146 561.030927835 146 368 c 7
 146 158.528358209 298 29 452 29 c 7
 554 29 636 82 673 171 c 13
 700 163 l 5
 691 116 683 90 671 43 c 5
 608 12 531 -13 438 -13 c 7
 218 -13 43 137.669467787 43 348 c 7
EndSplineSet
Fore
SplineSet
50 348 m 3
 50 534.078431373 178 713 454 713 c 3
 512 713 542 712 600 699 c 0
 639 692.571428571 684 677.571428571 689 684 c 1
 709 672 l 1
 672 614 673 577 673 556 c 0
 649 556 l 1
 647 623.091743119 670 652.385321101 648 659 c 0
 578 681 533 689 454 689 c 3
 238 689 74 559.972972973 74 348 c 3
 74 140.233038348 258 11 445 11 c 3
 568 11 657 40.2056737589 677 153 c 1
 701 150 l 1
 693 108 686 84 676 42 c 1
 614 11.4444444444 548 -13 445 -13 c 3
 225 -13 50 138.162534435 50 348 c 3
EndSplineSet
Position2: "cpsp-1" dx=0 dy=0 dh=50 dv=100
Substitution2: "c2pc-1" c.pcap
Substitution2: "c2sc-1" c.smcp
EndChar

StartChar: D
Encoding: 68 68 29
Width: 792
VWidth: 1159
Flags: HW
HStem: -10 38<15.6316 81.6884> -7 44<159.868 463.195> 647 41<13 82.5059> 659 37<188.563 435.412>
VStem: 94 82<49.5582 525.672> 655 94<221.047 461.211>
AnchorPoint: "Bottom" 357 -15 basechar 0
AnchorPoint: "Top" 357 699 basechar 0
LayerCount: 2
Fore
SplineSet
304 23 m 0x5c
 540 23 707 122.310447761 707 346 c 3
 707 527.169230769 548 666 328 666 c 3
 244 666 197.071006472 662.076500462 112 656 c 0
 84 654 96 666 96 626 c 0
 96 524.75170068 96 430.384353741 96 337 c 3
 96 243.919191919 95 150.843041961 95 52 c 0
 95 34 86 24 113 24 c 0
 164 24 228 23 304 23 c 0x5c
13 682 m 1xac
 49 682 70 682 106 682 c 3
 193 682 241 690 328 690 c 3
 553 690 731 547.077363897 731 346 c 3
 731 85.991643454 519 -1 304 -1 c 3x5c
 230 -1 187 0 113 0 c 3
 51 0 44 -2 19 -4 c 1
 16 20 l 1
 82 22 69 24 71 49 c 1
 71 124.860927152 71 232.410596026 71 339 c 3
 71 450.071672355 72 558.194539249 72 627 c 1
 70 662 81 656 13 658 c 1
 13 682 l 1xac
EndSplineSet
Position2: "cpsp-1" dx=0 dy=0 dh=50 dv=100
Substitution2: "c2pc-1" d.pcap
Substitution2: "c2sc-1" d.smcp
EndChar

StartChar: E
Encoding: 69 69 30
Width: 619
VWidth: 1159
Flags: HW
HStem: -9 35<25 70.5829> 3 37<200.897 461.73> 333 36<174 442.393> 656 31<17 77.489>
VStem: 91 93<372.534 637.287> 96 78<90.4624 333 369 602.188> 466 36<247.75 305.348 393.846 441.094> 507 30<536 617.59> 567 28<152.034 171.75>
AnchorPoint: "Bottom" 296 -15 basechar 0
AnchorPoint: "Ogonek" 535 15 basechar 0
AnchorPoint: "Top" 299 699 basechar 0
LayerCount: 2
Fore
SplineSet
16 684 m 1
 16 684 139 684 217 684 c 3
 337 684 524 684 524 684 c 1
 533 676 536 670 536 661 c 3
 536 645.025862069 525 618.715517241 518 552 c 1
 494 552 l 1
 496 642.156521739 544.006269872 661.61550519 460 660 c 0
 408 659 331 660 256 660 c 3
 218 660 181 660 148 660 c 0
 86 660 98 665 98 638 c 0
 98 537.529824561 98 451.69122807 98 360 c 1
 189 360 393 360 413 360 c 0
 448 360 439 347 461 421 c 1
 485 421 l 1
 477 396 473 371 473 346 c 3
 473 319 477 293 483 266 c 1
 459 266 l 1
 441 345 448.227829908 336 413 336 c 0
 350 336 230 336 98 336 c 1
 98 218.408026756 98 123.35451505 98 43 c 0
 98 20 85.9923081474 23 151 23 c 0
 217 23 274 23 328 23 c 3
 385 23 438 23 496 23 c 0
 519 23 525 55.5217391304 552 155 c 1
 575 149 l 1
 567 108.625806452 549 50.9483870968 538 0 c 1
 538 0 340 0 214 0 c 3
 141 0 26 0 26 0 c 1
 26 24 l 1
 74 23 74 22 74 51 c 1
 74 51 74 231.332225914 74 346 c 3
 74 458.280405405 74 635 74 635 c 0
 74 658 86 658 16 660 c 1
 16 684 l 1
EndSplineSet
Position2: "cpsp-1" dx=0 dy=0 dh=50 dv=100
Substitution2: "c2pc-1" e.pcap
Substitution2: "c2sc-1" e.smcp
EndChar

StartChar: F
Encoding: 70 70 31
Width: 566
VWidth: 1159
Flags: HW
HStem: -9 35<33 79.5176> 332 39<186 389.616> 654 31<17 81.7781> 680 20G<514.477 525.182>
VStem: 105 81<84.0664 332 371 638.375> 451 36<246.75 303.707 394.284 440.094> 499 31<534 596.775>
AnchorPoint: "Bottom" 171 -15 basechar 0
AnchorPoint: "Top" 309 699 basechar 0
LayerCount: 2
Fore
SplineSet
223 -9 m 1xde
 189 -2.84210526316 164 0 137 0 c 3
 112 0 86 -3 48 -9 c 1
 42 14 l 1
 96 26.1428571429 96 17.9285714286 96 36 c 1
 96 367 l 0
 96 641 l 0
 96 657 95 657 27 658 c 1
 27 682 l 1xee
 78 681 137 681 195 681 c 3
 347 681 493 683 495 690 c 1
 518 682 522 668 522 653 c 3
 522 642 522 615 522 596 c 1
 498 596 l 1
 496 666 506.987600027 661.41132706 467 660 c 0
 382 657 245 657 135 657 c 0
 123 657 120 657 120 632 c 0
 120 543.136363636 120 459.102272727 120 377 c 1
 212 377 402 377 422 377 c 0
 445 377 442 376 458 421 c 1
 481 412 l 1
 473 394 469 376 469 358 c 3
 469 339 473 320 479 301 c 1
 456 295 l 1
 440 351 447 353 422 353 c 0
 359 353 253 353 120 353 c 1
 120 212 120 122 120 40 c 0
 120 15.4444444444 120 33.4111111111 231 14 c 1
 223 -9 l 1xde
EndSplineSet
Position2: "cpsp-1" dx=0 dy=0 dh=50 dv=100
Substitution2: "c2pc-1" f.pcap
Substitution2: "c2sc-1" f.smcp
EndChar

StartChar: G
Encoding: 71 71 32
Width: 803
VWidth: 1159
Flags: HW
HStem: -9 37<374.664 581.67> 319 32<497.562 613.119 730.522 761> 674 38<338.234 547.832> 682 20G<658 689>
VStem: 43 99<250.812 472.081> 638 87<64.334 306.866> 675 31<535.645 556.71>
AnchorPoint: "Bottom" 426 -15 basechar 0
AnchorPoint: "Top" 449 699 basechar 0
LayerCount: 2
Back
SplineSet
43 355 m 7xec
 43 608.579101562 302 712 466 712 c 7xec
 529 712 576 696 625 681 c 4
 653 674 653 682 663 702 c 13
 689 701 l 13
 706 537 l 13
 675 531 l 5xda
 631 627 549 674 443 674 c 7
 252 674 142 518.012695312 142 366 c 7
 142 176.799602441 296 22 483 22 c 31
 538 22 571 33 620 58 c 28
 635 65 636 80 636 97 c 4
 636 135.72179787 638 199.917303194 638 258 c 4
 638 289 632 309 583 313 c 4
 551 315 528 316 496 317 c 13
 498 349 l 5
 600 339 712 340 761 346 c 13
 764 322 l 5
 736 315 726 308 725 287 c 4
 723 212.859042661 722 145.827792661 720 92 c 4
 719 70 725 63 748 48 c 13
 745 27 l 5
 666 15 502 -15 448 -15 c 7
 220 -15 43 139.672261332 43 355 c 7xec
EndSplineSet
Fore
SplineSet
43 355 m 3xec
 43 586 266 710 466 710 c 3xec
 547 710 618 692 659 651 c 0
 663 647 665 644 660 691 c 1
 684 695 l 1
 702 542 l 1
 677 540 l 1xda
 675 640 597 686 466 686 c 3
 243 686 68 544 68 359 c 3
 68 166.693877551 219 10 443 10 c 3
 490 10 593 28.7586206897 675 42 c 0
 691 44 691 44 691 81 c 0
 691 135.24 691 225.64 691 307 c 0
 691 313 694 318 680 318 c 0
 590 318 571 320 508 326 c 1
 510 350 l 1
 601 340 700 340 744 348 c 1
 747 324 l 1
 715 319 715 319 715 311 c 0
 715 215.62 715 127.268 715 60 c 0
 715 47 717 48 743 51 c 1
 745 27 l 1
 666 15.1315789474 502 -14 448 -14 c 3
 193 -14 43 164.909090909 43 355 c 3xec
EndSplineSet
Position2: "cpsp-1" dx=0 dy=0 dh=50 dv=100
Substitution2: "c2pc-1" g.pcap
Substitution2: "c2sc-1" g.smcp
EndChar

StartChar: H
Encoding: 72 72 33
Width: 831
VWidth: 1159
Flags: HW
HStem: -12 35<202.944 267.502 582 637.168> -9 42<19 85.0033> 326 40<186 662> 651 37<19.7353 89.7689 199.433 277.162> 658 34<579.971 636.882> 662 37<763.958 814.135>
VStem: 89 97<42.9826 320.895> 101 85<215.157 326 366 617.068> 662 78<84.4575 326 366 439.69>
AnchorPoint: "Bottom" 419 -15 basechar 0
AnchorPoint: "Top" 427 699 basechar 0
LayerCount: 2
Fore
SplineSet
44 692 m 1xd6
 74 685 100 681 129 681 c 0
 149 681 169 683 193 688 c 1
 197 664 l 1xe6
 138 650 128 667 128 643 c 0
 128 605.817204301 128 475.677419355 128 370 c 1
 730 370 l 1
 730 439.342412451 731.849609375 519.444086553 730 621 c 0
 729 677 730 642 662 669 c 1
 670 691 l 1xd6
 691 684 708 681 725 681 c 0
 745 681 766 686 793 698 c 1
 803 677 l 1xce
 754 649 754 675 754 634 c 0
 754 575.272084806 754 466.625441696 754 357 c 0
 754 225.49689441 754 92.0404912443 754 41 c 0
 754 13 754 33 809 11 c 1
 801 -11 l 1
 782 -4 762 0 742 0 c 0
 721 0 699 -7 676 -14 c 1
 667 8 l 1
 730 33 730 13 730 50 c 0
 730 160.754966887 730 230.344370861 730 346 c 1
 128 346 l 1
 128 246.372093023 128 130.139534884 128 52 c 0
 128 13 127 32 194 10 c 1
 187 -12 l 1
 158 -4 133 0 109 0 c 0
 89 0 69 -3 49 -10 c 1
 41 12 l 1
 103 37 102.615811758 8.01041006203 104 52 c 0
 106 115.560126582 105 240.72068334 105 361 c 0
 105 480.413427562 104 594.932862191 104 638 c 0
 104 664 104 654 40 668 c 1
 44 692 l 1xd6
EndSplineSet
Position2: "cpsp-1" dx=0 dy=0 dh=50 dv=100
Substitution2: "c2pc-1" h.pcap
Substitution2: "c2sc-1" h.smcp
EndChar

StartChar: I
Encoding: 73 73 34
Width: 341
VWidth: 1159
Flags: HW
HStem: -10 40<16.125 119.789> 652 43<21.3488 120.801>
VStem: 131 90<41.0295 293.416> 138 76<80.3904 534.592>
AnchorPoint: "Bottom" 167 -15 basechar 0
AnchorPoint: "Ogonek" 234 15 basechar 0
AnchorPoint: "Top" 171 699 basechar 0
LayerCount: 2
Fore
SplineSet
22 695 m 5xd0
 81 685 127 681 174 681 c 7
 220 681 266 685 327 692 c 5
 329 667 l 5
 191 652 189 662 189 616 c 4
 189 538 189 433 189 297 c 3xd0
 189 221.702380952 188 139.376984127 188 44 c 0
 188 20 205 31 329 15 c 1
 328 -10 l 1
 276 -4 219 0 164 0 c 3
 111 0 60 -3 17 -11 c 1
 14 14 l 1
 161 32 164 15 164 46 c 0xe0
 165 126.275862069 165 232.64137931 165 337 c 3
 165 446 165 553 165 619 c 4
 165 662 127 653 18 670 c 5
 22 695 l 5xd0
EndSplineSet
Position2: "cpsp-1" dx=0 dy=0 dh=50 dv=100
Substitution2: "c2pc-1" i.pcap
Substitution2: "c2sc-1" i.smcp
EndChar

StartChar: J
Encoding: 74 74 35
Width: 337
VWidth: 1356
Flags: HMW
AnchorPoint: "Bottom" 189 -139 basechar 0
AnchorPoint: "Top" 172 699 basechar 0
LayerCount: 2
Back
SplineSet
134.739257812 -73.5810546875 m 0
 144.429652192 -32.3244718829 147 14.4675839576 147 65 c 0
 146.960944766 475.82406997 l 0
 146.96063395 557.567855319 146.961266128 622.334015811 147.000043084 635.032430785 c 0
 147.00543263 636.79736313 146.999529111 634.728184148 147.011086901 638.928320115 c 1
 147.002746217 649.035253818 146.874767571 651.183141151 146.415237998 653.856534026 c 1
 142.62907321 654.50722525 133.535067604 654.421484932 119.416224388 654.834125421 c 0
 98.0168185943 655.459549271 65.1066864974 657.708690931 15.5027082664 668.262728852 c 1
 20.1444743869 691.806829786 l 1
 42.1376638563 687.812206983 62.2447464424 684.816191281 81.2358081741 682.681289974 c 0
 106.665675965 679.822563129 130.095440935 678.504546447 153.441387873 678.412676326 c 0
 169.990780908 678.347551757 186.796121224 678.24563705 204.014142607 679.99150023 c 0
 220.564303639 681.669644085 242.826754907 683.566635986 272.067190166 686.568823086 c 0
 286.373086167 688.037644464 302.471503562 689.783131506 320.596505573 691.917642527 c 1
 323.457360601 668.088824572 l 1
 309.865403626 666.425816357 296.956586763 664.87151055 284.582429128 663.450278111 c 0
 268.205000111 661.569250402 252.763677347 659.92118022 237.917817369 658.564592882 c 0
 227.031002197 657.569775765 216.363120555 657.141476814 205.987821462 656.068317419 c 0
 183.153775729 653.706499174 174.858025904 651.558888984 172.340866965 649.982419413 c 0
 172.014411481 649.777963854 171.922313102 649.676236846 171.909942406 649.663929686 c 1
 171.86929407 649.592471713 171.011936609 647.16167967 171.010222104 640.249425058 c 0
 171.010050752 639.558598576 171.009340644 638.65905456 171.008395197 638.144990697 c 0
 171.006504311 637.11686757 171.002528873 636.06133631 170.999956916 634.967569215 c 0
 170.999009993 634.564874125 170.999916819 634.991650697 170.997926627 634.01704179 c 1
 171 635.179754844 l 1
 171 225 l 0
 171 131.466614061 172 94.2282056384 172 63 c 0
 172 3.8828703163 167.452380616 -42.058023189 158.026367188 -79.3876953125 c 0
 152.682219461 -98.6438370646 145.524971313 -117.84702914 135.84375 -134.583984375 c 0
 126.132619935 -151.372646045 114.857639769 -166.724074158 99.494140625 -183.205078125 c 0
 99.0447226397 -183.687185718 98.4250049779 -184.448132386 98.16796875 -184.744140625 c 1
 93.3190151751 -189.919628307 87.4962836724 -195.257418487 81.875 -200.220703125 c 0
 75.154711394 -206.154348738 68.0440420495 -211.922802402 60.59375 -217.076171875 c 0
 42.2593255365 -229.758099336 30.2083489011 -238.193232737 9.630859375 -250.596679688 c 1
 -1.8876953125 -229.54296875 l 1
 13.6528939842 -219.79349941 29.3869995031 -210.287001495 45.51171875 -198.40625 c 0
 48.4654380067 -196.229938962 51.0786384219 -193.192927129 53.9609375 -191.090820312 c 0
 59.4671804566 -187.392032808 63.6981779095 -183.840890663 69.6064453125 -179.422851562 c 1
 73.8911358269 -175.352553178 77.7025990109 -171.447323201 81.533203125 -167.280273438 c 0
 93.3281554023 -154.750418478 103.816220486 -141.488674254 112.697265625 -126.244140625 c 0
 121.405402941 -111.296407551 129.431311637 -94.128997854 134.739257812 -73.5810546875 c 0
EndSplineSet
Fore
SplineSet
147 633 m 0
 147 674 148 645 14 671 c 1
 18 695 l 1
 73 685 116 681 160 681 c 3
 209 681 247 687 323 695 c 1
 325 671 l 1
 173 649 171 669 171 633 c 0
 171 510.096296296 171 384.17037037 171 225 c 3
 171 124 172 83 172 50 c 3
 172 -86 137 -153 85 -197 c 0
 72 -208 36 -234 11 -251 c 1
 -3 -230 l 1
 20 -217 41.0971675887 -202.122265929 60 -187 c 0
 65 -183 69.8987838732 -178.89615532 74 -175 c 0
 134 -118 147 -57 147 65 c 3
 147 106.217699115 147 595.803539823 147 633 c 0
EndSplineSet
Position2: "cpsp-1" dx=0 dy=0 dh=50 dv=100
Substitution2: "c2pc-1" j.pcap
Substitution2: "c2sc-1" j.smcp
EndChar

StartChar: K
Encoding: 75 75 36
Width: 687
VWidth: 1159
Flags: HW
HStem: -10 30<217.663 272.933> -1 24<470.273 498.261 656.235 673.667> 657 31<20.4194 73.0559 201.774 269.29 568.711 604.844>
VStem: 91 92<40.8706 315.532> 100 78<125.33 316 357 600.136>
AnchorPoint: "Bottom" 359 -15 basechar 0
AnchorPoint: "Top" 335 699 basechar 0
LayerCount: 2
Back
SplineSet
217.893867899 -4.38395463953 m 0
 197.953850113 -2.32015774423 181.756051758 -1.20705089765 168.481760134 -0.385263187415 c 0
 155.895353277 0.393938804255 145.75584227 0.919127353635 137.422472555 1.78298325604 c 0
 107.075733118 2.34758985349 76.2886901187 0.452119577782 36.6016111784 -4.89263812756 c 1
 32.6633830067 18.7703109996 l 1
 70.0565132186 26.1935153219 92.1865462424 24.5112981481 97.8824630767 25.5629774291 c 1
 98.6574852669 28.7982915431 98.9673987336 37.9288034502 99.000028027 53.0259354297 c 0
 99.003177645 54.4875278664 l 2
 98.9962135947 56.8190113817 99 58.4193068604 99 61 c 0
 99 236 l 0
 98.8768628184 323.12301807 l 1
 98.9331820088 340.600396766 l 1
 90.2205210429 346.373592018 l 1
 98.9942973155 352.980949438 l 1
 99.1094345561 369.60009408 l 2
 99.2651547074 387.136329364 99.4975672311 404.434106951 99.5971556758 421.508986089 c 0
 99.6493085679 452.447953311 99.7063436025 483.286344191 99.7714981467 513.919337729 c 0
 99.8373608944 544.885299492 99.9131231352 576.207592714 99.9996829118 606.906008872 c 2
 100 626 l 0
 100 627 99.9997886432 625.792965243 100.000168451 626.942712642 c 0
 99.8909692569 647.856091392 97.9612386922 655.275654737 97.3722238563 656.259931545 c 1
 95.2021365845 657.339154468 79.4887827202 656.826925308 50.7890349107 661.391389155 c 0
 46.0425187562 662.146284339 40.9398410405 663.087065788 35.4640064897 664.271030015 c 1
 39.9406340621 687.842041185 l 1
 72.1052676538 682.57100872 106.633075943 680.238034041 141.066131422 680.182231358 c 0
 155.413458867 681.028315677 175.2628663 681.128600584 203.49493815 683.043516263 c 0
 220.223004485 684.178142042 240.023032775 685.953997895 263.502963663 688.906253911 c 1
 266.643865527 665.113128833 l 1
 241.711395823 661.665154436 215.703254788 659.038550279 189.285871041 657.553055715 c 0
 173.706344055 656.676992329 157.705921576 656.197652343 141.837910918 656.182515881 c 0
 126.36839386 655.181885367 126.089659844 653.150078595 126.089659844 653.150078595 c 0
 125.451049347 652.199889176 124 644.399772122 124 626 c 0
 124 625 124.00000035 627.873350381 124.000000212 626.873350381 c 0
 124.038342815 621.02265293 124.02084226 614.351492048 123.99968961 606.873294937 c 0
 123.998425359 575.24772929 123.990183295 546.151403872 123.935290858 514.891244135 c 0
 123.880976288 483.960168707 123.780910628 452.944596227 123.597035416 421.418378197 c 0
 123.569349738 404.959712476 123.541801219 387.737599202 123.516519112 371.356380208 c 1
 153.049732292 393.32536407 182.923937684 414.99479372 212.686630154 436.382709079 c 0
 263.553802538 472.936618932 314.965942228 509.312712302 365.692612639 546.360105568 c 0
 366.62407139 547.041148796 367.671679377 547.807236142 368.488069188 548.404389239 c 0
 369.848718873 549.3996444 371.044275544 550.274397791 372.40668305 551.271629048 c 0
 395.014508894 567.834822817 417.540916047 584.589015949 439.817544264 601.565903259 c 0
 457.851008893 615.309100561 475.764065206 629.22993121 493.520171215 643.383611317 c 0
 499.486106595 648.139155177 504.85488732 652.607162504 509.069079971 656.219122267 c 1
 506.897622399 656.205494869 504.127648312 656.174908216 501.310375293 656.142600524 c 0
 496.853288685 655.902704159 492.121796984 655.685761663 487.954044043 655.535919025 c 0
 471.283006002 654.936547532 454.744704701 654.932042675 438.695951105 655.482939233 c 0
 421.643808488 656.068278563 405.145164907 657.280172069 389.618391053 659.079800475 c 1
 391.736698098 682.977365149 l 1
 397.643493188 682.614052796 403.29912003 682.293359119 408.713803 682.010581919 c 0
 454.374449829 679.625993585 482.744313097 679.93130767 500.505324469 680.13494079 c 0
 514.52572607 680.931843931 528.780363871 682.169296288 542.327971764 683.828395355 c 0
 558.518818946 685.811197018 574.364612576 688.434698745 589.442084422 691.724208626 c 1
 594.859762706 668.34574081 l 1
 523.048973862 650.724559363 561.296617147 670.03140055 526.878046931 639.895670108 c 0
 521.715423319 634.698733015 515.004804288 628.800596643 506.863629599 622.112202872 c 0
 495.117166491 612.461879216 480.339892742 601.140490195 463.158833381 588.369262509 c 0
 437.274248601 569.128427655 411.747320233 550.325224813 386.586355196 531.908340973 c 0
 385.506923885 531.117516146 384.530545269 530.40276152 383.450731293 529.61278057 c 0
 382.370917318 528.822799621 381.075889782 527.876141004 379.88820669 527.008442465 c 0
 318.729708224 482.297954257 259.161048389 439.420034744 199.40916647 396.249025293 c 0
 176.716378876 379.853381905 156.340667856 365.114445658 132.034320138 347.457544773 c 1
 145.150628308 338.766398825 l 1024
136.136288976 344.737890139 m 0
 140.469877043 341.867633103 144.887050049 338.943053774 149.380206175 335.969083108 c 0
 209.28959822 296.315714836 282.703169124 247.884288695 351.631761604 202.342892528 c 0
 426.078921397 153.155356911 495.279611583 107.349078664 536.652924407 79.568125491 c 0
 540.292958106 77.1239507601 543.718116902 74.8189461543 546.9135572 72.662713049 c 0
 559.381321236 64.2496609942 568.270128074 58.1627369594 573.025714154 54.7282753163 c 0
 585.375958667 45.8089874816 594.162853462 40.0649415437 600.023947096 35.0226190249 c 0
 602.646216589 33.1813553299 604.799592566 31.7638879778 606.571000863 30.7304882514 c 0
 611.194598893 28.033185237 613.48375715 27.2718602201 620.444361931 26.3922027787 c 0
 626.600420311 25.9564531995 632.853910584 25.4624746591 638.73661241 24.9721948949 c 0
 647.040862396 24.2800969702 654.988310551 23.5683195406 662.040027809 22.9548459696 c 1
 661.952198228 21.9587104544 660.928151805 -1.04138022973 659.932119291 -0.952390170609 c 0
 648.441454766 0.0742378769218 639.645292054 0.686835599268 632.520968305 1.2148007986 c 0
 626.877629533 1.63301403326 622.2818847 1.99307967822 618.130186343 2.49557286473 c 0
 605.551761565 3.37316125429 593.138286897 4 583 4 c 0
 576.049070155 4 568.843822207 3.88102429407 561.242795134 3.64028969132 c 0
 541.155605554 2.48541327683 512.343190422 0.739285682241 472.389774924 -3.91925021389 c 1
 469.22833551 19.8684963216 l 1
 496.175995981 23.8910963083 529.860343149 26.6211428452 560.192414168 27.6195328142 c 0
 563.113284043 27.7874629129 566.086609301 27.956812325 568.728966948 28.1116672278 c 1
 557.138364954 36.5306689648 540.867362759 48.0667531659 516.414720085 63.9682125555 c 1
 123.446052307 324.357645331 l 1
 123.318619061 236.617156235 l 0
 123.228241384 175.224897693 123.13129207 114.087926071 123.003308057 54.5210055926 c 0
 123.030116784 37.5756116825 124.42501415 30.7835813343 125.262419022 29.4770974288 c 0
 125.474443538 29.146305687 126.763632542 27.1163504581 138.95250945 25.7577885136 c 0
 151.323877279 25.4887236527 163.844746665 24.8351275397 176.321950526 23.8693801277 c 0
 193.479813968 22.5413452252 211.353215455 20.6073262803 231.165463164 18.2125131309 c 1024
657.796882519 23.3261580246 m 2
 659.178925869 23.2077351514 660.602061636 23.0833530901 662.067880709 22.9523901706 c 1
 659.959972191 -0.95484596961 l 1
 657.890205534 -0.774783852006 655.751485699 -0.586993476657 653.556169517 -0.394312878248 c 0
 657.796882519 23.3261580246 l 2
221.981774786 19.3199414616 m 1
 234.981872309 17.9549863942 249.498899423 16.1965032147 265.699274614 13.879076807 c 1
 262.474202938 -9.90260237613 l 1
 244.658257699 -7.61877266807 228.595426263 -5.59380782405 213.679882596 -3.89696166204 c 0
 221.981774786 19.3199414616 l 1
EndSplineSet
Fore
SplineSet
391 684 m 1xa8
 414 682 440 681 467 681 c 3
 513 681 561 684 604 691 c 1
 609 668 l 1
 557 657 552 663 534 645 c 0
 480 593.174496644 277 448.661073826 151 348 c 1
 310 236.603174603 563 58.3682539683 604 29 c 0
 614 22 620 23 675 19 c 1
 673 -5 l 1
 645 -3 606 0 578 0 c 3
 545 0 503 -3 471 -8 c 1
 467 16 l 1
 558 29 577 19 558 32 c 0
 523 56.32 265 236.693333333 124 336 c 1x68
 123 232.313333333 122 101.446666667 123 34 c 0
 123 18 128 32 276 12 c 1
 272 -12 l 1
 226 -5 178 0 126 0 c 3
 91 0 55 -2 15 -7 c 1
 12 17 l 1
 97 26 99 20 99 33 c 0xb0
 99 140.644578313 100 254.325301205 100 367 c 3
 100 456.664179104 100 551.309701493 100 634 c 0
 100 666 92 651 18 663 c 1
 21 687 l 1
 57 683 94 681 132 681 c 3
 179 681 225 684 269 688 c 1
 272 664 l 1
 132 645 124 669 124 635 c 0
 124 542.335740072 124 454.653429603 124 359 c 1
 247 453.664310954 374 545.339222615 492 641 c 0
 509 655 504 657 497 657 c 0
 495 657 459 655 390 659 c 1
 391 684 l 1xa8
EndSplineSet
Position2: "cpsp-1" dx=0 dy=0 dh=50 dv=100
Substitution2: "c2pc-1" k.pcap
Substitution2: "c2sc-1" k.smcp
EndChar

StartChar: L
Encoding: 76 76 37
Width: 614
VWidth: 1159
Flags: HW
HStem: -7 44<23 88.0947> 2 50<189.846 505.493> 652 41<197.258 286.683>
VStem: 94 88<57.6719 639.659> 562 35<122.552 159>
AnchorPoint: "Bottom" 300 -15 basechar 0
AnchorPoint: "TopRight" 348 581 basechar 0
AnchorPoint: "Top" 157 699 basechar 0
LayerCount: 2
Back
SplineSet
231.568149226 1.754509579 m 0
 188.685210005 1.34671880283 155.796815647 0.470178839355 130.499443357 -0.573697122559 c 0
 105.608811791 -1.60078925173 87.8625739269 -2.80714884165 75.3016185876 -3.87576254213 c 0
 71.5542742237 -4.37098930449 67.2675924589 -4.86044869135 63.021904863 -5.28397965477 c 0
 59.2481646194 -5.66043124357 55.1093700133 -6.03358413301 50.6777372147 -6.40871404589 c 0
 47.7159810559 -6.74249747543 45.4790988871 -7 43 -7 c 1
 42.0386054024 16.9614263542 l 1
 43.7897426539 17.1021732722 46.2797210773 17.3069314935 48.3063734675 17.4759671276 c 0
 50.7439458452 17.7506761935 53.6202057205 18.0999751855 57.9162123868 18.5622450281 c 0
 61.7995669963 18.980111634 66.7374707157 19.4725082295 72.6448696108 19.9844886981 c 0
 93.6185570632 22.8609141193 92.2128451305 25.1153855578 92.8350683158 27.6382410424 c 0
 93.4502266891 30.1324516614 93.7932083725 35.8292127263 94 43.1690106001 c 1
 94 641 l 0
 94 651.933608599 93.5457559632 658.845656117 93.1556509111 660.475345119 c 1
 91.6184553553 660.997768276 88.9327909353 661.550167228 84.4753076113 662.227274398 c 0
 66.7612866591 664.493175867 49.0748595399 667.848944941 32.7456950778 672.449696996 c 1
 39.0964938357 695.593607115 l 1
 62.4656463226 689.352026224 77.0864473249 687.624984698 87.7322546058 686.007849664 c 0
 98.2504091391 684.688829422 108.804235814 683.786804959 119.590389452 683.210407728 c 0
 130.713651482 682.615995888 141.921243212 682.388987504 153.073294369 682.469610587 c 0
 160.193755353 682.659621177 168.37380584 682.850363998 177.406618075 683.232988201 c 0
 186.772443846 683.629718646 197.505140513 684.254051324 209.578707603 685.311096678 c 0
 217.928210176 686.056903249 225.265558447 686.852976152 233.214115965 687.81901909 c 0
 245.442641997 689.305236078 257.122279893 691.015569118 268.023336638 692.836080515 c 1025
271.976309547 669.163860402 m 0
 259.455557223 667.073239372 247.863396266 665.415130257 237.134629671 664.094094421 c 0
 227.938627951 662.961788325 219.521904789 662.089822108 211.555588581 661.392368118 c 0
 201.961433452 660.522976135 192.445112827 659.840177005 182.471264246 659.332451473 c 0
 173.185253591 658.859740798 163.216938284 658.558092848 153.45806443 658.47125422 c 0
 129.355891048 657.819845206 123.379744764 655.541562488 122.126330212 653.932625747 c 0
 119.918658142 651.098763078 118 637.014357847 118 602 c 0
 118 81 l 0
 118 68.0420925806 118.041743434 57.5535715754 118.4535323 49.353804138 c 0
 119.54606706 27.5986483618 122.450596034 26.771953577 126.620392006 25.5356510806 c 0
 132.099053403 23.9112831723 144.92838887 23.9243730209 165.379111782 24.9839266445 c 0
 175.842958438 25.526059394 195.737890691 25.7310444024 220.482003469 25.7622218086 c 0
 232.458318659 25.7773118806 245.528906287 25.7484466329 259.091117282 25.6882105607 c 1024
262.860223331 691.990258888 m 2
 264.562514617 692.263725814 266.283598593 692.545592149 268.023690453 692.836139598 c 2
 271.976663362 669.163919485 l 1
 267.761982276 668.460054242 263.436501688 667.772491451 259.011505791 667.107209785 c 0
 258.022619729 666.958534445 262.860223331 691.990258888 262.860223331 691.990258888 c 2
233.432869724 25.7728836752 m 1
 249.538440101 25.9192290222 267.019633137 26 286 26 c 0
 331.569646847 26 374.281233751 25.2883294365 407.294749631 24.5578596204 c 0
 442.158657018 23.7864473264 466.178130912 23 471.190860796 23 c 1
 481.382497044 22.6757206649 489.318344706 22.1202843895 496.431022739 21.3426826969 c 0
 517.534593615 21.4224237639 525.059128447 24.0371441355 532.767180141 34.5904914714 c 0
 543.095847977 48.7318106426 552.984988668 81.6054663336 570.440749801 144.222380305 c 1
 593.590522582 137.891980331 l 1
 575.021579812 68.6441076003 562.386564647 35.2380836316 557.448554173 15.5743976011 c 0
 555.451476585 7.62182097352 554.772766516 2.28891525692 554.987711875 -2.45707826654 c 0
 555.742890934 -19.1314319001 l 1
 539.696421318 -14.5363065099 l 0
 521.416118791 -9.30149260439 515.469764228 -5.14012862351 495.050682012 -2.65510210719 c 0
 483.634419671 -2.59675409257 470.501898524 -1.7742285067 454.816217965 -1.04937028659 c 0
 445.215977464 -0.605729144182 434.612277461 -0.193700137792 422.801555521 0.00164095432921 c 0
 413.444312245 0.174313836221 385.424709607 0.573529563948 350.927539651 0.948825398921 c 0
 323.573996324 1.24640548725 292.161543867 1.52874099421 262.801840073 1.67073281735 c 0
 250.036986654 1.73246725519 237.660293754 1.76767089963 226.177002135 1.76612323794 c 0
 225.177002144 1.76598846285 233.432869724 25.7728836752 233.432869724 25.7728836752 c 1
EndSplineSet
Fore
SplineSet
286 692 m 1xb8
 290 668 l 1
 148 648 120 672 119 632 c 0
 118 578.111801242 118 150 118 150 c 0
 118 18.936 119 21.984 135 23 c 0
 190 25 452 23 499 19 c 0
 532 15.958041958 544 34.2097902098 573 164 c 1
 597 159 l 1
 584 93 546 0 556 -19 c 1
 538 -15.4705882353 518 -5.76470588235 486 -4 c 0
 475 -3 386 0 284 0 c 3x78
 69 0 34 -9 23 -9 c 1
 20 14 l 1
 99 20 94 14 94 53 c 0
 94 57.0326530612 94 165.914285714 94 300 c 3
 94 468.50728863 94 630.034985423 94 642 c 0
 94 665 99 655 12 671 c 1
 16 695 l 1
 56 685 102 681 146 681 c 3
 196 681 246 686 286 692 c 1xb8
EndSplineSet
Position2: "cpsp-1" dx=0 dy=0 dh=50 dv=100
Substitution2: "c2pc-1" l.pcap
Substitution2: "c2sc-1" l.smcp
EndChar

StartChar: M
Encoding: 77 77 38
Width: 958
VWidth: 1159
Flags: HW
HStem: -10 41<14 95.2222 198.099 275.854> -2 38<672.079 742.114> 9 21G<452.5 500> 651 40<857.759 941.7> 655 44<27.7273 115.712>
VStem: 149 30<117 529> 453 42<9 79.3822> 773 80<61.8765 363.678>
AnchorPoint: "Bottom" 482 -15 basechar 0
AnchorPoint: "Top" 485 699 basechar 0
LayerCount: 2
Back
SplineSet
425.173387952 185.309021092 m 0
 434.589446346 167.644787515 l 0
 437.433647022 162.309155238 440.3285749 156.724487843 443.251012725 150.957788127 c 0
 449.403252344 138.817882819 455.594627668 126.047690675 461.757842155 112.940117716 c 0
 471.175830079 93.706109428 479.443329667 76.1679096132 486.465192703 60.3579092136 c 0
 488.962647778 54.7347910302 491.474445291 48.9133707645 493.513511493 44.0579587081 c 1
 516.584601473 88.6850223111 l 2
 529.083554776 113.181737331 541.098713953 136.855309643 552.349500404 158.528730266 c 0
 555.412755105 164.42975842 558.471222824 170.319045449 561.524889321 176.196864291 c 0
 577.596818392 207.132753194 592.683624703 236.115051569 608.487487259 266.455380489 c 2
 818.088221875 671.892025358 l 1
 835.922983943 707.011993797 l 1
 836.411791706 685.282821113 l 1
 842.485481108 687.082810767 843.238771974 687 847 687 c 0
 876.642859817 687 907.136418663 686.811165897 935.661905145 690.658436478 c 0
 937.088370273 690.835054144 935.955857679 690.701173433 937.420931123 690.895652209 c 1
 940.60393382 667.107674899 l 1
 938.929192584 666.881800305 938.267307509 666.790243009 936.580261485 666.588880768 c 0
 878.569738087 659.406312461 852.083011245 664.266346398 842.588806115 661.536008959 c 0
 840.43305028 660.916058075 837.629329905 662.115764035 837.555612084 634.749695616 c 0
 838.982421872 572.909600111 840.563429983 509.820434479 842.202136193 446.188270617 c 0
 845.086943151 334.169100822 848.173562452 219.47086819 850.996459286 103.291486893 c 0
 851.215018906 94.2964286341 851.411479782 86.1461800367 851.482217669 78.9160310958 c 0
 853.445344008 17.2522679945 844.449747407 45.3657384267 945.400201664 24.7575095991 c 1
 940.822383124 1.19923795928 l 1
 893.701489508 9.89454532943 856.761661162 13.8161284266 801.127837459 10.975793644 c 0
 794.495037823 10.2948419877 786.932670264 9.7380420997 778.621873581 9.14694963757 c 0
 770.312942874 8.55598989 760.663547208 7.87803511435 749.952184569 6.97035351074 c 0
 739.557149033 5.92494055979 728.727838353 4.72015674362 717.018992464 3.31247896948 c 0
 704.409472858 1.79651909925 690.982637691 0.0656419818812 676.619121497 -1.89026684222 c 1
 673.139181508 21.8548451926 l 1
 702.75461872 26.5034890438 727.526956387 29.1365033643 747.729168485 30.8678510546 c 0
 757.486465038 31.8491275637 766.73989598 32.6795243998 775.574246311 33.3654445697 c 0
 783.672372632 33.9942025398 791.683456062 34.5152683063 799.255803638 34.9113346141 c 0
 816.458143139 36.7657831605 821.383910332 39.6807196702 823.24539325 42.3353971308 c 0
 825.692239271 45.8248661563 827.675418215 55.9392376777 827.485687757 78.4366518384 c 0
 827.3150815 83.9723214939 827.165825198 90.104764246 827.003621846 96.7051929754 c 0
 824.920400939 181.476259116 822.664449471 267.948948278 820.398611947 355.26076966 c 0
 818.228268809 438.892808758 816.048855974 523.294755069 814.003520904 607.709329585 c 0
 813.983372741 608.540879662 813.953119505 609.800325399 813.928605301 610.827201275 c 1
 788.718209033 561.482373733 763.033461485 511.682358723 737.070463752 461.591538508 c 0
 701.845803166 393.632046362 666.468610924 325.819211341 629.789459408 255.399728288 c 2
 537.930900937 77.7151136937 l 2
 525.72031062 53.7805834033 513.541143762 30.0151868615 502.631404423 9.43429655598 c 2
 489.962033851 -15.0724262225 l 1
 480.80000781 10.680295622 l 1
 470.344584794 35.7634766903 455.74147645 69.3326462747 440.116852657 102.562204775 c 0
 434.640411295 113.737053482 428.678013092 125.690204478 422.599255164 137.694871458 c 0
 416.652624127 149.438606952 410.196482865 162.022865006 403.552068595 174.849424766 c 2
 403.52369234 174.902657741 l 1024
403.52369234 174.902657741 m 1
 293.630525211 381.058831734 l 2
 266.718156192 430.912797937 238.671544581 482.809052638 211.010118368 534.569684632 c 0
 199.48449246 556.136673858 187.758142667 578.18525995 176.265424323 599.94281795 c 1
 175.829631299 592.764638021 175.329004611 585.756080596 174.982472283 579.351649796 c 0
 172.449024284 532.529777519 l 2
 167.298512825 431.325117444 161.57821269 327.129921777 155.929480153 221.123321014 c 0
 153.58183158 177.066314699 151.264901623 133.050780481 148.977740528 88.2578941287 c 1
 144.205859518 22.7712757334 140.635337621 27.4219726303 178.814036006 23.4993421693 c 0
 213.785904096 22.042986156 246.860585969 18.47245928 275.886939405 13.8507155767 c 1
 272.400596196 -9.89293519165 l 1
 228.946186329 -4.04903313467 198.713494235 -2.5878964124 177.121438252 -0.451240380003 c 0
 162.838440851 0.126113857657 148.154813447 0.346492343775 133.517068116 0.123490253612 c 0
 118.198511048 -0.109883819196 103.154123216 -0.785492533392 87.7203659786 -2.05769650721 c 0
 73.0870267957 -3.48576577458 54.2581007762 -5.30536322975 29.1172006489 -9.81175098842 c 1
 24.7845016677 13.7937087949 l 1
 44.739380697 17.542317649 65.2053587134 20.1677907128 85.5712966496 21.8465541386 c 0
 126.536852569 25.8487329392 120.454821263 15.8042568474 124.017527717 81.6483502037 c 0
 148.48200024 533.788046092 l 2
 150.08742693 565.333779694 151.649727322 596.846688956 153.130075212 627.884671195 c 0
 152.969994993 635.139727832 152.304216607 642.405219422 151.1785066 647.766964857 c 0
 145.573009844 659.02458309 145.901153525 661.70780749 135.826871522 663.928004724 c 1
 101.322253351 668.257824512 70.3418510451 671.013537731 40.3745094967 675.110602176 c 1
 43.3726543849 698.921233994 l 1
 95.372097932 692.933828308 119.820010558 690.53974361 136.979409691 687.971610837 c 0
 138.201473573 687.817313584 140.086596003 687.520483524 141.338564428 687.286017468 c 0
 142.271049331 687.131976085 143.198781623 686.973820422 144.08479576 686.817513556 c 0
 148.206605953 686.090361234 152.187987782 684.646782677 155.702754074 682.60615761 c 2
 156.056986699 690.163045147 l 1
 163.371717363 676.440837235 l 2
 168.186084569 671.050994033 171.490088667 664.121642475 173.454738267 657.52540267 c 2
 314.779834598 392.403904127 l 2
 334.956883907 355.026180693 354.631278856 318.544129162 373.085869168 284.017458411 c 0
 391.540594381 249.490535275 408.919124474 216.653095949 424.719082753 186.165372783 c 0
 403.52369234 174.902657741 l 1
EndSplineSet
Fore
SplineSet
946 -11 m 1x17
 906 -4 861 0 814 0 c 3
 789 0 717 -5 665 -14 c 1
 661 10 l 1x57
 820 34 820 8 819 58 c 0
 814.692307692 246.066666667 809.307692308 426.044444444 805 604 c 1
 725 449 644 294 562 136 c 0
 542 98 501 23 497 3 c 1
 469 3 l 1x27
 468 23 422 116 401 156 c 2
 167 594 l 1
 158 420.902173913 149 236.923913043 137 48 c 0
 135 16 140 31 269 14 c 1
 266 -10 l 1
 226 -4 179 0 130 0 c 3
 92 0 52 -3 14 -10 c 1
 12 14 l 1
 113 32 111 12 113 48 c 2
 142 583 l 2
 144 613 149 655 125 658 c 0
 109 660 86 663 27 669 c 1
 29 693 l 1x8f
 57 690 109 684 135 681 c 0
 148 679 158 667 164 655 c 0
 272 444 389 242 485 38 c 1
 811 669 l 0
 816 678 825 681 831 681 c 0
 864 680 906 680 941 685 c 1
 944 662 l 1
 831 646 828 670 829 639 c 0
 833.285714286 441.979274611 839.714285714 243.948186528 844 54 c 0
 845 12 846 30 947 13 c 1
 946 -11 l 1x17
EndSplineSet
Position2: "cpsp-1" dx=0 dy=0 dh=50 dv=100
Substitution2: "c2pc-1" m.pcap
Substitution2: "c2sc-1" m.smcp
EndChar

StartChar: N
Encoding: 78 78 39
Width: 836
VWidth: 1159
Flags: HW
HStem: -10 44<23.3182 87.7887 186.598 270.067> 655 39<771.248 832> 663 38<600.263 678.466>
VStem: 97 55<66.539 312.678> 107 54<242 550> 720 37<-2.08108 25.5054>
AnchorPoint: "Bottom" 431 -15 basechar 0
AnchorPoint: "Top" 427 699 basechar 0
LayerCount: 2
Back
SplineSet
14 692 m 5
 39.1136363636 688.5 72.4697842082 689.178658007 99 685 c 4
 113.957169601 683.86726988 114.840304496 680.862395986 122 674 c 4
 324 475.854883857 524 272.07759233 721 67 c 5
 726.566407265 222.607347394 728.514462548 378.215731675 728.514462548 539.936180068 c 7
 728.514462548 571.722180108 728.298416354 603.876329399 728 636 c 4
 726.830357143 677.355932203 726 656 597 676 c 5
 601 701 l 5
 656.519587699 693.825498252 703.298840942 691.263713704 747.271642729 691.263713704 c 7
 776.164975797 691.263713704 803.846638333 692.369750597 832 694 c 5
 837 668 l 5
 763 662 755.657992816 665.420916604 755 635 c 4
 746.666666667 469.784200227 745 293.889254452 745 117 c 4
 745 89.988372093 748.5 43.011627907 752 16 c 5
 726 4 l 5
 700.197901696 55.7482398122 666.377990692 93.1294779405 631 129 c 4
 464.526205451 297.853624133 297.907756813 467.712293715 131 631 c 5
 131 62 l 6
 137.419497827 -2.51436805873 132 38 273 14 c 5
 269 -11 l 5
 230.475274138 -2.82996917899 193.353344449 0.0350683801344 158.148197194 0.0350683801344 c 7
 109.280738727 0.0350683801344 64.1064561839 -5.48516570496 24 -10 c 5
 21 15 l 5
 108 25 110.518976498 18.0923792754 107 50 c 4
 106.18848307 173.07819151 106.63207391 301.186856784 106.63207391 430.331351559 c 7
 106.63207391 501.110013848 108.658028174 572.405052078 107 643 c 4
 106.972035752 641.555342861 102 672 12 669 c 5
 14 692 l 5
EndSplineSet
Fore
SplineSet
14 688 m 1xcc
 39 684 72.9809463961 682.734603574 99 681 c 0
 114 680 115.131626385 677.12919658 122 670 c 0
 324 461.31661442 524 248.65830721 721 36 c 1
 722 149 723 261 723 378 c 3
 723 459.705426357 729.900691258 542.369584647 728 626 c 0
 727 670 726 646 597 666 c 1
 601 691 l 1xac
 657 684 703 681 747 681 c 3
 776 681 804 682 832 684 c 1
 837 658 l 1
 763 652 756.396135707 660.984175911 755 625 c 0
 748.331714457 453.130776447 745 269.593806922 745 86 c 0
 745 64 745 25 745 3 c 1
 724 -5 l 1
 698 25 662.224288125 64.2058609952 631 98 c 0
 465 276.649155722 298 455.298311445 131 627 c 1xcc
 131 62 l 2
 131 -2 132 38 273 14 c 1
 269 -11 l 1
 230 -3 193 0 158 0 c 3
 109 0 64 -5 24 -10 c 1
 21 15 l 1
 108 25 107.260154004 18.0010575191 107 50 c 0xd4
 106 173 107 301 107 430 c 3
 107 499.666666667 107 569.333333333 107 639 c 0
 107 661 108 654 12 665 c 1
 14 688 l 1xcc
EndSplineSet
Position2: "cpsp-1" dx=0 dy=0 dh=50 dv=100
Substitution2: "c2pc-1" n.pcap
Substitution2: "c2sc-1" n.smcp
EndChar

StartChar: O
Encoding: 79 79 40
Width: 845
VWidth: 1159
Flags: HW
HStem: -7 50<342.523 545.448> 657 49<304.396 495.712>
VStem: 43 93<267.4 455.825> 701 101<222.803 442.21>
AnchorPoint: "Horn" 714 573 basechar 0
AnchorPoint: "Middle" 424 365 basechar 0
AnchorPoint: "Bottom" 422 -15 basechar 0
AnchorPoint: "Ogonek" 486 11 basechar 0
AnchorPoint: "Top" 426 699 basechar 0
LayerCount: 2
Back
SplineSet
391 660 m 7
 250 660 136 543.419836023 136 382 c 7
 136 202.520642412 279 37 449 37 c 7
 602 37 701 170.530119977 701 321 c 7
 701 500.470296712 561 660 391 660 c 7
428 709 m 7
 635 709 802 543.449896694 802 341 c 7
 802 145.552293527 644 -13 430 -13 c 7
 216 -13 43 144.55469308 43 341 c 7
 43 537.466253444 218 709 428 709 c 7
EndSplineSet
Fore
SplineSet
428 685 m 3
 228 685 67 521.307692308 67 343 c 3
 67 170.596439169 218 11 430 11 c 3
 639 11 778 166.65578635 778 343 c 3
 778 533.974358974 620 685 428 685 c 3
428 709 m 3
 635 709 802 544.056 802 343 c 3
 802 146.756232687 644 -13 430 -13 c 3
 216 -13 43 145.770083102 43 343 c 3
 43 538.2 218 709 428 709 c 3
EndSplineSet
Position2: "cpsp-1" dx=0 dy=0 dh=50 dv=100
Substitution2: "c2pc-1" o.pcap
Substitution2: "c2sc-1" o.smcp
EndChar

StartChar: P
Encoding: 80 80 41
Width: 596
VWidth: 1159
Flags: HW
HStem: -11 38<33.4211 85.9927> 242 36<198.515 361.94> 645 42<14.5 99.2917> 655 39<195.531 363.467>
VStem: 103 90<358.521 636.758> 114 81<48.2578 250 282.973 479.296> 475 89<377.611 543.933>
AnchorPoint: "Bottom" 162 -15 basechar 0
AnchorPoint: "Top" 294 699 basechar 0
LayerCount: 2
Back
SplineSet
257.999999999 236 m 0
 206.720321838 236 163.454180956 243.280659516 120.519051373 265.324832453 c 0
 114.230465087 268.553579751 l 1
 114.00604855 275.619042497 l 0
 109.499712165 417.495182049 109.556923377 558.91727732 105.019064887 639.323838913 c 0
 102.871511214 678.003700332 199.968883701 689.588628372 264.973831572 693.147886996 c 0
 275.153919796 693.705284055 285.232402821 694 295 694 c 0
 361.287300781 694 412.157034176 674.310253992 450.215605334 651.264806396 c 0
 504.766371113 618.232909089 564 552.10880983 564 464 c 0
 564 306.916267828 410.602313799 236 257.999999999 236 c 0
257.999999999 260 m 0
 406.431179021 260 540 327.420810823 540 464 c 0
 540 540.684293618 487.664270702 600.531640652 437.784394666 630.735193604 c 0
 402.650888327 652.009438921 356.426984934 670 295 670 c 0
 225.865737954 670 141.059307982 651.709212346 129.057890153 639.302226391 c 1
 133.559462227 557.202400136 133.554082577 421.539015244 137.769681819 283.561126141 c 1
 175.413430169 265.719588859 211.465042431 260 257.999999999 260 c 0
138.99593194 65.4829241334 m 2
 138.998608104 63.9158446186 139 62.420560712 139 61 c 0
 139 39.7310988556 140.244913492 29.7480729764 140.910899391 28.3613353917 c 1
 142.317183804 27.6598806961 150.372130737 26.5819810327 164.97067991 25.0018037654 c 0
 169.12632505 24.5920268533 173.618368544 24.0610443111 177.608685644 23.494318725 c 0
 181.931573505 22.8803597097 186.16100789 22.1900345286 190.657966236 21.3625617888 c 0
 200.648675792 19.5926532118 211.839099502 17.175443595 225.129854068 13.5846455928 c 1
 218.979732884 -9.61369822862 l 1
 206.842174648 -6.45719568392 196.994452611 -4.17305087943 186.704824665 -2.31081687875 c 0
 181.625881514 -1.4110544551 176.793934422 -0.6650649149 172.693193244 -0.108836377511 c 0
 169.275701474 0.354715543102 165.762061332 0.770268404057 162.656480586 1.11223301945 c 0
 131.134803901 4.1009177861 104.195138889 0.387234287863 66.3240463365 -10.5304256622 c 1
 59.5020374769 12.4788613628 l 1
 127.663748188 33.2498335035 114.998374824 4.78403659572 114.999936545 64.588807393 c 0
 138.99593194 65.4829241334 l 2
115.001508057 57.5210022974 m 2
 115.000322676 58.6515983071 115 59.8108527904 115 61 c 0
 115 86.1381072448 114.557874877 135.65719805 114.261502255 190.784232587 c 0
 114.112250302 218.545965346 114 247.741101536 114 276 c 0
 114 279.416292814 l 2
 112.834701965 399.496615315 110.469847367 528.843504189 106.009508719 638.522382129 c 0
 105.349110568 655.101532013 104.971906811 654.389215629 102.142409812 655.659077707 c 0
 99.254463624 656.955171447 92.1110284096 658.508241131 80.057280245 659.376971595 c 0
 73.9017496491 659.471379569 67.7471800196 659.581714535 62.0866143868 659.697342246 c 0
 44.1061146132 660.064627807 27.8230680743 660.535737154 13.602893199 661.006572375 c 1
 14.1157172756 684.99944205 l 1
 44.0764511747 684.710514074 65.4008509434 684.435926983 81.0693235407 683.364465217 c 0
 88.433484366 683.25383368 95.9443761288 683.165350356 103.758742611 683.102401497 c 0
 111.945220035 683.036455088 120.367114706 683 129 683 c 0
 192.44517611 683 228.21275357 694 295 694 c 0
 458.448737288 694 564 576.176931337 564 464 c 0
 564 340.858367467 458.06371843 236 258 236 c 0
 213.675579372 236 174.033218502 242.010280019 138.205593229 257.0085859 c 1
 138.473169461 225.577969052 138.665462596 194.595381957 138.790209933 165.566052343 c 0
 138.942374261 130.156651725 139.002532733 96.6558216094 138.999999959 65.999008596 c 0
 138.999769545 63.151653135 139.000468476 60.4591440114 138.996679108 57.9083236085 c 0
 138.995193562 56.9083247119 115.001508057 57.5210022974 115.001508057 57.5210022974 c 2
127.957802436 659 m 1
 129.650128931 652.502458289 129.719477266 646.281364947 129.990491281 639.477617871 c 0
 134.414222079 530.69892001 136.78002546 402.592612953 137.961948358 283.417604844 c 1
 172.392193118 267.049067806 211.848177812 260 258 260 c 0
 449.93628157 260 540 357.520010911 540 464 c 0
 540 561.179896856 446.83007312 670 295 670 c 0
 231.555202231 670 195.162150962 659 127.957802436 659 c 1
EndSplineSet
Fore
SplineSet
288 266 m 3xd6
 421 266 540 330 540 467 c 3
 540 537.256544503 484 624.335078534 377 656 c 0
 290 682 210 657 134 657 c 3
 132 657 130 656 130 646 c 0xda
 130 568.43575419 134 428.223463687 138 290 c 1
 184 272 231 266 288 266 c 3xd6
15 685 m 1xea
 41 683 75 681 114 681 c 3
 185 681 224 692 295 692 c 3
 460 692 564 572.066079295 564 467 c 3
 564 330 453 242 288 242 c 3
 230 242 188 248 138 264 c 1
 138 176.212669683 139 106.588235294 139 41 c 0
 139 17.724137931 140 26.9655172414 225 16 c 1
 219 -8 l 1
 187 -2 165 0 141 0 c 3
 119 0 97 -2.46153846154 66 -8 c 1
 60 15 l 1
 115 27.2222222222 115 14.4166666667 115 46 c 0
 115 101.591397849 114 166.279569892 114 234 c 3xd6
 114 368.347826087 105 532.550724638 105 646 c 0
 105 658 105 657 13 659 c 1
 15 685 l 1xea
EndSplineSet
Position2: "cpsp-1" dx=0 dy=0 dh=50 dv=100
Substitution2: "c2pc-1" p.pcap
Substitution2: "c2sc-1" p.smcp
EndChar

StartChar: Q
Encoding: 81 81 42
Width: 785
VWidth: 1361
Flags: HW
HStem: -157 43<708.054 873.117> -5 51<313.167 416.904> 674 32<293.987 459.678>
VStem: 43 98<254.599 491.499> 639 102<242.788 484.609>
AnchorPoint: "Middle" 393 365 basechar 0
AnchorPoint: "Top" 395 699 basechar 0
AnchorPoint: "Bottom" 343 -15 basechar 0
LayerCount: 2
Back
SplineSet
378 674 m 7
 240 674 141 558.260742188 141 390 c 7
 141 213.029296875 242 46 404 46 c 7
 543 46 639 170.169921875 639 345 c 7
 639 552.943359375 518 674 378 674 c 7
505 21 m 5
 635 -79 745 -114 819 -114 c 7
 839 -114 857 -112 872 -107 c 5
 877 -137 l 5
 833 -152 791 -157 749 -157 c 7
 626 -157 507 -100 393 -5 c 5
 184 -5 43 164.081054688 43 363 c 7
 43 577.008789062 198 706 389 706 c 7
 581 706 741 560.415039062 741 365 c 7
 741 209.901367188 643 74.6875 505 21 c 5
EndSplineSet
Fore
SplineSet
387 682 m 3
 200 682 65 550.900900901 65 361 c 3
 65 185.65625 190 20 391 20 c 3
 569 20 715 162.43220339 715 363 c 3
 715 548.039274924 563 682 387 682 c 3
440 -1 m 1
 567 -103.705882353 675 -127 747 -127 c 3
 794 -127 837 -121 872 -112 c 1
 880 -135 l 1
 857 -145 811 -151 747 -151 c 3
 629 -151 515 -96.4 405 -4 c 1
 188 -16.6196808511 41 163.938829787 41 361 c 3
 41 576.504201681 196 706 387 706 c 3
 579 706 739 559.138028169 739 363 c 3
 739 198.957333333 636 28.12 440 -1 c 1
EndSplineSet
Position2: "cpsp-1" dx=0 dy=0 dh=50 dv=100
Substitution2: "salt-1" Q.alt
Substitution2: "c2pc-1" q.pcap
Substitution2: "c2sc-1" q.smcp
EndChar

StartChar: R
Encoding: 82 82 43
Width: 734
VWidth: 1159
Flags: HMW
HStem: -10 44<264 272> 323 44<178 306.579>
VStem: 88 90<71.4111 283.488 429.868 640.189> 456 87<441.267 575.707>
AnchorPoint: "Bottom" 357 -15 basechar 0
AnchorPoint: "Top" 284 699 basechar 0
LayerCount: 2
Back
SplineSet
83.6852034835 691.147441356 m 2
 90.8861008736 691.05328204 98.5277223807 691 107 691 c 0
 179.936028668 691 211.874673221 707 300 707 c 0
 424.680267629 707 533 629.984430345 533 528 c 0
 533 443.810290992 476.782918857 376.992482142 364.843063643 354.904050931 c 1
 370.263825608 343.974366422 375.463555853 333.699143807 380.827924463 323.323312969 c 0
 394.972425257 295.964837404 409.396482195 269.679602252 423.916354349 245.00993668 c 0
 452.705460798 196.969207845 484.656225045 151.02213408 518.806321765 112.071833338 c 0
 552.964521661 73.112290422 589.701653393 40.7937380752 627.736043017 19.4441987435 c 0
 661.832541468 1.3894504204 697.485986362 -8.4530762073 735.174525738 -9.00126920184 c 1
 735.400016977 -32.9933309142 l 1
 693.760910502 -34.382131876 653.703501193 -22.5127628043 616.221809684 -1.61445949812 c 0
 576.266322987 19.6801468264 539.132941684 51.0574415934 503.891924031 90.7195005744 c 0
 468.379921856 130.686539512 436.682921343 176.110658883 403.271055845 232.771506916 c 0
 389.228178748 256.249122591 375.866737894 280.298466333 363.430069354 304.117389912 c 0
 355.285900621 319.715243314 346.929232141 336.457225679 339.84811727 351.146708848 c 1
 316.649160674 348.914981032 298.314264377 349 281 349 c 0
 217.432132191 349 179.354734349 350.748961251 119.515647911 351.797862891 c 1
 119.511054819 327.405720095 119.49390947 302.58453682 119.464551175 277.102751074 c 0
 119.424935142 242.717672946 119.364395677 207.172956068 119.28064892 167.217611725 c 0
 119.288682646 150.520118664 119.279214986 134.680047016 119.242844687 117.905388792 c 0
 119.207160644 101.447244157 119.14962745 85.5955403119 119.051862717 68.5753466722 c 2
 118.999961229 47.969496015 l 0
 118.999961229 46.6469343045 119.000867685 48.733577228 118.999562161 45.5545992993 c 0
 119.163751529 34.5083282255 120.638468506 30.1673950948 120.833720625 29.8836393579 c 0
 120.833720625 29.8836393579 120.651450851 28.8824652266 128.916867476 27.9171497429 c 0
 138.484551631 28.0021575596 148.242366913 27.866579354 157.593852815 27.5098542794 c 0
 174.292957768 26.8728443406 190.966295728 25.5418942438 207.619062615 23.5446909574 c 0
 227.26938697 21.1879839522 246.890961111 17.9036168023 266.49430507 13.737906211 c 1
 261.893116695 -9.81359567362 l 1
 241.828318859 -6.23516039067 224.390315735 -3.74842194163 209.224145933 -1.98131501401 c 0
 168.149808303 2.80451736982 144.09219005 2.2577188795 127.745471635 3.9030617655 c 0
 111.71155184 3.67901054886 95.3545312923 2.79612118689 79.5728372887 1.24367142883 c 0
 61.5366145395 -0.53055696749 43.4602492692 -3.19033977049 25.3254370186 -6.77252490644 c 1
 20.0895724996 16.6417100017 l 1
 53.8330025728 25.0775675201 75.1892535925 26.3764990535 86.9932350137 27.5453067164 c 0
 90.4746352651 27.8900283104 93.1083652953 28.288095292 94.3441711059 28.5627264526 c 1
 94.8066157176 31.1291552695 94.9912974215 36.7511259831 94.9994299745 45.3496549384 c 0
 94.9446312155 49.7484988951 94.9680912115 54.8215761277 95.0002246098 60.073420598 c 0
 95.0190981081 63.0424803996 95.0353747216 65.7382997523 95.052036706 68.6777465736 c 0
 95.0957052951 86.1871045235 95.1355874542 102.656046177 95.1732257222 118.814610494 c 0
 95.212656289 135.742630448 95.2479625715 151.601857701 95.2807057166 167.270314839 c 0
 95.2671092645 204.701758111 95.1650834412 240.4096787 95.0876015258 281.550574473 c 0
 95.0387685842 307.479605169 95 334.721113153 95 364 c 0
 95.2578678895 376.389452506 l 2
 95.2431039007 460.938285 95.3334520497 545.155460674 94.999338806 663.216657454 c 1
 95.0574343345 664.708070692 95.0810140391 665.429122012 95.0938513173 665.954624649 c 1
 93.2182927778 666.389085803 90.7763334319 666.751064869 87.2426885561 667.103083873 c 0
 80.5236257757 667.17897673 73.9171397846 667.290051795 67.9994418988 667.418840857 c 0
 50.2395939018 667.805355042 33.6957458375 668.406041276 11.6740493191 669.004427644 c 1
 12.1461757552 692.999109661 l 1
 50.8281567496 692.527877382 73.7673494255 692.378641385 88.4262246209 691.092922746 c 0
 89.422400218 691.005548953 83.6852034835 691.147441356 83.6852034835 691.147441356 c 2
119.102517272 667.137864297 m 0
 119.111179335 665.656118398 119.035239466 663.671026913 119.000661194 662.783342546 c 1
 119.331499678 545.879304477 119.501133956 460.223242247 119.515875775 375.801368762 c 1
 180.124390693 374.752570687 217.541819387 373 281 373 c 0
 300.24598466 373 321.471391217 372.993456006 345.381429211 375.891642429 c 0
 460.588047484 393.295597899 509 453.74791083 509 528 c 0
 509 610.972558903 417.237427843 683 300 683 c 0
 220.496967244 683 188.076084586 668.809829546 119.102517272 667.137864297 c 0
EndSplineSet
Fore
SplineSet
120 372 m 5
 184 371 217 369 281 369 c 7
 507 369 509 495.487012987 509 520 c 7
 509 601.403846154 419 673 300 673 c 7
 230 673 119 656 119 655 c 4
 119 565.889273356 120 461.110726644 120 372 c 5
12 683 m 5
 64 682 87 681 104 681 c 4
 156 681 205 697 300 697 c 4
 428 697 533 619.316666667 533 520 c 4
 533 436.48255814 473 370.651162791 365 351 c 5
 478 129.461538462 593 -7.02197802198 737 -9 c 5
 733 -33 l 5
 580 -37.9479166667 443 133.25 340 347 c 5
 318 345 299 345 282 345 c 4
 219 345 183 347 120 348 c 5
 119 226 119 134 119 35 c 4
 119 10 120 39 268 9 c 5
 264 -14 l 5
 221 -5 158 0 135 0 c 7
 98 0 60 -4 23 -11 c 5
 18 12 l 5
 94 30 95 16 95 32 c 5
 95 171 96 265 96 357 c 7
 96 445.205980066 95 532.431893688 95 652 c 5
 96 656 94 657 12 659 c 5
 12 683 l 5
EndSplineSet
Position2: "cpsp-1" dx=0 dy=0 dh=50 dv=100
Substitution2: "salt-1" R.alt
Substitution2: "c2pc-1" r.pcap
Substitution2: "c2sc-1" r.smcp
EndChar

StartChar: S
Encoding: 83 83 44
Width: 575
VWidth: 1159
Flags: HW
HStem: -10 43<195.79 384.696> 672 38<219.404 383.163> 681 20G<474 513>
VStem: 30 34<149.828 195.235> 58 32<0 20.4257> 68 82<457.95 594.46> 449 80<96.0494 230.479> 482 33<527.268 575.693 682.701 692>
AnchorPoint: "Bottom" 286 -15 basechar 0
AnchorPoint: "Top" 308 699 basechar 0
LayerCount: 2
Back
SplineSet
30 194 m 5xd0
 64 200 l 5
 82 141 86.878297754 120.865926417 110 100 c 4
 151 63 241 33 305 33 c 7
 407 33 449 107 449 164 c 7
 449 286 282.776167628 306.192651078 193 347 c 4
 171 357 68 397 68 510 c 7
 68 601.2 146 702 310 702 c 7xd6
 368 702 417.383162321 689.10631413 439 681 c 4
 455 675 465 663 483 693 c 5xb6
 513 684 l 5
 496 604 499.867877476 602.962428833 515 550 c 4
 521 529 515 511 482 517 c 5
 475 533 471.790643312 554.907101001 463 575 c 4
 442 623 371 664 297 664 c 7
 244 664 150 641.352112676 150 530 c 7xc5
 150 429 243.829771373 432.615686511 397 365 c 4
 508 316 529 231 529 181 c 7
 529 101 474 -10 282 -10 c 7
 227 -10 169.157879915 0.444742029655 119 18 c 4
 99 25 100 24 90 -4 c 5
 58 0 l 5xca
 59 69 56 87 30 194 c 5xd0
EndSplineSet
Fore
SplineSet
33 185 m 1xd0
 57 191 l 1
 92 65 87 62 97 56 c 0
 136 33 223 14 284 14 c 3
 454 14 507 103 507 171 c 3
 507 246 434 308 289 350 c 0
 154 387.340425532 70 402.659574468 70 530 c 7
 70 634.695652174 176 702 312 702 c 3xd6
 381 702 437 683 466 670 c 0
 485 661 490 670 494 686 c 1xb6
 516 680 l 1
 509 605 503 578 513 542 c 0
 519 539.130434783 503 539.391304348 494 539 c 1
 470 599.902654867 492 622.946902655 479 632 c 0
 455 652 386 678 312 678 c 3
 208 678 94 629.9 94 530 c 7xc5
 94 427.204819277 157 409.120481928 296 372 c 0
 500 314 531 229 531 171 c 3
 531 95 476 -10 284 -10 c 3
 225 -10 162 1 108 24 c 0
 85 34 86 34 84 12 c 1
 60 12 l 1xca
 61 74 58 90 33 185 c 1xd0
EndSplineSet
Position2: "cpsp-1" dx=0 dy=0 dh=50 dv=100
Substitution2: "c2pc-1" s.pcap
Substitution2: "c2sc-1" s.smcp
EndChar

StartChar: T
Encoding: 84 84 45
Width: 728
VWidth: 1159
Flags: HMW
HStem: -7 44<419.307 513> 634 51<94.399 314.89 414 630.844>
VStem: 312 97<51.3596 333.831>
AnchorPoint: "Bottom" 358 -15 basechar 0
AnchorPoint: "Top" 358 699 basechar 0
LayerCount: 2
Back
SplineSet
353.003178109 71.7117477933 m 0
 353.002384592 72.4798037484 353.001163757 74.3516849408 353.001163757 74.3516849408 c 1
 352.964071062 158.677912935 352.957728726 230.791390916 352.961252868 308.902976659 c 0
 352.999893051 658.005769555 l 1
 326.38890065 658.03151413 299.869309836 658.136755451 273.69018531 658.269571222 c 0
 229.051421325 658.496039141 188.195748335 658.793168913 144.531467535 658.925250589 c 0
 134.550398677 658.940415112 125.907063034 658.95233015 115.926441126 658.964874663 c 0
 108.274630996 658.974492123 100.677448972 658.983229003 93.0257429406 658.991114335 c 0
 66.7645916949 658.891702727 64.292390166 657.507069416 60.1386005849 651.598571596 c 0
 54.2419167849 643.210919141 46.7586558175 621.149993805 25.8155473441 579.461855893 c 0
 23.0401239382 573.738076633 21.1525608646 570.08182096 18.5491427118 565.280245805 c 1
 -2.63447337 576.559494234 l 1
 -0.261259420369 581.099094328 2.10152508269 585.720798516 4.24348224718 589.984454305 c 0
 5.26357048464 592.057813584 5.77255858836 593.129152682 6.82441468962 595.336700154 c 0
 24.6707513036 632.791096462 45.6917135661 686.26053275 55.3911868481 704.608304869 c 1
 76.9106128585 694.004149016 l 1
 74.9141386203 689.643979434 73.0509759405 685.586866157 71.9636204976 683.103859213 c 1
 75.9631512241 682.995725056 79.0865713289 683.004612086 84.0112319129 682.999994744 c 2
 92.9926514293 682.991161026 l 2
 95.5922944265 683.001001977 98.0841049043 683 101 683 c 0
 106.228952951 683 111.464007826 682.996322966 116.705205353 682.989415518 c 0
 126.53245072 682.976464054 136.381291339 682.952155808 146.251995809 682.919432939 c 1024
139.915569801 682.9321438 m 0
 182.509555621 682.869538648 225.105738073 682.784095765 267.715976715 682.690195232 c 0
 403.597947789 682.379488665 l 0
 415.927475645 682.351842028 428.259231327 682.324765079 440.593501467 682.298605032 c 0
 455.59589971 682.267263979 l 0
 462.264200254 682.253556113 468.933269438 682.240157277 475.603152538 682.227122306 c 0
 484.940988878 682.208873346 494.280420493 682.191337561 503.621571627 682.174665411 c 0
 515.298010546 682.153825223 526.977136213 682.134334464 538.659191316 682.116486989 c 0
 553.67897645 682.093540234 568.70360412 682.073309928 583.733590184 682.056420581 c 0
 602.103573155 682.035778044 620.481560637 682.020126324 638.868494616 682.010605562 c 0
 652.24081024 682.003681372 665.617857899 682 679 682 c 0
 688.797739298 682 698.286899414 684.058383043 699.62400736 684.728406365 c 0
 728.20562413 699.050623121 l 1
 716.107571376 669.458870392 l 0
 714.157499515 664.689008208 712.093277463 659.707903259 710.067438577 654.76405485 c 0
 698.101799712 623.75271125 692.432608533 606.948915627 689.315611933 593.542843245 c 0
 686.584845744 581.797931749 685.588659196 571.921607826 683.937730507 555.779102651 c 1
 660.011989547 557.53628852 l 1
 661.66921566 594.581355159 673.038693656 626.990612565 684.482805135 655.543480524 c 1
 676.54786677 656.14375889 663.738884665 656.634006921 644.414051284 656.987499343 c 0
 600.073081362 657.79859026 519.431863501 657.988200235 377 657.999632434 c 1
 377 76.9623000739 l 2
 377.018233177 33.4907376258 379.793636947 28.2036732944 382.256963267 27.0256644595 c 0
 387.944157824 24.305941385 411.392221012 25.5697492942 457.316563783 22.3080891675 c 0
 463.214087051 21.9360164447 468.14897432 21.5547159991 473.824864581 21.0538345562 c 0
 488.516213769 19.7573640748 502.384492016 18.0269979607 515.056728013 15.8224307941 c 1
 511.209833977 -7.86571976791 l 1
 489.565826097 -4.60031587641 471.412459087 -2.75349024431 455.767613198 -1.64235469082 c 0
 438.344490806 -0.518736396399 420.070756358 0.0224609375 401.327148438 0.0224609375 c 0
 395.563729199 0.0224609375 389.824724429 -0.000505620961642 384.113224536 -0.0461784540277 c 0
 360.196339185 -0.237433278927 336.100262311 -0.855074952543 313.057706128 -1.83679894928 c 0
 294.496761156 -2.92511900423 269.503664693 -4.17825013591 236.983218603 -6.95550619144 c 0
 227.168055027 -7.79372416671 216.600425828 -8.77471830878 205.220070314 -9.93781506093 c 1
 202.666102125 13.9256327488 l 1
 225.370741872 16.4651768841 249.443798751 18.5469590281 274.571890081 20.1472473915 c 0
 286.805251319 20.9263318583 299.10541464 21.5833382764 311.802051672 22.1311011442 c 0
 343.365791417 23.9967812224 350.535214867 27.3192622436 351.070383099 28.0493916178 c 0
 351.688134705 28.8921893896 353 35.3028738862 353 52 c 0
 353 77 l 1024
EndSplineSet
Fore
SplineSet
125 681 m 0
 250 682 375 681 501 681 c 3
 556 681 612 681 667 681 c 0
 682 681 696 686.416666667 703 694 c 1
 721 682 l 1
 706 646 687 606 685 559 c 1
 660 563 l 1
 664 588.662337662 669 613.337662338 677 639 c 0
 684 661 715 655 377 657 c 1
 377 525.335877863 377 396.664122137 377 265 c 3
 377 191.671171171 377 117.337837838 378 42 c 0
 379 13 382 33 517 15 c 1
 513 -8 l 1
 475 -3 425 0 375 0 c 3
 352 0 248 -4 203 -12 c 1
 201 13 l 1
 353 27 353 19 353 35 c 0
 353 114.197994987 353 289.636591479 353 435 c 3
 353 539.529147982 353 628.130044843 353 657 c 1
 263 657 176 657 90 658 c 0
 59 658 65 660.96875 21 563 c 1
 -2 573 l 1
 17 610 45 685 56 706 c 1
 89 690.375 68 679.958333333 125 681 c 0
EndSplineSet
Position2: "cpsp-1" dx=0 dy=0 dh=50 dv=100
Substitution2: "c2pc-1" t.pcap
Substitution2: "c2sc-1" t.smcp
EndChar

StartChar: space
Encoding: 44 44 46
Width: 200
VWidth: 1159
Flags: W
HStem: -133 252
VStem: 28 144
LayerCount: 2
Fore
SplineSet
69 -98 m 1
 51 -82 l 1
 85 -46 97.3005971621 -1.84396615825 92 8 c 0
 85 21 72.4698776253 29.9611790971 58 38 c 0
 55 39.6666666667 55 43.8333333333 55 48 c 3
 55 51.8571428571 54.8856660237 55.9428330119 57 57 c 0
 73 65 86.5354518709 72.5571500644 92 91 c 0
 92.8888888889 94 96.4444444444 95 100 95 c 3
 104 95 106.810011862 94.1109863287 108 92 c 0
 118.710526316 73 128.430829951 62.5230566831 145 57 c 0
 148 56 148 52 148 48 c 1
 148 39 105 -62 69 -98 c 1
EndSplineSet
Position2: "cpsp-1" dx=0 dy=0 dh=7 dv=14
EndChar

StartChar: period
Encoding: 46 46 48
Width: 200
VWidth: 1159
Flags: HW
LayerCount: 2
Fore
SplineSet
142.75 37.400390625 m 0
 128.470069679 30.322047742 116.229756123 21.3133286999 108.75 7.7998046875 c 0
 107.703638459 4.7998046875 105.088249716 3 101.950195312 3 c 3
 97.9496372768 3 93.2837146577 4.7998046875 91.9501953125 7.7998046875 c 0
 84.4333025185 21.3133286999 73.5000342893 30.322047742 59.150390625 37.400390625 c 0
 56.150390625 39.0997401623 54.9501953125 45.9003470292 54.9501953125 51 c 3
 54.9501953125 54.1380544037 56.150390625 56.7534431465 59.150390625 57.7998046875 c 0
 73.5000342893 65.087535101 84.4333025185 75.6874699968 91.9501953125 89.599609375 c 0
 93.2837146577 92.599609375 97.9496372768 95 101.950195312 95 c 3
 105.088249716 95 107.703638459 92.599609375 108.75 89.599609375 c 0
 116.229756123 75.6874699968 128.470069679 65.087535101 142.75 57.7998046875 c 0
 145.75 56.7534431465 147.549804688 54.1380544037 147.549804688 51 c 3
 147.549804688 45.9003470292 145.75 39.0997401623 142.75 37.400390625 c 0
EndSplineSet
Position2: "cpsp-1" dx=0 dy=0 dh=7 dv=14
EndChar

StartChar: dotlessi
Encoding: 305 305 50
Width: 263
VWidth: 1159
Flags: HMW
HStem: -7 33<33 87 184 254>
VStem: 97 71<57 330>
AnchorPoint: "Top" 136 465 basechar 0
LayerCount: 2
Fore
SplineSet
141 205 m 7
 141 158.309942197 141 80.5956936218 141 35 c 4
 141 29.307394375 152.644864134 30.2836429536 192 28 c 4
 214.034133333 26.68148 237.333333333 21.333333 256 20 c 5
 253 -4 l 5
 214.936 2 171.992 7 131 7 c 7
 105.375 7 74.625 1.11022302463e-016 49 -4 c 5
 44.99609375 20.0048828125 l 5
 44.9971955128 20.00390585 44.9978018606 19.9996178132 45 20 c 4
 119.769230769 33 117 28.1768964064 117 54 c 4
 117 86.75 117 150.94 117 185 c 7
 117 205 117 247 117 310 c 4
 117 355.098098361 117.015625 356 115 356 c 7
 101.7 356 74.8129496403 344.828935146 48.5 338.200195312 c 5
 43 362 l 5
 125.222167401 384.949880668 128.451876652 388.830548926 149 439 c 5
 171 429 l 5
 158.706434294 405.723288747 147.43574326 378.019124151 144.998046875 363.400390625 c 4
 140.995999953 339.400331439 141 221.125039765 141 205 c 7
EndSplineSet
Substitution2: "case-1" I
Substitution2: "pcap-1" i.pcap
Substitution2: "smcp-1" i.smcp
EndChar

StartChar: uniFB01
Encoding: 64257 64257 51
Width: 576
VWidth: 1159
Flags: HW
HStem: -7 33<610.576 667.392> -6 36<34 95.891 318 379.891 757.708 831.909> 1 32<191.619 269.028 475.619 555.026> 360 37<39 113 187 397 471 658.27> 669 55<273.933 386.83> 701 55<571.006 687.458>
VStem: 114 71<42.7113 360 397 588.557> 398 71<42.7113 359.877 397.128 601.705> 680 65<39.2303 341.179>
LayerCount: 2
Fore
SplineSet
428 389 m 3
 318 389 146 389 146 389 c 1
 146 349 146 317 146 300 c 0
 146 208.99450566 145 124 145 36 c 0
 145 26 145 26.4583333333 156 26 c 0
 180 25 202 23 226 21 c 1
 222 -3 l 1
 196 1 159 2 133 2 c 0
 112 2 80 -1 59 -5 c 1
 55 19 l 1
 70 21 88.1021166551 22.8877645819 105 25 c 0
 121 27 121 26 121 63 c 0
 121 122 122 198.993243552 122 273 c 0
 122 298 122 343 122 389 c 1
 100 389 80 389 58 389 c 1
 58 413 l 1
 80 413 100 413 122 413 c 1
 122 448 122 489 122 500 c 0
 122 608.465116279 162.930010807 664.334921509 215 712 c 0
 239.275862069 734.222222222 286.724137931 769 343 769 c 0
 408.391304348 769 471 741.710526316 503 708 c 1
 488 690 l 1
 443.05 731.25 382.15 745 343 745 c 0
 269.408045977 745 146 666 146 505 c 0
 146 495 146 448 146 413 c 1
 427.346927618 413 l 3
 441.263944305 413 455.082700618 424.733087905 462 439 c 1
 484 429 l 1
 471.706434294 405.723288747 460.43574326 378.019124151 457.998046875 363.400390625 c 0
 453.987999859 339.352355307 454 221.125039765 454 205 c 0
 454 158.309942197 454 80.5956936218 454 35 c 0
 454 29.307394375 465.649055052 30.3547560119 505 28 c 0
 527.034133333 26.68148 550.333333333 21.333333 569 20 c 1
 566 -4 l 1
 527.936 2 484.992 7 444 7 c 0
 418.375 7 387.625 1.11022302463e-016 362 -4 c 1
 357.99609375 20.0048828125 l 1
 378.714643973 23.6056410372 393.479773396 25.8383811158 404 27.7341166019 c 4
 431.447214981 32.6800803526 430 35.3321033437 430 54 c 0
 430 86.75 430 150.94 430 185 c 0
 430 205 430 247 430 310 c 0
 430 387.451081968 441.03840481 389 428 389 c 3
EndSplineSet
LCarets2: 1 298
Ligature2: "liga-1" f i
EndChar

StartChar: uni0237
Encoding: 567 567 52
Width: 265
VWidth: 1159
Flags: HMW
VStem: -27 27<-331 -293> 82 68<-160 327>
AnchorPoint: "Top" 120 465 basechar 0
LayerCount: 2
Back
SplineSet
115.223750639 -41.7842232556 m 2
 115.086469832 -56.8667395308 115 -69.8436449494 115 -80 c 0
 115 -102.097624643 113.298194228 -119.680465363 110.191922212 -133.989564386 c 0
 108.052554763 -143.844599781 105.236561253 -152.162182775 101.792131012 -159.246895103 c 0
 89.9243239785 -183.657317996 72.4910005552 -203.652405769 56.0070272125 -220.692698788 c 0
 53.3746695167 -223.460912428 50.9783388183 -225.943202888 48.4146350929 -228.558180687 c 0
 47.5345225659 -229.392314626 46.1704655771 -230.69934833 45.1711725752 -231.66338203 c 0
 44.216026211 -232.616833883 43.2161448322 -233.613433764 42.3299657455 -234.496333097 c 0
 41.2222430469 -235.599956107 39.9451017437 -236.872345535 38.7762889803 -238.038822897 c 0
 34.054143974 -242.919343206 29.6781767185 -247.784418221 26.0924002668 -252.208525973 c 0
 22.6949355376 -256.400295941 19.6599399519 -260.573193219 16.9869308995 -264.727624506 c 0
 14.2778071922 -269.44436835 11.4749241223 -274.904376244 9.0882341572 -280.340857333 c 0
 6.56876883349 -286.079778512 4.14040238979 -292.694820849 2.24440934897 -299.135336824 c 0
 0.308798907306 -306.922275521 -1.11016820701 -315.535447425 -2.05755187687 -325.173853835 c 1
 -25.9946099139 -323.640371005 l 1
 -25.6924914366 -313.563894044 -23.7013391254 -302.851587518 -20.9329170099 -292.890342677 c 0
 -19.0810648616 -285.635797882 -16.7579531232 -278.614467504 -13.9965272033 -272.108826251 c 0
 -11.1096414875 -265.30761436 -7.57342002337 -258.640977034 -3.51359204758 -252.237214063 c 0
 1.43088805085 -243.866972802 6.53272344965 -236.707981479 11.3373138295 -231.695912554 c 0
 14.7755701573 -228.10918063 18.0476063162 -224.81885402 21.7566021359 -221.117269135 c 0
 23.8607402956 -218.959023525 26.0265859508 -216.800955005 28.281154534 -214.612404102 c 0
 30.0656822524 -212.831042288 31.6390215776 -211.254502428 33.4416035707 -209.433045625 c 0
 35.0188578299 -207.83927596 36.8850980891 -205.935600251 38.6084258154 -204.160176998 c 0
 58.3891949564 -183.2823841 79.0113774916 -157.084203779 83.2827693912 -137.409913817 c 1
 83.9008140321 -134.663048746 84.4878717719 -131.549210082 85.0857129026 -127.692119157 c 0
 87.5476780904 -111.808261233 89.7784827154 -84.8164226957 91.2294281197 -41.0520834106 c 0
 91.2633101275 -37.3599853966 91.300995406 -33.4413710287 91.3390469434 -29.6275599591 c 0
 91.6229615358 -1.17150558117 92.0354758497 33.2463413698 92.3783440371 69.9039194892 c 0
 92.6717195625 101.270014795 92.9140857636 134.27467071 92.9813899259 166.572495521 c 0
 92.9935532533 172.409415603 93 178.223213802 93 184 c 0
 93 187.947763483 93.0921526516 194.357972335 93.2819670331 202.585615131 c 0
 93.5296090231 228.407592213 93.9831121948 248.370424555 94.8138679296 265.626801009 c 0
 95.6562880201 283.125468311 96.9435227349 298.735001153 98.7608324946 315.496468189 c 0
 99.1102316306 319.712869847 99.5044202437 324.204502526 99.8509004129 327.819374612 c 0
 100.23203583 331.795809348 100.640645921 335.709682452 101.064473672 339.406750853 c 0
 101.656457511 347.077718071 102.21589234 356.983664113 102.389396025 360.707734827 c 1
 99.7699801414 358.523570323 99.0023314897 357.87336327 97.0384265484 356.227851692 c 0
 94.4261928629 353.859533273 91.5882844641 351.442301083 89.1830789055 349.56162581 c 0
 87.0184254298 347.869042717 84.6064403833 346.12177045 82.2999152872 344.548973687 c 0
 73.8572808789 338.478943226 64.0793460229 332.564079914 53.3180249358 329.467840162 c 1
 45.3009571032 352.041693523 l 1
 53.7440856863 355.634858223 61.3875900423 359.483723311 68.4707815499 364.169106491 c 0
 70.8558604432 365.912125155 73.2630099825 367.780045953 75.5476132848 369.618846451 c 0
 77.2611692418 370.998030112 79.306073746 372.689396865 81.151994395 374.228706966 c 0
 91.7801950478 384.144395809 103.189111297 398.591564407 116.704364261 421.164404653 c 0
 172.737930186 514.750276516 l 1
 138.389510581 411.221237144 l 0
 133.530370309 396.575377733 128.975562608 364.358944547 126.848519455 351.099319407 c 0
 126.208121439 347.107187122 125.560212589 342.267527022 124.957354738 337.100005469 c 0
 124.4228322 330.364887865 123.741781559 322.971041216 122.925798294 315.667583007 c 0
 122.822610377 314.743999557 122.755040817 314.135972411 122.655483849 313.223459866 c 0
 121.176446222 294.876504796 119.980588217 274.091717781 119.113964595 255.014849878 c 0
 118.211175112 235.141867777 117.605548421 216.062637882 117.279556943 202.208328273 c 0
 117.028170452 175.174738046 117 141.146225114 117 96 c 0
 117 90.873498677 116.994965011 85.8513392849 116.985015315 80.9313220066 c 0
 116.883029619 30.5004948046 116.265197793 -9.19553255779 115.258332121 -40.5422941579 c 0
 115.226228432 -41.5417787016 115.223750639 -41.7842232556 115.223750639 -41.7842232556 c 2
EndSplineSet
Fore
SplineSet
-27 -332 m 5
 -22.6428571429 -279.472727273 -6 -248 18 -225 c 4
 42.7622188083 -201.269540309 72.1552710791 -168.303595648 82 -140 c 4
 90 -117 93 -93 93 96 c 7
 93 184.071979276 93.3348132111 252.881118729 97 301 c 4
 99.3428194448 332.307259846 104.125 358 100 358 c 7
 94.8 358 83 339.461538462 54 330 c 5
 46 352 l 5
 73.8309859155 364.810810811 93.6338028169 379.756756757 122 431 c 5
 142 422 l 5
 135 406.115384615 131.42289173 375.437510879 129 363 c 4
 120.428571429 319 117 217 117 196 c 7
 117 37 115 -47 115 -84 c 7
 115 -144.019607843 100.949746252 -162.665093967 87 -184 c 4
 70 -210 40.6652436079 -233.321075033 22 -258 c 4
 12.9339165367 -269.987049204 -1.29411764706 -294.426470588 -2 -335 c 5
 -27 -332 l 5
EndSplineSet
EndChar

StartChar: U
Encoding: 85 85 53
Width: 815
VWidth: 1159
Flags: HW
HStem: -10 54<297.466 551.379> 650 40<14.125 94.1699 204.669 289.778 727.959 801.369> 672 20G<570 586.309>
VStem: 99 87<142.83 548.313> 104 90<339.122 637.527> 664 55<148.927 617.399> 665 61<265.818 645.847>
AnchorPoint: "Horn" 722 544 basechar 0
AnchorPoint: "Bottom" 410 -15 basechar 0
AnchorPoint: "Ogonek" 480 11 basechar 0
AnchorPoint: "Top" 431 699 basechar 0
LayerCount: 2
Back
SplineSet
15 690 m 5xc8
 45 686.5 93.25 684.75 144.125 684.75 c 7
 195 684.75 248.5 686.5 289 690 c 5
 293 654 l 5
 225 648 195 646 194 591 c 4xc8
 194 583.937049502 186 286.287214007 186 254 c 4
 186 195 198 144 230 108 c 4
 268 63.4153846154 335 39 443 39 c 7
 469 39 552 40.0714285714 609 99 c 4
 646 135 659 180 664 256 c 4xd4
 670 352.368500712 670 510.616898149 665 608 c 4
 663 654 635 651 569 652 c 5
 571 692 l 5xa2
 601.61861097 687.878263908 665.174513761 684.796652821 718.796500645 684.796652821 c 7
 756.241457349 684.796652821 788.842222135 686.299374976 802 690 c 5
 805 651 l 5
 756 650 728 657 726 618 c 4xc2
 725 606.846311123 724 487.203168044 719 254 c 4
 718 177 694 116 652 73 c 4
 598 13.2857142857 513 -15 402 -15 c 7
 289 -15 210 12.4444444444 162 61 c 4
 118 103 99 162 99 235 c 4xd4
 99 265.253216109 104 578.87388159 104 594 c 4
 104 638 92 641 10 650 c 5
 15 690 l 5xc8
EndSplineSet
Fore
SplineSet
48 686 m 1xc8
 65 682 92 681 120 681 c 3
 145 681 172 682 192 686 c 1
 196 662 l 1
 130 654 130 656 129 629 c 0xc8
 129 622.093085106 124 293.521276596 124 258 c 0
 124 182.972222222 152.292682927 124.388888889 204 73 c 0
 243.4 36 319.169230769 9 401 9 c 3
 474 9 565 25.7058823529 628 80 c 0
 662 108.32 693 166.982857143 695 257 c 0xd4
 697 360.909090909 701 530.132467532 702 638 c 0
 702 664 702 650 636 663 c 1
 640 688 l 1xa2
 656 684 690 681 719 681 c 3
 743 681 764 682 773 686 c 1
 777 661 l 1
 726 648 726 665 726 638 c 0xc2
 726 626.124031008 724 500.436692506 719 255 c 0
 717 181.193370166 696 114.464088398 655 72 c 0
 600 14 509 -15 402 -15 c 3
 317.222222222 -15 230.829336745 11.3862737197 184 59 c 0
 136.139534884 109.282051282 100 164.641025641 100 259 c 0xd4
 100 290.576719577 105 616.211640212 105 632 c 0
 105 657 105 655 43 662 c 1
 48 686 l 1xc8
EndSplineSet
Position2: "cpsp-1" dx=0 dy=0 dh=50 dv=100
Substitution2: "c2pc-1" u.pcap
Substitution2: "c2sc-1" u.smcp
EndChar

StartChar: V
Encoding: 86 86 54
Width: 841
VWidth: 1159
Flags: HW
HStem: 658 38<10.0789 73.9741> 658 36<188.341 269 596.689 669.375 765.391 828.825>
VStem: 397 46<-27 41.9461>
AnchorPoint: "Bottom" 423 -15 basechar 0
AnchorPoint: "Top" 425 704 basechar 0
LayerCount: 2
Back
SplineSet
241.262379672 692.742750941 m 0
 247.088187616 693.177367267 252.690722886 693.588780865 258.164371364 693.970869842 c 1
 259.89972921 670.033777231 l 1
 254.938343464 669.660735231 250.06459595 669.301213325 242.953459213 668.802216031 c 0
 225.22304105 667.479493194 205.852445104 665.972795907 185.693818749 664.718252735 c 0
 165.881380344 663.485254073 144.713568032 662.488017429 123.957866777 662.165169591 c 0
 122.431454087 662.110345009 120.878215001 662.056264693 119.402458028 662.006750752 c 0
 114.968045208 661.857944952 110.89698619 661.789943999 107.675133513 661.708363831 c 1
 110.848836356 656.166004717 113.94160897 649.5220724 117.878904772 641.064526725 c 0
 122.494278772 631.150374076 127.162627465 621.156523091 131.874508065 611.100381886 c 0
 142.397694995 588.641694432 153.120557814 565.909128298 163.971776251 543.025162353 c 2
 312.897373826 233.934299463 l 2
 335.210480472 188.052788715 355.460391434 146.459160597 372.243961938 111.755084118 c 0
 379.022056161 97.7397409433 385.243636167 84.8298946821 390.822327317 73.1843255543 c 0
 403.352821505 47.0268768428 410.813570097 31.3044646526 419.486949918 13.0343905092 c 1
 428.809950506 34.0681944143 439.147973204 56.4656269165 448.089120006 75.9952675354 c 0
 462.739117813 107.993937311 480.296378411 146.206809645 499.269322753 187.438211084 c 0
 534.245280213 263.446853533 574.212088605 350.103803999 609.536447617 426.761504798 c 2
 707.254217519 640.17188522 l 2
 709.197011482 644.541205703 710.772781367 648.002411663 712.443441381 651.5468395 c 0
 713.612982366 654.028106539 714.976983433 656.814709981 716.171548132 659.173201837 c 0
 716.9392107 660.796911755 717.657803751 662.345165361 718.229601538 663.628945263 c 1
 714.464292946 663.650740731 710.298361804 663.695472186 706.840718121 663.756942721 c 0
 702.998892873 663.825243296 699.286901814 663.914520485 695.395609847 664.034885677 c 0
 688.916622191 664.138928963 682.191822212 664.382111211 676.080337783 664.713345452 c 0
 669.498851471 665.070053164 663.746790558 665.477510921 657.518781432 666.010554394 c 0
 635.898273625 667.581032769 615.72316196 669.880614613 596.027212152 673.163272914 c 1
 598 697 l 1
 604.563301483 697 628.127361191 692.613853716 659.436521846 689.934162116 c 0
 665.921465638 689.444754266 671.182836221 689.126054335 677.687830112 688.787244095 c 0
 683.810180135 688.468363722 689.851155807 688.217865043 695.909418207 688.030471261 c 0
 696.963853793 688.017105806 698.168470539 688.004922769 699.068240366 687.999805967 c 0
 706.568903085 687.957133848 713.242334874 687.890905407 718.621180646 687.627740181 c 0
 735.754885161 687.574821956 752.27560537 688.049621563 766.417324099 689.016042327 c 0
 781.164038313 690.023807443 794.151660163 691.624716029 803.684524721 693.582683919 c 0
 807.137380499 694.43926823 810.906433979 695.44299039 814.673863144 696.529822792 c 1
 821.973032354 673.676793126 l 1
 818.075447588 672.309227334 813.858375998 671.195720309 809.046786088 670.185165394 c 0
 778.473409806 662.779698722 760.232744863 663.777357941 751.948579672 662.922598758 c 0
 745.955368036 662.304219891 745.574107406 663.696506361 737.700160681 648.558857716 c 0
 735.482188479 643.886143895 732.805344045 638.393824574 729.930687702 632.048225938 c 0
 729.131763521 630.303270664 l 2
 728.135184322 628.061975914 727.036360412 625.570379576 725.991959939 623.185769356 c 0
 721.969715655 614.002090528 710.584741297 589.041873234 694.360775303 553.684670225 c 0
 677.338276265 516.587208704 655.811153234 469.83584775 631.344890072 416.74188487 c 2
 430.989758011 -20.8230022051 l 1
 420.685642392 -45.3506120758 l 1
 409.177503686 -21.1840452416 l 1
 291.295331972 223.477065864 l 2
 267.984370315 271.411044114 244.565949995 319.60861845 219.126454854 372.301675986 c 0
 193.662722113 425.044937081 167.929972674 478.654111689 142.315700544 532.680074488 c 2
 91.1894031016 638.791257858 l 0
 88.3163862278 644.790521389 85.9698671444 649.65519628 84.1448794899 653.872553993 c 0
 81.8612748837 656.723658819 80.7906377833 657.603067847 73.8825870039 659.254398735 c 0
 64.8898804989 661.404054911 47.9072910304 663.375963589 19.2341973519 669.773912425 c 0
 15.4192721689 670.572311199 11.5385577693 671.467336463 7.99980973381 672.38109909 c 1
 13.7977754879 695.669295279 l 1
 17.0018397734 694.901103859 20.908765705 693.998563962 24.2344095393 693.247413044 c 0
 38.7064461928 690.218662605 54.3366868683 688.370766242 71.3713430974 687.265237882 c 0
 88.0795432686 686.180896121 105.564513016 685.903261867 123.375836223 686.159740257 c 0
 143.637460324 686.887482556 165.023815371 687.974991484 185.460105037 689.156987303 c 0
 206.64042826 690.382016597 226.075097581 691.671292117 241.262379672 692.742750941 c 0
EndSplineSet
Fore
SplineSet
263 689 m 1x60
 263 665 l 1
 237 663 166 657 126 657 c 0
 116 657 114 656 119 646 c 2
 425 13 l 1
 721 650 l 2
 723 654 725 657 717 657 c 0
 651 657 597 664 588 667 c 1
 589 691 l 1
 628 684 677 681 722 681 c 3
 766 681 807 685 830 691 c 1
 835 669 l 1
 769 648 754 664 747 647 c 0
 729 609.447811448 549 221.079124579 474 60 c 0
 462 34 441 -8 437 -27 c 1
 413 -27 l 1
 410 -6 395 20 378 56 c 0
 325 165.074074074 191 439.742424242 92 645 c 0
 84 660 77 651 6 668 c 1x60
 11 691 l 1xa0
 37 684 93 681 126 681 c 3
 143 681 203 684 263 689 c 1x60
EndSplineSet
Position2: "cpsp-1" dx=0 dy=0 dh=50 dv=100
Substitution2: "c2pc-1" v.pcap
Substitution2: "c2sc-1" v.smcp
EndChar

StartChar: W
Encoding: 87 87 55
Width: 1130
VWidth: 1159
Flags: HW
HStem: 656 26<591.128 674.836> 659 34<228.509 286.647 403.688 459.319 590.967 677.8 1096.15 1122.17>
VStem: 376 37<-21 34.9281> 757 36<-15 34.8204>
AnchorPoint: "Bottom" 574 -15 basechar 0
AnchorPoint: "Top" 579 699 basechar 0
LayerCount: 2
Back
SplineSet
983.044173691 534.57347442 m 0
 994.257150362 562.920370689 1004.30267628 588.458095445 1012.81594394 610.349355134 c 0
 1015.0872309 616.18980732 1017.20390245 621.491795962 1019.11882009 626.285663497 c 0
 1025.4874251 642.229037846 1029.30954875 653.071310855 1029.75766311 656.896296354 c 1
 1022.99951866 658.933853907 1001.23508803 658.775740607 964.331446396 659.405417064 c 0
 953.439285928 659.496649575 942.831707672 659.746596994 932.859395993 660.111014847 c 0
 909.487112929 660.965107407 888.546968817 662.456804359 870.920670564 664.048638238 c 1
 872.99000376 687.959092464 l 1
 911.43810046 684.776262293 940.723534462 683.796415436 964.593575421 683.404063347 c 0
 1007.78923255 683.042257419 1056.68123866 685.279326852 1107.21828225 692.866991273 c 1
 1111.52846969 669.269405768 l 1
 1050.83256543 656.186713535 1067.32644699 680.757264722 1024.13662917 572.530543904 c 1
 1019.41262106 560.825699304 1014.83026149 549.467468336 1010.32676872 538.300480195 c 1024
486.701197979 658.436831655 m 0
 473.403293935 659.047613665 460.455780285 659.910610264 448.048827913 661.000171798 c 0
 432.460090333 662.369153344 417.726261813 664.095093459 404.209850691 666.13427771 c 1
 407.562506896 689.897838972 l 1
 428.139427215 687.195534799 445.410702417 685.374647355 459.330180035 684.150687753 c 0
 482.945790773 682.28791706 506.790395182 681.385070458 532.782802049 681.371652722 c 0
 547.685275394 681.363959804 563.19951869 681.713839595 578.356936285 682.423515677 c 0
 588.539365909 683.238685234 605.369711121 684.791673796 621.792527876 686.474377123 c 0
 638.199901684 688.155498147 654.818057183 690.039639651 664.353898029 691.434433856 c 0
 666.843594395 691.870394099 669.329120588 692.324679013 671.748187858 692.786829178 c 1
 677.250050945 669.448499281 l 1
 674.689953573 668.728207859 671.9975493 668.309652365 668.198159238 667.742172817 c 0
 654.065603175 665.29463688 639.116774568 663.278429638 624.233540847 661.756479904 c 0
 610.042773027 660.30534128 594.830001594 659.203741587 579.8656557 658.467880335 c 0
 577.451239029 658.277248212 575.382936947 658.125914615 573.751430366 658.023550092 c 1
 573.748771892 658.065921383 573.74726716 658.02703135 548.587079389 656.553331469 c 1
 549.803588638 651.493536803 551.831882055 645.50746273 555.261596626 636.144486664 c 1
 579.067674542 571.757583946 l 2
 584.52729368 557.128715086 589.138524326 545.057333052 597.486921455 522.550068756 c 2
 609.914617758 488.631253258 l 2
 612.211739523 482.305233645 613.938957654 477.516534324 616.223411341 471.264641804 c 2
 651.551195095 375.715657052 l 2
 671.627118333 321.9163082 691.543334566 269.150401568 711.61724941 215.291765684 c 0
 730.524086845 164.564417229 749.219192022 113.809978186 767.304553714 63.0257999604 c 0
 768.234852696 60.3831199626 769.378450856 57.1492902831 770.360606509 54.3788101463 c 2
 780.8920054 25.8951532289 l 1
 783.735465697 33.6450315729 786.888011102 42.0953661951 790.793977123 52.2924411804 c 0
 798.464239702 72.0921714345 811.0577738 104.553328798 834.835306276 164.646067504 c 0
 864.520667181 239.669606555 911.592424177 357.64428796 988.068640038 547.276877441 c 1024
629.721119975 365.569191872 m 0
 623.643202187 381.850491826 617.58417968 398.13448171 611.557203804 414.421233822 c 0
 606.617726996 427.769227241 601.063780328 442.854621434 596.573570493 455.118157007 c 1
 483.725658245 167.831866702 447.02029912 66.968831797 427.95405873 24.1001431301 c 0
 419.074223723 4.24849505946 414.195165566 -8.29003182784 409.04804484 -19.6942607567 c 2
 398.217739535 -47.1237777109 l 1
 397.440367754 -45.2305012772 l 2
 396.796977332 -46.6459602061 397.226449645 -45.7011211182 396.8126467 -46.6114875957 c 1
 386.812539344 -19.3465966002 l 1
 375.16949052 9.00986102001 l 2
 367.400897333 26.9798560729 358.473212892 47.2358865794 342.909073429 84.4180274492 c 1
 233.280551051 353.322846954 145.724612973 568.393169036 138.014022359 586.171780922 c 1
 136.599785672 589.347678996 135.225596495 592.870581345 133.948339454 596.277296001 c 0
 131.643677162 601.82199862 129.079896777 608.043506675 126.759007414 613.803382609 c 0
 124.282986732 619.948256277 121.886861911 626.03246008 119.748687727 631.733531075 c 0
 118.333094538 634.908843307 116.619006981 638.698222672 115.10939701 641.96067797 c 0
 112.084615371 648.497608091 109.731559708 651.939710022 108.201572693 653.477934187 c 0
 106.502727484 655.185925647 105.39279255 655.851570234 99.9069060621 656.61380881 c 0
 95.1841232531 656.911717261 90.2781603133 657.271686562 85.9066562146 657.649881882 c 0
 73.8007274091 658.697211475 62.1520321848 660.113189211 51.1480155467 661.922369267 c 0
 36.1687958658 664.385115953 22.3870912424 667.566961636 10.2151740049 671.612502813 c 1
 17.2621439156 694.548091491 l 1
 64.4912335967 681.206658608 85.9744037508 682.501161753 102.187051775 680.51938169 c 0
 108.664856823 680.133112281 115.43277519 679.832432475 121.945879232 679.646737019 c 0
 128.801792574 679.451267708 136.073812773 679.361433862 143.240907908 679.374720513 c 0
 158.287651936 680.153589739 180.191286453 679.967399714 210.793219273 682.841847931 c 0
 229.885002481 684.635144535 252.413173506 687.6187037 278.689066852 692.775380588 c 1
 283.505314696 669.264438732 l 1
 260.613372042 664.377453011 235.386781332 660.747228523 209.414844483 658.420035663 c 0
 188.133151616 656.513108044 165.658480752 655.480324261 143.930987691 655.376098184 c 0
 139.95784943 655.145374045 139.152171335 655.044936832 137.138100439 654.797887837 c 1
 138.597492658 650.030291996 139.902892551 646.379074212 141.976161831 640.812668231 c 0
 145.891253057 631.913834114 148.92514393 624.505627402 151.107401027 618.87917157 c 0
 153.339516397 613.124167465 154.322175181 610.347774722 156.277601174 605.086251443 c 0
 158.014308104 600.918428553 159.7270203 596.832051291 161.083055661 593.600873281 c 1
 397.782260465 17.1237777109 l 1
 584.087958201 488.973384036 l 1
 556.569751127 563.400264771 l 2
 536.536947859 617.077498393 530.381326811 632.755739308 524.328460727 648.331359905 c 1
 514.817784201 661.978173537 527.23748541 654.214886935 458.270720997 660.152837362 c 1024
1040.01103484 613.886912784 m 0
 1038.64211708 610.453173288 1036.97131265 606.236996616 1035.58413355 602.678008893 c 1
 1024.50918232 574.220277899 1014.48592101 548.783308701 1001.61306402 516.274131137 c 0
 992.348975473 492.878555478 982.352644781 467.718393314 971.813517095 441.227510857 c 0
 937.202400916 354.229892296 896.735745008 252.876662997 857.141751031 152.582777337 c 0
 834.819227217 96.0385284208 813.183378762 40.8796337524 792.235602888 -13.2161917904 c 2
 781.215829646 -43.5205682055 l 1
 780.862362198 -42.5851213802 781.158768976 -43.6888850087 780.805301528 -42.7534381833 c 2
 769.77448448 -13.2412028354 l 2
 764.084876771 1.81626707896 758.696610959 15.4988281693 747.803056293 46.1827600823 c 2
 628.169284092 369.749207258 l 1025
EndSplineSet
Fore
SplineSet
1121 691 m 1x70
 1124 668 l 1
 1061 658 1061 662 1051 637 c 0
 884 222.393634841 834 93.8257956449 814 42 c 0
 805 19 795 -5 794 -15 c 1
 768 -15 l 1
 768 -7 759 17 744 57 c 0
 695 190 645 323 597 456 c 1
 483 165 446 64 428 24 c 0
 419 4 412 -12 411 -21 c 1
 384 -21 l 1
 384 -11 378 0 364 35 c 0
 234 351.475165563 126 612.043046358 116 638 c 0
 114 643 108 656 100 657 c 0
 70 660 38 661 5 671 c 1
 11 694 l 1
 42 685 93 681 145 681 c 3
 197 681 251 685 285 692 c 1
 290 669 l 1x70
 186 651 139 662 139 651 c 0
 139 646 142 640 144 635 c 2
 398 17 l 1
 584 489 l 1
 543 599.30625 527 640.05 524 648 c 1
 518 663 517 650 422 665 c 1
 425 689 l 1
 453 684 488 681 525 681 c 3xb0
 584 681 645 685 697 692 c 1x70
 701 668 l 1
 646 660.666666667 583 657.916666667 559 657 c 0xb0
 552 657 548 654 554 639 c 2
 781 26 l 1
 864 239.293729373 974 513.386138614 1021 630 c 0
 1037 670 1029 648 865 661 c 1
 865 686 l 1
 891 683 928 681 969 681 c 3
 1016 681 1070 683 1121 691 c 1x70
EndSplineSet
Position2: "cpsp-1" dx=0 dy=0 dh=50 dv=100
Substitution2: "c2pc-1" w.pcap
Substitution2: "c2sc-1" w.smcp
EndChar

StartChar: X
Encoding: 88 88 56
Width: 761
VWidth: 1159
Flags: HW
HStem: -6 31<18.6774 62.5845 196.476 263> -2 38<685.729 743.289> 653 39<215.532 275> 659 26<13 54.2795 447 485.234 665.996 702.194>
AnchorPoint: "Bottom" 371 -15 basechar 0
AnchorPoint: "Top" 364 699 basechar 0
LayerCount: 2
Back
SplineSet
317.167926121 305.638503316 m 0
 328.618939695 320.349074645 342.699844806 338.446105644 354.405705045 353.495847124 c 1
 267.280861628 451.704162402 215.265766416 510.335966652 177.841487615 552.55391311 c 0
 127.436921121 609.414789463 112.45499895 626.40507852 105.089585894 634.957352997 c 0
 99.379120868 640.957820227 94.2997213405 645.705491808 90.4815612469 650.065628527 c 0
 80.6872671288 657.794579722 70.4853428988 658.74851246 24.4105484896 661.014485955 c 1
 25.4042647803 684.993188483 l 1
 70.8448216841 683.461484318 99.0677079875 681.696212549 131.294242265 682.144044376 c 0
 138.025346438 682.459337501 145.97675249 682.791523571 154.631927423 683.160591904 c 0
 160.401775219 683.406625996 166.663713563 683.677408954 173.452441095 683.987500959 c 0
 174.98989566 684.057728018 176.736073897 684.146210538 178.394198938 684.236319291 c 0
 199.622638914 685.765919495 224.931288545 688.223374312 256.609431605 691.919157669 c 1
 259.437199195 668.086375091 l 1
 252.878686815 667.295189471 240.024536514 665.65787936 224.684603577 664.032902358 c 0
 211.157985085 662.600011872 195.177921451 661.143789418 179.876044165 660.281167505 c 0
 170.812499657 659.636920736 162.32629973 659.1478963 154.4021888 658.803228969 c 0
 146.783008205 658.471824896 139.212712907 658.259705703 132.028778237 658.151839694 c 0
 126.340509308 657.881314205 121.407120723 657.610904944 117.376255001 657.323256783 c 1
 119.214550395 655.289052175 121.257849319 652.963287901 123.096137931 650.826894323 c 0
 123.159589187 650.753153532 122.970289837 650.972923705 123.035020206 650.897762696 c 2
 369.179653514 373.02354775 l 1
 373.927040844 379.407083017 377.071100077 383.627702952 381.457799868 389.510061829 c 0
 385.366068772 394.750867303 389.409062839 400.166371926 393.559304475 405.72036679 c 0
 397.2726776 410.689729316 401.071906699 415.769958706 404.937287407 420.935088085 c 0
 409.939543913 427.619371988 415.052587552 434.445841813 420.23368157 441.358176535 c 0
 424.237253744 446.699525459 428.281458408 452.092143728 432.346567938 457.510032722 c 0
 436.650801354 463.246620796 440.978471253 469.011539904 445.306153886 474.773920127 c 0
 449.152982778 479.896035727 452.999821574 485.016145079 456.830216313 490.112563568 c 0
 463.533406841 499.031295572 470.186238006 507.877475066 476.700515552 516.534870687 c 0
 498.802564101 545.908224364 519.309478297 573.108163469 534.776998779 593.595472977 c 0
 544.057760314 605.888188818 551.523500689 615.763252792 556.434894222 622.246292256 c 0
 560.699619194 627.875729218 564.873193631 633.305061077 568.416700982 637.92888822 c 0
 570.06661596 640.119594259 571.313233248 641.769267025 572.443285563 643.257355522 c 0
 574.202867704 645.574428731 575.813557828 647.717044699 577.337312061 649.741019985 c 0
 578.914882261 651.888125692 580.631976446 654.346395049 581.320307941 655.36802847 c 1
 578.191115444 655.554351934 574.826528094 655.640379604 570.577277413 655.703048153 c 0
 559.567581475 655.37959523 548.631437136 655.318399573 537.740164991 655.570690949 c 0
 526.554326837 655.829805812 515.022455109 656.417076476 502.760492174 657.357860138 c 0
 488.871875717 658.289626607 463.396583657 659.55202814 454.205266808 662.615800423 c 1
 459.46397769 685.910363946 l 1
 475.844194003 683.896968609 490.807732915 682.362618608 504.436570134 681.299579806 c 0
 506.838297632 681.141142034 508.73730334 681.027286168 509.587529824 680.9856084 c 0
 521.357703511 680.408639101 531.81910713 680.128341684 541.064141515 679.978988721 c 0
 552.544576859 679.793522993 562.323280357 679.809153279 570.375643515 679.707722778 c 0
 585.099200701 680.178025537 600.696344635 681.146159824 617.671484795 682.502999213 c 0
 637.972956898 684.125715536 660.986166252 686.328278249 688.878088333 688.947439651 c 1
 691.339883342 665.075038255 l 1
 660.162065969 661.571912707 640.955873483 660.184668319 629.040570666 658.412947793 c 0
 610.291849478 655.625146706 611.245436006 654.865607279 596.601180611 635.425985509 c 0
 595.203951029 633.524327117 593.661741313 631.465911636 592.081624894 629.380727475 c 0
 590.788859886 627.674743609 589.124571577 625.496244186 587.526156069 623.408590203 c 0
 569.411562602 599.361031361 516.811617767 528.826352329 394.016864787 365.922460047 c 0
 385.398627671 354.490422398 l 1
 429.421478826 303.413330498 527.435217284 192.172345938 589.169990289 122.665052699 c 1024
337.302100593 292.432325612 m 0
 283.392388365 223.175109707 243.88348588 172.55170431 214.992953628 135.634286 c 0
 186.530014931 99.2632629586 168.327971675 76.1380465691 156.842427757 61.6382627069 c 0
 151.06262787 54.2058105929 146.782488171 48.6712926857 144.553946329 45.7390007896 c 0
 139.80901822 39.4956743303 134.934541977 33.921297044 130.770972604 29.3660834275 c 0
 129.330803897 27.6580793125 127.561004508 25.6022493729 126.099388094 23.9386011625 c 1
 128.322547573 23.7518527119 131.230940835 23.553332879 134.210232657 23.3789210917 c 0
 141.35746736 23.3492227264 148.769710478 23.1622933282 156.424765844 22.8516964246 c 0
 164.081178116 22.5410444659 172.213432103 22.1146169623 181.779428607 21.5811729452 c 0
 187.303230337 21.4007554804 193.456761231 21.1974981094 199.411977972 20.9929260045 c 0
 213.829673917 20.4976529465 237.653174249 18.9945333205 248.194044628 17.9404462825 c 1
 246.399304752 -5.98495578712 l 1
 218.76159337 -4.59973233016 197.523748475 -3.33717429297 180.723595432 -2.39716639769 c 0
 170.168646951 -2.05316658421 160.823030776 -1.75582563655 152.854195933 -1.46625195444 c 0
 145.608975149 -1.20297315629 139.080179491 -0.927303409823 133.51674368 -0.619946813685 c 0
 109.48705162 -0.594955878836 85.5932769559 -2.56638574488 32.2016022093 -7.93968810859 c 1
 29.4697390895 15.9020293037 l 1
 81.7580339879 22.6248100763 88.6101275105 20.8340922054 100.91748877 32.3048606726 c 0
 104.188108626 36.2348270668 108.267466619 40.3537820038 112.74842674 45.2238090348 c 0
 115.93233794 49.019453488 119.611931648 53.5365991844 123.675204203 58.5530247809 c 0
 126.404025253 61.9219663375 130.916253613 67.5617291403 137.963221233 76.4567281306 c 0
 148.057038939 89.4344754827 162.786432362 108.283714387 180.030386821 130.324009081 c 0
 227.232609877 190.655350643 294.032586075 275.869269622 340.153564456 335.134792574 c 1024
631.117974751 75.6750568701 m 0
 635.132427659 71.2256080034 638.117440683 67.9534330314 639.75444645 66.2072935466 c 0
 648.171176925 57.229447706 654.340765139 50.1859209535 659.122393204 44.7959866903 c 0
 671.54686678 30.7909041271 672.030010734 29.9672358006 681.622826587 28.1522465513 c 0
 697.291085608 26.8656075543 714.019587272 25.1157803312 731.505077181 22.9052401353 c 1
 728.727220223 -0.932310406623 l 1
 703.713665789 1.73580206641 689.508090993 2.44124534848 678.507715997 4.32590693156 c 0
 658.153862442 5.94894639802 639.244603661 6.79572729333 621.624661074 6.94372540099 c 0
 604.004253909 7.09172741086 586.985692557 6.54529427758 570.439533331 5.44748847241 c 0
 565.413524617 4.86559508772 560.863971418 4.42481695236 557.188477268 4.05899829225 c 0
 552.294218673 3.57187709228 546.727751322 3.00537212342 540.77254883 2.37330476572 c 0
 527.871445806 1.00402032739 512.685234831 -0.735597742639 498.832568723 -2.60331757762 c 0
 490.072268314 -3.91228183212 480.989899334 -5.35157792866 471.950195123 -6.84047038694 c 1
 467.749158651 16.7870146017 l 1
 475.758394436 18.3164535385 485.356635089 19.7847306772 495.434666224 21.1553266192 c 0
 508.063488929 23.0336635223 520.527140688 24.7146948784 532.712885265 26.100441362 c 0
 544.289131071 27.4168764652 556.309906889 28.5314520573 568.245848003 29.3542032841 c 0
 586.891987109 31.5457808962 609.589452902 36.4639017783 617.394145646 42.9709685574 c 0
 620.478587513 45.5425841051 624.189192557 46.9106089833 613.259651621 59.6411577132 c 0
 608.568217525 64.8432663375 602.436031925 71.6854975156 595.510800506 79.4439583168 c 0
 587.67476531 88.2228089034 578.571120287 98.4536063146 568.485870161 109.812964808 c 0
 566.82281784 111.681817349 568.109747091 110.236083051 566.372788527 112.188926748 c 0
 532.06763823 150.757835619 483.804749767 205.202232107 439.584546336 255.588222591 c 0
 414.145077719 284.574810715 388.845273245 313.611871095 370.45863643 335.01287986 c 1
 367.16663634 330.774217722 365.574328583 328.725831074 362.841459245 325.211969737 c 0
 333.247770342 287.16107655 294.259040989 237.318477882 257.309085995 190.113553055 c 1024
346.94108886 343.861609947 m 0
 349.147958874 346.700705847 351.997570897 350.369685387 354.420225996 353.490650772 c 2
 308.623600243 405.190747814 l 1024
EndSplineSet
Fore
SplineSet
13 684 m 1x90
 58 682 92 681 122 681 c 3
 170 681 210 684 275 691 c 1
 276 668 l 1
 254 664 187.009433123 657 134 657 c 0
 121 657 120.809931276 651.830817949 126 646 c 2
 369 373 l 1
 453 484 524.481582518 594.481582518 572 642 c 0
 575 645 577.067304405 653.566621114 571 654 c 0
 557 655 497 655 444 663 c 1
 447 685 l 1
 488 683 529 681 570 681 c 3
 614 681 659 683 702 688 c 1
 704 664 l 1
 688 663 617.27447832 660.779917947 606 647 c 0
 588 625 519 532 385 353 c 1
 450 278.626959248 642.352111992 57.8631924863 668 28 c 0
 675 22.2857142857 709 21.5714285714 745 18 c 1
 742 -5 l 1x60
 713 -1.66666666667 673 0 630 0 c 3
 570 0 506 -3.6 464 -9 c 1
 461 15 l 1
 532 23 591.843611689 25.839006769 611 27 c 0
 622 28 626.278570781 38.2460324654 613 53 c 0
 559 114.309090909 473 214.447272727 370 334 c 1
 278.172268908 214.786885246 188.108265734 102.24472922 135 31 c 0
 132 27 127.005110422 25.3782402589 141 25 c 0
 177.119047619 24 238.619047619 21 264 19 c 1
 263 -5 l 1
 217.1015625 -2 177.0625 0 138 0 c 3
 99.0172413793 0 61.0603448276 -2 19 -7 c 1
 17 16 l 1
 79.0689655172 24 92.3807336946 22.1242553384 107 37 c 0
 125.772 56.8742138365 138.616 73.7672955975 354 353 c 1
 220 504 116.414785289 620.384344988 96 642 c 0
 79 660 80 659 12 660 c 1
 13 684 l 1x90
EndSplineSet
Position2: "cpsp-1" dx=0 dy=0 dh=50 dv=100
Substitution2: "c2pc-1" x.pcap
Substitution2: "c2sc-1" x.smcp
EndChar

StartChar: Y
Encoding: 89 89 57
Width: 735
VWidth: 1159
Flags: HW
HStem: -11 42<247 320.923 456.301 545.814> 649 35<212.294 267.95 481 483 664 666.328> 651 39<9.47368 79.3442 237.708 269.641 654.659 729>
VStem: 353 78<94.0509 324.999>
AnchorPoint: "Bottom" 386 -15 basechar 0
AnchorPoint: "Top" 387 699 basechar 0
LayerCount: 2
Back
SplineSet
265.405929398 14.4785951306 m 0
 282.202015886 17.0412759373 296.799503209 18.8019285179 309.470600625 20.0468623955 c 0
 322.140297736 21.2916586932 331.29980361 21.9327694461 340.35690176 22.43500254 c 0
 344.013281401 22.6589260053 346.785242543 22.8045693918 350.420354866 22.9798141064 c 0
 352.403143445 23.0754021345 354.993064585 23.1890524308 357.27467065 23.2831541193 c 0
 370.147365196 23.893134166 377.551957967 24.9868472907 378.89486288 25.5326069027 c 1
 379.509054697 27.3589979712 380 34.6187627277 380 47 c 0
 380 307.226201483 l 1
 373.801619221 313.8884086 376.128231375 311.384085507 372.836106078 314.947021605 c 0
 341.949236944 348.374649981 249.302357407 450.229101393 151.26957242 567.513751233 c 1024
463.332480508 -2.73621665096 m 0
 456.137330536 -2.21678425013 449.667092396 -1.81271711089 443.84245021 -1.48575084149 c 0
 439.681890386 -1.25219782986 435.535414397 -1.0429224665 431.863311364 -0.867443320438 c 0
 419.092189131 -0.310591584624 406.238985498 -7.48325585095e-017 393.689453125 0 c 0
 381.926678111 0 370.129720515 -0.221209630647 358.266264402 -0.696855034699 c 0
 356.053365383 -0.801069712663 353.488312308 -0.920312913953 351.282254399 -1.02707095652 c 0
 348.130832986 -1.179578096 349.827246544 -1.05787162144 346.198659407 -1.26803427592 c 0
 334.46844774 -1.93038407793 322.169486962 -2.85943656399 310.630949923 -4.00677190999 c 0
 293.817691922 -5.67859955323 276.657275756 -7.92456679084 258.94983267 -10.8405300793 c 1025
461.961991255 21.4213417178 m 0
 480.288338075 20.1438172419 503.384169458 18.127590544 532.449489437 14.7265737276 c 0
 537.293878624 14.1597177941 542.304236007 13.5543927379 547.486235305 12.9076070063 c 1
 544.564904695 -10.9138785232 l 1
 538.629540983 -10.1989297699 532.746074437 -9.50725769649 526.908819957 -8.84265392207 c 0
 514.204188901 -7.3961612635 501.718540473 -6.07793037774 489.392676164 -4.92665005815 c 0
 475.401099138 -3.61978614441 461.615486211 -2.52804950348 447.947603223 -1.7072431469 c 1024
168.425120129 584.396347449 m 0
 222.331505494 520.089838031 274.736107241 460.109147113 316.118528284 413.579164475 c 0
 350.281874876 375.166237351 377.541673528 345.261659302 390.639774242 331.05485563 c 1
 432.349301261 391.023769393 472.354680934 448.922299845 505.756610536 497.375343907 c 0
 554.188603478 567.631090087 587.504528333 616.291762696 590.415765079 620.22163402 c 1
 591.702900729 621.901218561 592.739180731 623.254201023 593.86632666 624.727939464 c 0
 595.311095369 626.795974898 596.85340767 629.001820584 598.169216954 630.881548132 c 0
 601.015626884 634.947848033 603.617031893 638.661900857 606.015920687 642.061799211 c 0
 610.014577675 647.729017857 613.81097524 653.005254512 617.043880722 657.31315024 c 1
 614.72211057 657.568425222 611.56030691 657.787150323 608.2075438 657.928646384 c 0
 605.608225505 657.983745682 602.812218237 658.050614588 600.426037181 658.115966562 c 0
 598.437553107 658.170426537 596.420041133 658.230857181 594.425710652 658.295339614 c 0
 586.636074878 658.450011817 578.097948905 658.595309214 567.441500695 659.012673809 c 1
 553.318025431 659.775642457 535.760892978 661.211289646 517.640561634 663.073057935 c 0
 502.989616185 664.4474835 491.056038707 665.874390711 483.09828515 667.151646501 c 1
 486.59026676 690.8941604 l 1
 497.346944431 689.455976756 508.809926824 688.116525273 520.03030909 686.954172007 c 0
 530.416088177 685.989017826 542.391306336 685.033493718 554.828525776 684.237490404 c 0
 567.265984783 683.441471757 581.145969239 682.750342964 595.023520596 682.288211367 c 0
 597.901523181 682.231488244 600.126725422 682.185934768 602.706713951 682.119387786 c 0
 604.817721384 682.064937477 606.957692476 681.998018288 608.940934841 681.918748957 c 0
 626.661808283 681.56191565 644.637250234 681.623448295 661.346904773 682.299705036 c 0
 678.794561355 683.005829471 694.434913252 684.276258169 708.164984511 686.47690078 c 0
 713.161584301 687.379457042 719.022488421 688.531542541 724.420885013 689.719563383 c 1
 729.912865272 666.358899712 l 1
 724.52340861 665.010336367 718.332566274 663.800233365 712.003371795 662.785796164 c 0
 676.132905389 656.46832927 663.967453331 658.687112687 654.709590316 657.883497112 c 0
 648.669448687 657.359191246 647.84834703 657.903164205 637.685854256 644.799723628 c 0
 632.682328908 636.158723673 624.536201927 625.332336788 613.244817709 610.559549456 c 0
 552.37131952 523.384562616 469.907007442 401.597245774 404.003161445 308.195319732 c 1
 404.101040365 252.973330775 406.055097037 191.850423479 403.999068482 26.8504822047 c 0
 403.989711882 26.0995984749 403.984497214 25.2550499706 403.983765174 24.7923618444 c 1
 408.750005258 24.1376483782 418.266732245 23.8008090475 432.969486829 23.1071033041 c 0
 435.780483437 22.9816902126 438.751179527 22.8384329944 441.408192382 22.6988968755 c 0
 455.689677092 21.9488881036 470.033340084 20.8993273037 484.53145369 19.6149763074 c 1024
274.823322388 -8.38148815618 m 1
 269.753817617 -9.12120360366 264.462110458 -9.938350598 258.938231539 -10.8424346526 c 1
 255.05016733 12.8405300793 l 1
 262.191727924 14.0165625768 269.250923734 15.0872737402 276.238616797 16.0582502608 c 0
 277.229100114 16.1958831013 274.823322388 -8.38148815618 274.823322388 -8.38148815618 c 1
161.074779443 555.840543676 m 1
 147.000793569 572.541913611 132.775986377 589.586444118 118.569384278 606.812612674 c 0
 109.92188373 617.298110966 101.281124209 627.850914659 92.6851841213 638.43467085 c 0
 92.0320705204 639.238817348 90.967817264 640.572146884 90.1480334758 641.607829616 c 0
 81.6323330337 651.5637416 75.9432112783 657.050265481 71.8390350624 659.681269177 c 0
 67.7346329394 662.312417693 64.1919570933 663.32878463 56.5537221469 664.07993717 c 0
 52.9898746657 664.264690907 49.2193205106 664.469803855 46.0624810113 664.652572106 c 0
 41.9585837586 664.890171175 38.6991585049 665.089286112 34.8336934783 665.346177569 c 0
 25.9789462813 665.832753198 15.0661711409 666.576778171 1.66718020017 668.074246716 c 1
 4.24198821195 691.93555467 l 1
 13.2786718077 690.995216763 23.9787107631 690.112095882 36.2980070383 689.301920137 c 0
 40.932465783 689.047252824 44.7763536724 688.877108381 48.5779046953 688.677090349 c 0
 52.0873033243 688.492443871 55.1938313077 688.308208546 58.2770568046 688.023222 c 0
 76.7267941972 687.088337067 97.2682770761 686.344915378 117.941568216 685.926497758 c 0
 139.353187982 685.493136715 161.442143167 685.385411599 182.698956563 685.708331738 c 0
 216.672207478 686.551164739 242.47998062 688.059561701 263.945274276 689.9535582 c 1
 266.284844297 666.068982645 l 1
 242.741605 663.533624944 213.555666304 662.196000528 183.120715547 661.711673288 c 0
 164.180394121 661.252178174 142.696820733 661 118 661 c 0
 113.087268341 661 108.614423469 660.82395615 105.886621975 660.615668126 c 1
 106.676891547 659.502878531 107.694102966 658.147144741 108.793062067 656.729287593 c 0
 112.527792258 652.31547597 116.840177452 647.071384318 121.312565615 641.568098947 c 0
 126.883994132 634.712441536 132.468949949 627.877331632 138.056940653 621.072673227 c 0
 152.026922277 604.061021292 166.015855148 587.2397195 179.859944517 570.763239937 c 0
 180.503241392 569.997623107 161.074779443 555.840543676 161.074779443 555.840543676 c 1
EndSplineSet
Fore
SplineSet
271 663 m 1xb0
 271 663 196 658 145 658 c 0xd0
 117 658 118.801957857 655.661656134 136 634 c 0
 267 469.539215686 383 334.980392157 390 329 c 1
 500 487 605.448185729 638.672278594 609 644 c 0
 613 650 618 656 602 656 c 0
 563 656 511 661 481 665 c 1
 483 689 l 1
 506 685 568 681 628 681 c 3
 666 681 704 683 729 688 c 1xb0
 730 664 l 1
 658 650 651.707459739 662.207703507 639 644 c 0
 572 548 474 406 403 306 c 1
 403 253.194852941 403 195.411182378 403 35 c 0
 403 15 408 30 547 12 c 1
 544 -12 l 1
 489 -5 439 0 389 0 c 3
 343 0 298 -4 248 -12 c 1
 244 11 l 1
 377 29 379 16 379 38 c 2
 379 306 l 1
 329 362.832352941 206.896073577 505.756082877 97 645 c 0
 81.6611946055 664.435046927 72 660 7 664 c 1
 10 689 l 1
 45 685 113 681 174 681 c 3xd0
 212 681 247 683 269 687 c 1
 271 663 l 1xb0
EndSplineSet
Position2: "cpsp-1" dx=0 dy=0 dh=50 dv=100
Substitution2: "c2pc-1" y.pcap
Substitution2: "c2sc-1" y.smcp
EndChar

StartChar: Z
Encoding: 90 90 58
Width: 710
VWidth: 1159
Flags: HW
HStem: 1 40<168 560.424> 642 43<98.8077 540>
AnchorPoint: "Bottom" 357 -15 basechar 0
AnchorPoint: "Top" 366 699 basechar 0
LayerCount: 2
Back
SplineSet
49.5550104551 590.327766743 m 0
 46.809353569 583.68297712 43.7575885881 576.598739399 40.3454972166 569.048316988 c 0
 37.7207991141 563.24027224 34.8828804184 557.156325333 31.8069592391 550.783714731 c 1
 10.1713027012 561.171007137 l 1
 12.2664192262 565.558427625 14.2525971993 569.79385801 16.1366430017 573.882162369 c 0
 19.1982209901 580.525664676 21.1329458317 584.825688345 23.6844130018 590.713275022 c 0
 34.2570186905 615.086419542 39.8283776888 631.790589857 44.6613928519 646.42384657 c 0
 48.7650566189 658.848795249 51.6592374516 668.399153583 55.3315272297 676.595243034 c 0
 56.0394131186 678.265449736 56.8915964827 680.053277793 57.8120219163 681.630938601 c 0
 62.9170560509 690.792541297 70.824403017 697.949574664 81.2305931035 701.392610397 c 0
 87.2585273705 703.387038031 l 1
 92.2984759013 699.525347737 l 2
 102.497513413 691.710679806 120.785281151 685.910461981 135.426688519 683.143850767 c 0
 148.720548989 681.875380484 165.286091311 680.95971035 184.975460174 680.999974908 c 0
 673.297574876 681.99858864 l 1
 705.093682026 685.668322296 l 1
 701.714467307 682.056700894 l 2
 703.072760201 682.059478589 702.02995589 682.057346065 703.029953799 682.059391051 c 1
 682.626286791 661.655724042 l 1
 661.266866973 638.827302606 l 1
 602.088880628 577.672808021 l 2
 511.64838186 483.361000469 418.252767856 386.638454229 324.443257587 289.842396975 c 0
 264.489831939 227.980276546 204.332898696 166.052206435 144.602689709 104.633774461 c 0
 120.668967582 80.0235862619 92.5974432143 49.5941824311 67.3291302163 24.0037788202 c 1
 118.390895699 24.0165618273 169.879676089 24.0573186362 220.993585863 24.0794666469 c 0
 282.129326043 24.1059571861 343.272691318 24.1059614231 404.02014334 23.9999830936 c 0
 405.020141931 23.9983044819 403.10544422 24.0019024665 404.10544241 24 c 2
 503 24 l 0
 507.856462448 24 512.532867219 23.9773040224 516.979365197 23.9340080572 c 0
 519.548353064 23.980874112 522.239824094 24.0376601181 524.531863275 24.0955602478 c 0
 545.816801287 24.633247685 563.032057876 25.841408071 577.000993833 28.1951273673 c 0
 606.264306976 33.1258984031 621.091510056 42.1228643286 635.095231561 62.2709556499 c 0
 643.023283571 73.6775746576 650.570597737 89.0778189661 658.984480538 109.541694634 c 0
 663.645356445 121.642007989 668.965336569 135.424134524 674.827694064 150.379449745 c 1
 697.235886549 141.786349153 l 1
 691.603123391 126.766336796 686.291969369 112.887672929 681.278962359 100.651415966 c 0
 672.941772431 79.0036799211 666.331278957 61.7564829906 660.130396443 46.7835700213 c 0
 651.906613823 26.926076965 644.293589896 10.8422545664 634.344915187 -6.08134276078 c 0
 629.790209508 -13.8293099121 l 1
 621.073927683 -11.6377876246 l 0
 608.76971228 -8.5441563234 599.988764179 -5.49864538601 579.543988722 -3.16459754556 c 0
 565.738600147 -1.5885255824 545.914443013 -0.390942690357 517.098061342 -0.0675187668664 c 0
 502.331660472 -0.323491538517 485.903117486 -0.332077723785 467.716135354 -0.264043841628 c 0
 448.663689493 -0.192772431829 427.531772667 -0.0395176700804 403.97985666 1.69064345337e-005 c 0
 402.979858069 0.00169551809419 403.985001935 7.90402707393e-006 402.985003457 0.00175247379427 c 1025
9.68926773474 8.81239525796e-016 m 0
 7.86515700703 0 l 1
 29.5596934281 20.5340856544 l 1
 584.80411868 594.323332205 l 2
 598.392114754 608.492962937 611.750985399 622.438824616 625.198577726 636.493431909 c 0
 631.474120801 643.052248633 637.997660579 649.874134883 644.371619774 656.543215924 c 1
 589.139206529 656.655876925 476.739164368 656.652004101 373.15898485 656.676392808 c 0
 266.511792736 656.701503666 169.37456686 656.753646633 152.820465945 657.001343095 c 0
 147.870139972 657.07541406 140.588308917 657.846359794 132.057119008 659.360406594 c 0
 106.934041759 661.89216646 91.2290498957 665.861368114 82.5387904021 667.578275845 c 0
 80.536682441 667.973826132 78.6895944828 668.259479886 77.8843093296 668.348942528 c 1
 74.7603774324 660.677318168 73.2524634024 654.519269161 68.5435644917 640.315583841 c 0
 63.0906879238 623.867801816 54.6636791829 600.612809787 40.0624111529 568.488750916 c 1024
615.519191647 14.6141554599 m 1
 616.43650944 14.3788110287 616.831701407 14.2766212586 618.132048344 13.9362027724 c 1
 618.471692861 14.5543827799 619.119667662 15.7388365831 619.595711518 16.61935204 c 1
 618.380149966 15.9911353793 616.779478741 15.2045537483 615.519191647 14.6141554599 c 1
EndSplineSet
Fore
SplineSet
12 563 m 1
 60 662 45 691 88 704 c 1
 103 687 137 681 169 681 c 0
 200 681 542 681 645 682 c 0
 657 682 666 681 671 681 c 1
 683 662 l 1
 663 640 l 0
 68 24 l 1
 214 24 362 24 508 24 c 0
 643 24 614 -12 675 149 c 1
 698 141 l 1
 664 57 653 24 630 -14 c 1
 608 -8 591 0 503 0 c 0
 352 0 108 0 29 0 c 1
 24 15 l 1
 53 44 90 83 120 114 c 0
 293 292 470 475 640 652 c 0
 644 656 l 1
 166 657 l 2
 54 657 100 706 32 551 c 1
 12 563 l 1
EndSplineSet
Position2: "cpsp-1" dx=0 dy=0 dh=50 dv=100
Substitution2: "c2pc-1" z.pcap
Substitution2: "c2sc-1" z.smcp
EndChar

StartChar: parenleft
Encoding: 40 40 59
Width: 383
VWidth: 1515
Flags: W
VStem: 37 60<49.4585 379.9>
LayerCount: 2
Fore
SplineSet
332 729 m 1
 343 707 l 1
 152.838979167 609.513529762 61 416.99275 61 214 c 3
 61 14.1514803536 142.432841379 -169.973108055 345 -285 c 1
 333 -305 l 1
 140.854703448 -198.169337917 37 -19.8019546169 37 214 c 3
 37 447.264345238 148.133333333 636.048839286 332 729 c 1
EndSplineSet
Position2: "cpsp-1" dx=0 dy=0 dh=50 dv=100
Position2: "'case' vertical ajustments for all-caps-1" dx=0 dy=125 dh=0 dv=0
EndChar

StartChar: zero
Encoding: 48 48 63
Width: 502
VWidth: 1159
Flags: HW
HStem: 1 33<197.15 313.348> 358 36<174.377 296.898>
VStem: 49 73<109.281 280.474> 362 79<105.768 284.433>
LayerCount: 2
Fore
SplineSet
248 376 m 3
 154 376 73 291 73 194 c 3
 73 98 151 19 249 19 c 3
 346 19 417 97 417 194 c 3
 417 294 341 376 248 376 c 3
248 400 m 3
 356 400 441 306 441 194 c 3
 441 85 360 -5 249 -5 c 3
 138 -5 49 85 49 194 c 3
 49 304 139 400 248 400 c 3
EndSplineSet
Substitution2: "'zero' Slashed Zero lookup 22-1" zero.alt
Substitution2: "dnom-1" zero.denom
Substitution2: "numr-1" zero.numerator
Substitution2: "lnum-1" zero.proportionallining
Substitution2: "tnum-1" zero.tabulartext
EndChar

StartChar: one
Encoding: 49 49 64
Width: 371
VWidth: 1159
Flags: HW
HStem: 0 26<70 121.33 233.02 288> 369 23<80 132.532> 379 23<243.588 282.609>
VStem: 151 61<44.4318 360.804>
LayerCount: 2
Fore
SplineSet
98 398 m 5xd0
 142 394 216 395 263 408 c 5
 267 384 l 5xb0
 199 372 193 374 193 334 c 4
 193 325 193 252 193 200 c 7
 193 141 193 64 193 47 c 4
 193 22 193 25 271 18 c 5
 269 -6 l 5
 207 0 150 1 88 -6 c 5
 87 18 l 5
 168 25 169 24 169 51 c 4
 169 61 169 86 169 200 c 7
 169 303 170 326 170 332 c 4
 170 372 170 370 98 374 c 5
 98 398 l 5xd0
EndSplineSet
Substitution2: "dnom-1" one.denom
Substitution2: "numr-1" one.numerator
Substitution2: "tnum-1" one.tabulartext
Substitution2: "lnum-1" one.proportionallining
EndChar

StartChar: two
Encoding: 50 50 65
Width: 445
VWidth: 1159
Flags: HW
HStem: -11 21G<353 372.5> 2 64<121 368.376> 405 53<115.723 234.173>
VStem: 260 68<263.541 378.966>
LayerCount: 2
Fore
SplineSet
54 367 m 5x70
 81 414 121 458 190 458 c 4
 267 458 329 405 329 335 c 7
 329 196 95 50 74 23 c 5x70
 337 24 l 6
 350 24 372 83 412 129 c 5
 431 113 l 5
 431 113 377 47 374 0 c 5xb0
 339 0 263 1 187 0 c 4
 97 -1 38 -1 33 -1 c 5
 27 18 l 5
 99 78 305 217 305 335 c 7
 305 397 246 434 190 434 c 4
 133 434 99 397 74 353 c 5
 54 367 l 5x70
EndSplineSet
Substitution2: "dnom-1" two.denom
Substitution2: "numr-1" two.numerator
Substitution2: "tnum-1" two.tabulartext
Substitution2: "lnum-1" two.proportionallining
EndChar

StartChar: three
Encoding: 51 51 66
Width: 388
VWidth: 1159
Flags: HW
HStem: -234 26<98.3077 116.651> 122 26<93 117.144> 402 52<130.681 219.829>
VStem: 236 67<266.659 384.313> 251 72<-77.1723 66.4688>
LayerCount: 2
Fore
SplineSet
101 -217 m 1xe8
 237 -167 292 -71 292 7 c 3xe8
 292 80 221 125 162 147 c 1
 157 147 122 126 96 122 c 1
 90 145 l 1
 162 165 272 227 272 345 c 3
 272 414 211 436 188 436 c 3
 150 436 109 402 92 371 c 1
 74 385 l 1
 83 415 139 460 186 460 c 3
 245 460 296 413 296 346 c 3xf0
 296 227 195 166 191 162 c 1
 243 140 316 90 316 6 c 3
 316 -146 150 -233 109 -240 c 1
 101 -217 l 1xe8
EndSplineSet
Substitution2: "dnom-1" three.denom
Substitution2: "numr-1" three.numerator
Substitution2: "tnum-1" three.tabulartext
Substitution2: "lnum-1" three.proportionallining
EndChar

StartChar: four
Encoding: 52 52 67
Width: 463
VWidth: 1159
Flags: HW
HStem: -7 21G<403.519 423.775> 0 46<56.3721 256 317 407.937> 402 20G<309.934 344>
VStem: 256 61<-178.286 0 45.5 270.662> 320 24<404.437 413.313>
LayerCount: 2
Fore
SplineSet
278 22 m 1x78
 278 127 278 242 278 313 c 1
 278 313 139 135 40 22 c 1
 278 22 l 1x78
341 406 m 1
 326 377 302 347 302 338 c 0
 302 217 302 160 302 23 c 1x78
 406 24 395 17 434 100 c 1
 434 100 450 92 455 90 c 1
 455 90 429 31 410 -7 c 1xb8
 394 1 333 0 302 0 c 1
 301 -180 290 -167 318 -180 c 1
 282 -204 262 -226 249 -252 c 1
 249 -252 229 -247 226 -244 c 1
 255 -163 277 -250 278 0 c 1
 55 0 20 1 8 -14 c 1
 8 -14 -6 -2 -10 1 c 1
 5 17 297 361 318 415 c 1
 341 406 l 1
EndSplineSet
Substitution2: "dnom-1" four.denom
Substitution2: "numr-1" four.numerator
Substitution2: "tnum-1" four.tabulartext
Substitution2: "lnum-1" four.proportionallining
EndChar

StartChar: five
Encoding: 53 53 68
Width: 362
VWidth: 1159
Flags: HW
HStem: 326 72<120.63 288.458>
VStem: 246 63<-40.6381 97.0244>
LayerCount: 2
Fore
SplineSet
97 394 m 5
 157 396 236 396 250 398 c 4
 282 402 299 428 313 448 c 5
 313 448 329 437 333 434 c 5
 311 398 275 373 256 372 c 4
 228 371 179 370 122 370 c 5
 122 370 114 285 108 218 c 5
 188 223 302 171 302 48 c 7
 302 -95 153 -204 50 -213 c 5
 50 -213 50 -193 49 -188 c 5
 144 -179 278 -79 278 48 c 7
 278 117 227 206 79 193 c 5
 86 239 94 321 97 394 c 5
EndSplineSet
Substitution2: "dnom-1" five.denom
Substitution2: "numr-1" five.numerator
Substitution2: "tnum-1" five.tabulartext
Substitution2: "lnum-1" five.proportionallining
EndChar

StartChar: six
Encoding: 54 54 69
Width: 487
VWidth: 1159
Flags: HW
HStem: -10 40<223.82 328.156> 320 44<211.153 311.825>
VStem: 68 72<129.031 347.68> 372 64<95.8203 248.065>
LayerCount: 2
Fore
SplineSet
362 635 m 1
 370 613 l 1
 196 551 92 395 92 214 c 3
 92 123 149 8 254 8 c 3
 340 8 412 98 412 178 c 3
 412 276 347 346 271 346 c 3
 218 346 169 313 143 244 c 1
 121 252 l 1
 144 321 201 370 271 370 c 3
 371 370 436 282 436 178 c 3
 436 80 350 -16 254 -16 c 3
 135 -16 68 107 68 214 c 3
 68 421 190 576 362 635 c 1
EndSplineSet
Substitution2: "dnom-1" six.denom
Substitution2: "numr-1" six.numerator
Substitution2: "tnum-1" six.tabulartext
Substitution2: "lnum-1" six.proportionallining
EndChar

StartChar: seven
Encoding: 55 55 70
Width: 420
VWidth: 1159
Flags: HW
HStem: 339 67<81.377 333.466> 407 20G<54 81>
LayerCount: 2
Fore
SplineSet
81 419 m 5
 79 414 78 414 114 414 c 0
 233 414 406 414 420 414 c 1
 429 394 l 1
 410 362 177 -61 114 -174 c 1
 93 -162 l 1
 198 28 282 182 397 387 c 0
 398 389 397 390 396 390 c 0
 297 390 285 390 135 390 c 0
 64 390 75 390 35 289 c 1
 13 297 l 1
 18 315 51 393 57 423 c 1
 81 419 l 5
EndSplineSet
Substitution2: "dnom-1" seven.denom
Substitution2: "numr-1" seven.numerator
Substitution2: "tnum-1" seven.tabulartext
Substitution2: "lnum-1" seven.proportionallining
EndChar

StartChar: eight
Encoding: 56 56 71
Width: 468
VWidth: 1159
UnlinkRmOvrlpSave: 1
Flags: HW
HStem: -7 34<188.562 300.068> 601 30<170.77 259.56>
VStem: 55 66<92.7065 220.453> 86 44<449.749 557.966> 313 57<427.637 550.637> 339 66<77.2167 214.897>
LayerCount: 2
Fore
SplineSet
222 613 m 3xe8
 150 613 110 542 110 484 c 3
 110 351 405 322 405 155 c 3xd4
 405 52 321 -13 215 -13 c 3
 122 -13 55 48 55 133 c 3
 55 354 346 329 346 497 c 3
 346 548 310 613 222 613 c 3xe8
222 637 m 3
 308 637 370 578 370 497 c 3
 370 308 79 338 79 133 c 3xe8
 79 73 122 11 215 11 c 3
 347 11 381 106 381 147 c 3
 381 237 314 267 229 321 c 0
 161 364 86 407 86 484 c 3
 86 568 145 637 222 637 c 3
EndSplineSet
Substitution2: "dnom-1" eight.denom
Substitution2: "numr-1" eight.numerator
Substitution2: "lnum-1" eight.proportionallining
Substitution2: "tnum-1" eight.tabulartext
EndChar

StartChar: uniFB00
Encoding: 64256 64256 73
Width: 642
VWidth: 1159
Flags: HW
HStem: -6 39<34 100.133 318.611 384.133 475.174 568.568> 1 32<191.619 269.028 475.619 566.018> 360 37<39 113 187 399 471 624> 669 55<273.933 387.321> 701 55<557.254 661.117>
VStem: 114 71<42.7113 360 397 588.557> 400 69<44.5312 360 397 610.446>
LayerCount: 2
Back
SplineSet
455.23046875 680.481445312 m 5
 465.168954609 693.744874847 475.895405706 705.914718575 488 717 c 4
 511.13320356 738.185185185 553.560344828 769 605 769 c 4
 652 769 697 752 720 731 c 5
 705 713 l 5
 674 737 632 745 605 745 c 4
 539.252873563 745 429 666 429 505 c 4
 429 495 429 448 429 413 c 5
 496.585227273 413 556.414772727 413 624 413 c 5
 624 389 l 5
 557.522727273 389 495.477272727 389 429 389 c 5
 429 349 429 317 429 300 c 4
 429 208.99450566 428 124 428 36 c 4
 428 26 428 26.3487318841 439 26 c 4
 470.542857143 25 499.457142857 23 531 21 c 5
 527 -3 l 5
 494.573033708 1 448.426966292 2 416 2 c 4
 395 2 363 -1 342 -5 c 5
 338 19 l 5
 353 21 371.102116655 22.8877645819 388 25 c 4
 404 27 404 26 404 63 c 4
 404 122 405 198.993243552 405 273 c 4
 405 298 405 343 405 389 c 5
 371.3125 389 340.6875 389 307 389 c 4
 252.113636364 389 200.886363636 389 146 389 c 5
 146 349 146 317 146 300 c 4
 146 208.99450566 145 124 145 36 c 4
 145 26 145 26.4583333333 156 26 c 4
 180 25 202 23 226 21 c 5
 222 -3 l 5
 196 1 159 2 133 2 c 4
 112 2 80 -1 59 -5 c 5
 55 19 l 5
 70 21 88.1021166551 22.8877645819 105 25 c 4
 121 27 121 26 121 63 c 4
 121 122 122 198.993243552 122 273 c 4
 122 298 122 343 122 389 c 5
 100 389 80 389 58 389 c 5
 58 413 l 5
 80 413 100 413 122 413 c 5
 122 448 122 489 122 500 c 4
 122 592.093023256 155.197376225 640.931342301 201 680 c 4
 226.314342829 701.592592593 270.482758621 733 325 733 c 4
 376.934350865 733 426.799914292 710.00737309 455.23046875 680.481445312 c 5
405 413 m 5
 405 448 405 489 405 500 c 4
 405 571.292427784 419.314718236 621.131858779 441.93359375 660.178710938 c 5
 404.743570461 696.664279037 356.493494608 709 325 709 c 4
 258.132183908 709 146 641.85 146 505 c 4
 146 495 146 448 146 413 c 5
 201.801136364 413 251.198863636 413 307 413 c 4
 340.6875 413 371.3125 413 405 413 c 5
EndSplineSet
Fore
SplineSet
405 413 m 5
 405 448 405 489 405 500 c 4
 405 571.292427784 419.314718236 621.131858779 441.93359375 660.178710938 c 5
 404.743570461 696.664279037 356.493494608 709 325 709 c 4
 258.132183908 709 146 641.85 146 505 c 4
 146 495 146 448 146 413 c 5
 201.801136364 413 251.198863636 413 307 413 c 4
 340.6875 413 371.3125 413 405 413 c 5
455.23046875 680.481445312 m 1
 465.168954609 693.744874847 475.895405706 705.914718575 488 717 c 0
 511.13320356 738.185185185 553.560344828 769 605 769 c 0
 652 769 697 752 720 731 c 1
 705 713 l 1
 674 737 632 745 605 745 c 0
 539.252873563 745 429 666 429 505 c 0
 429 495 429 448 429 413 c 1
 496.585227273 413 556.414772727 413 624 413 c 1
 624 389 l 1
 557.522727273 389 495.477272727 389 429 389 c 1
 429 349 429 317 429 300 c 0
 429 208.99450566 428 124 428 36 c 0
 428 26 428 26.3487318841 439 26 c 0
 470.542857143 25 499.457142857 23 531 21 c 1
 527 -3 l 1
 494.573033708 1 448.426966292 2 416 2 c 0
 395 2 363 -1 342 -5 c 1
 338 19 l 1
 353 21 371.102116655 22.8877645819 388 25 c 0
 404 27 404 26 404 63 c 0
 404 122 405 198.993243552 405 273 c 0
 405 298 405 343 405 389 c 1
 371.3125 389 340.6875 389 307 389 c 0
 252.113636364 389 200.886363636 389 146 389 c 1
 146 349 146 317 146 300 c 0
 146 208.99450566 145 124 145 36 c 0
 145 26 145 26.4583333333 156 26 c 0
 180 25 202 23 226 21 c 1
 222 -3 l 1
 196 1 159 2 133 2 c 0
 112 2 80 -1 59 -5 c 1
 55 19 l 1
 70 21 88.1021166551 22.8877645819 105 25 c 0
 121 27 121 26 121 63 c 0
 121 122 122 198.993243552 122 273 c 0
 122 298 122 343 122 389 c 1
 100 389 80 389 58 389 c 1
 58 413 l 1
 80 413 100 413 122 413 c 1
 122 448 122 489 122 500 c 0
 122 592.093023256 155.197376225 640.931342301 201 680 c 0
 226.314342829 701.592592593 270.482758621 733 325 733 c 0
 376.934350865 733 426.799914292 710.00737309 455.23046875 680.481445312 c 1
EndSplineSet
Substitution2: "salt-1" uniFB00.alt
LCarets2: 1 311
Ligature2: "liga-1" f f
EndChar

StartChar: question
Encoding: 63 63 74
Width: 378
VWidth: 1159
Flags: W
HStem: -21 140<96.678 139.536> 680.8 20G<23 62.5>
VStem: 49 141<25.3087 69.9365> 110 18<184.428 224.678> 274 27<382.756 487.933>
LayerCount: 2
Fore
SplineSet
38 621.200195312 m 1xd8
 38.1081984255 627.762728233 38.1591796875 633.972002314 38.1591796875 639.849609375 c 0
 38.1591796875 655.598163308 26.533203125 678.105768051 26.533203125 682.963867188 c 0
 26.533203125 685.79512718 31.0000394605 696.15090633 50 702 c 1
 60.9634782609 655.119148936 68.5890567821 654 98 654 c 3
 206.171374302 654 301 570.774798197 301 444.799804688 c 3
 301 276.805234066 150.929 263.541866834 132 257.799804688 c 0
 132 257.799804688 132 220.862143027 132 179 c 1
 132 179 114.408 178.799804688 108 178.799804688 c 1
 108 202.70115019 107.905273438 227.368598934 107.905273438 245 c 3
 107.905273438 264.126565816 107.891929 276.765012002 108 276.799804688 c 0
 151 288.48116062 277 297.794109772 277 444.799804688 c 3
 277 556.928682081 191.140276032 628.908203125 99.8427734375 628.908203125 c 3
 79.2688070345 628.908203125 58.496856659 626.398633614 38 621.200195312 c 1xd8
EndSplineSet
Refer: 48 46 N 1 0 0 1 18 0 2
Position2: "cpsp-1" dx=0 dy=0 dh=50 dv=100
Substitution2: "smcp-1" question.smcp
Substitution2: "pcap-1" question.pcap
EndChar

StartChar: exclam
Encoding: 33 33 75
Width: 266
VWidth: 1159
Flags: HW
HStem: -21 140<101.678 144.536>
VStem: 54 141<25.3087 69.9365> 109 45<209 415.199>
LayerCount: 2
Fore
SplineSet
121 208 m 1xa0
 121 338.401234568 121 436.703703704 121 533 c 0
 121 579.223 121 602.826 121 652 c 1
 145 652 l 1
 145 618.530745763 145 625.93457206 145 533 c 0
 145 408 145 342 145 208 c 1
 121 208 l 1xa0
EndSplineSet
Refer: 48 46 N 1 0 0 1 23 0 2
Substitution2: "pcap-1" exclam.pcap
Substitution2: "smcp-1" exclam.smcp
Position2: "cpsp-1" dx=0 dy=0 dh=50 dv=100
EndChar

StartChar: paragraph
Encoding: 182 182 76
Width: 591
VWidth: 1159
UnlinkRmOvrlpSave: 1
Flags: HW
LayerCount: 2
Fore
SplineSet
278 681 m 1
 302 681 l 1
 294 46 l 1
 270 46 l 1
 278 681 l 1
553 745 m 1
 555 721 l 1
 504.697674418 715.625 338.483334532 701.484725739 246 635 c 0
 189.882528042 594.658085955 160 558.989673206 160 373 c 3
 160 171.4 176.377681441 129.06932713 245 85 c 0
 278.154205607 63.7083333333 332.406542056 40.3888888889 460 12 c 1
 456 -12 l 1
 256.91811559 30.6812636847 219.585983758 65.1983214358 164 125 c 0
 101.495145631 192.245283019 69.167953881 275.438954779 53 341 c 0
 49.8310679548 353.850017921 47.2734375 364.521380974 47.2734375 375.455078125 c 3
 47.2734375 383.51802117 48.3472105587 391.819049863 52 401 c 0
 83.1538461538 479.302325582 137.33983685 587.921485559 241 660 c 0
 344.324675325 731.845238095 553 745 553 745 c 1
EndSplineSet
Position2: "cpsp-1" dx=0 dy=0 dh=50 dv=100
EndChar

StartChar: ampersand
Encoding: 38 38 78
Width: 676
VWidth: 1159
Flags: W
HStem: -11 57<161.575 299.635 513.09 600.584> 461 35<584.895 645> 492 33<480.667 506.511>
VStem: 17 72<119.103 262.82> 81 38<475.664 567.366> 289 62<462.542 556.254>
LayerCount: 2
Fore
SplineSet
217.5 389.599609375 m 1x94
 106.601725995 346.266042881 41 267.794563325 41 172 c 3
 41 79.0881694915 108.687529412 7 199 7 c 3
 304.243420824 7 365.885338395 101.96557454 415.5 167.599609375 c 1
 347 306 258.391669811 372.001346663 217.5 389.599609375 c 1x94
233.5 626.599609375 m 3
 202.995561584 626.599609375 105 595 105 506 c 3
 105 458.512517756 172.320923695 433.145152699 216.5 415.599609375 c 1
 283.0154 451.015170779 315.5 487.807390077 315.5 516.599609375 c 3xac
 315.5 600.521248719 259.630510638 626.599609375 233.5 626.599609375 c 3
618.5 479.400390625 m 1xcc
 588.613858156 479.400390625 559.475855021 479.732851922 558 473 c 0
 535.097780454 368.520053979 503.63692038 252.693341648 445.5 165.599609375 c 1
 464.4 120 489.115099548 13 540 13 c 3
 593.065741667 13 628.921291667 74.25 649 113 c 1
 671 103 l 1
 632.745816667 33.3893626168 600.597325 -11 540 -11 c 3
 477.63255493 -11 454.12987013 69.7389943184 426 142 c 1
 395.941324499 100.906621244 323.676672451 -17 199 -17 c 3
 94.0000494118 -17 17 65.1475847458 17 172 c 3xd4
 17 285.68466348 95.2398275862 358.818867094 184.5 401.599609375 c 1
 128.04553012 422.805812511 81 458.693699207 81 506 c 3
 81 597.142879433 156 632.72731303 231 660 c 1
 307.853979275 632.258811324 339.5 587.836832567 339.5 516.599609375 c 3
 339.5 485.336232182 315.513527273 443.872214638 243.5 403.599609375 c 1
 285.67115903 385.496193449 391.607650943 284.606896153 432 188 c 1
 476.032118952 262.00510597 516.988572881 374.794720583 535 480 c 0
 536.441779508 488.421476821 505.092654867 492.771763393 487.5 498.400390625 c 1
 494 522 l 1xac
 525.564346457 511.517 580.425070866 502.345 618 503 c 1
 618.5 479.400390625 l 1xcc
EndSplineSet
Substitution2: "pcap-1" ampersand.pcap
Substitution2: "smcp-1" ampersand.smcp
Position2: "cpsp-1" dx=0 dy=0 dh=50 dv=100
EndChar

StartChar: quotesingle
Encoding: 39 39 79
Width: 200
VWidth: 1159
Flags: W
HStem: 451.7 242<86 110>
VStem: 86 24<451.7 693.7>
LayerCount: 2
Fore
SplineSet
86 693.7 m 1
 110 693.7 l 1
 110 451.7 l 1
 86 451.7 l 1
 86 693.7 l 1
EndSplineSet
Position2: "cpsp-1" dx=0 dy=0 dh=7 dv=14
EndChar

StartChar: bracketleft
Encoding: 91 91 85
Width: 246
VWidth: 1515
Flags: W
HStem: -230 33<159.267 219> 685 32<163 219>
VStem: 37 54<-182 669>
LayerCount: 2
Fore
SplineSet
61 687 m 1
 61 -200 l 1
 219 -200 l 1
 219 -224 l 1
 37 -224 l 1
 37 711 l 1
 219 711 l 1
 219 687 l 1
 61 687 l 1
EndSplineSet
Position2: "cpsp-1" dx=0 dy=0 dh=50 dv=100
Position2: "'case' vertical ajustments for all-caps-1" dx=0 dy=90 dh=0 dv=0
EndChar

StartChar: asterisk
Encoding: 42 42 87
Width: 362
VWidth: 1159
Flags: W
HStem: 402 21G<232.5 263.5>
VStem: 135 79<610.995 694.668>
LayerCount: 2
Fore
SplineSet
187.995183915 518.485299444 m 1
 163.965087297 478.12937399 148.949705885 454.551010783 117.235017439 402.735463464 c 1
 96.7583782659 415.253733625 l 1
 128.136573522 466.641212813 141.760084156 487.893199826 167.90214956 531.701034584 c 1
 120.246889807 543.456600447 92.4880012019 551.054346655 35.8578694336 566.418678163 c 1
 42.0977275361 589.59327754 l 1
 99.2319679878 574.326989875 128.546168706 566.461696381 173.21131494 555.204472054 c 1
 168.889145936 608.735308986 165.818906068 637.818365985 161.540109745 690.019681127 c 1
 185.455932415 692.027462942 l 1
 190.027241183 638.834051823 192.986605419 611.967820224 197.232425817 556.872369998 c 1
 248.980794414 578.139526085 269.788025067 587.154873816 323.81821159 610.049020648 c 1
 333.202344782 587.959712252 l 1
 284.222827792 567.098066127 256.825221337 555.025252898 206.137704962 534.480921836 c 1
 239.889018653 493.305036394 258.377664994 471.648632828 294.030920336 430.902055294 c 1
 276.031088176 415.027633934 l 1
 239.722718085 455.874550286 221.342486895 477.237899984 187.995183915 518.485299444 c 1
EndSplineSet
EndChar

StartChar: Acute
Encoding: 58018 58018 90
Width: 222
VWidth: 1159
Flags: HW
AnchorPoint: "Top" 64 699 mark 0
LayerCount: 2
Fore
SplineSet
26.8935546875 775.611328125 m 1
 83 810.528320312 181.041015625 862.290039062 244.216796875 874.21875 c 1
 251.599609375 848.834960938 l 1
 195.624023438 836.342773438 119.79296875 801.999023438 40.8359375 753.045898438 c 1
 26.8935546875 775.611328125 l 1
EndSplineSet
EndChar

StartChar: acutecomb
Encoding: 769 769 92
Width: 0
VWidth: 1159
Flags: HW
HStem: 427.951 225.517
VStem: -234.611 169.822
AnchorPoint: "TopMark" -216 403 mark 0
AnchorPoint: "Top" -198.5 402 mark 0
AnchorPoint: "TopMark" -191 616 basemark 0
LayerCount: 2
Fore
SplineSet
-232 445 m 5
 -202.9084375 504.946915 -147.703125 602.325 -102 648 c 5
 -84 632 l 5
 -123.584671875 589.99763 -168.976171875 519.21356 -210 435 c 5
 -232 445 l 5
EndSplineSet
EndChar

StartChar: uni0302
Encoding: 770 770 93
Width: 0
VWidth: 1159
Flags: HW
HStem: 422.6 184.8
VStem: -310.25 225.5
AnchorPoint: "TopMark" -198.5 587 basemark 0
AnchorPoint: "TopMark" -200.5 384 mark 0
AnchorPoint: "Top" -198.5 401 mark 0
LayerCount: 2
Fore
SplineSet
-83 436 m 5
 -103.549804688 423.599609375 l 5
 -198 584 l 5
 -291.450195312 423.599609375 l 5
 -312 436 l 5
 -211 608 l 5
 -184 608 l 5
 -83 436 l 5
EndSplineSet
EndChar

StartChar: gravecomb
Encoding: 768 768 94
Width: 0
VWidth: 1159
Flags: HW
HStem: 430.175 225.516
VStem: -337.486 169.82
AnchorPoint: "TopMark" -195 625 basemark 0
AnchorPoint: "Top" -198.5 409 mark 0
AnchorPoint: "TopMark" -196 410 mark 0
LayerCount: 2
Fore
SplineSet
-169 445 m 5
 -191 435 l 5
 -232.023828125 519.21356 -277.415328125 589.998615 -317 632 c 5
 -299 648 l 5
 -253.296875 602.325 -198.0915625 504.9459 -169 445 c 5
EndSplineSet
EndChar

StartChar: Grave
Encoding: 58019 58019 96
Width: 222
VWidth: 1159
Flags: HW
AnchorPoint: "Top" 64 699 mark 0
LayerCount: 2
Fore
SplineSet
120.67578125 773.85546875 m 1
 106.732421875 751.290039062 l 1
 27.7763671875 800.2421875 -48.056640625 834.586914062 -104.03125 847.079101562 c 1
 -96.6474609375 872.462890625 l 1
 -33.47265625 860.533203125 64.568359375 808.771484375 120.67578125 773.85546875 c 1
EndSplineSet
EndChar

StartChar: uni030A
Encoding: 778 778 98
Width: 0
VWidth: 1159
Flags: HW
HStem: 425.265 31.606<-232.945 -164.224> 545.129 31.606<-231.776 -163.399>
VStem: -275.22 32.227<467.081 533.825> -153.007 32.227<468.175 534.808>
AnchorPoint: "TopMark" -200.5 382 mark 0
AnchorPoint: "TopMark" -198.5 562 basemark 0
AnchorPoint: "Top" -198.5 395 mark 0
LayerCount: 2
Fore
SplineSet
-198 549.015625 m 7
 -223.541401079 549.015625 -247.190429688 528.202937421 -247.190429688 499.823242188 c 7
 -247.190429688 471.719444244 -224.487587314 452.984375 -198 452.984375 c 7
 -172.458598921 452.984375 -148.809570312 473.797062579 -148.809570312 502.176757812 c 7
 -148.809570312 528.406650806 -171.512412686 549.015625 -198 549.015625 c 7
-198 572.831054688 m 7
 -158.690572544 572.831054688 -124.99609375 541.740867115 -124.99609375 502.172851562 c 7
 -124.99609375 460.054753069 -160.09430971 429.168945312 -198 429.168945312 c 7
 -237.309427456 429.168945312 -271.00390625 457.431985647 -271.00390625 499.827148438 c 7
 -271.00390625 541.944050224 -235.90569029 572.831054688 -198 572.831054688 c 7
EndSplineSet
EndChar

StartChar: uni031B
Encoding: 795 795 99
Width: 0
VWidth: 1159
Flags: HW
HStem: 330 18<-84.5 -47.4434>
VStem: 12.8818 62.7432<400.38 466.056>
AnchorPoint: "Horn" -73.5 341.8 mark 0
LayerCount: 2
Back
SplineSet
66.4668379885 414.532495416 m 0
 41.9737613975 371.772402485 -26.5792877237 327.356345727 -84.426126662 327.000227388 c 1
 -84.9207017012 350.992623153 l 1
 -35.6713492601 352.720292411 25.597486292 391.258991374 44.7415400977 424.873953712 c 0
 48.0280905955 429.959897141 49.1020602034 432.888866022 50.3658068409 437.078344315 c 0
 51.2414520763 439.981217881 51.625 442.561535586 51.625 444.775390625 c 0
 51.625 446.859062423 51.4969815566 448.946300359 51.2517752338 450.969842259 c 1024
75.0881183864 453.766789697 m 0
 75.1782589448 453.039454505 75.2568284058 452.306362203 75.3240196515 451.567708724 c 0
 75.5255896545 449.351789335 75.625 447.085658211 75.625 444.775390625 c 0
 75.625 432.523550327 70.6998251566 420.680437463 63.4089215298 409.553800431 c 1024
51.6019602208 446.369839067 m 2
 51.566701984 447.576651992 51.5290116096 448.054277574 51.4008747775 449.761665148 c 1
 50.5701620589 456.464603371 49.8057361437 458.13355764 48.4019611249 460.496566913 c 0
 46.7531553737 463.27204249 46.7947508892 465.046399288 39.6289995906 460.554909017 c 0
 10.191696195 442.103618106 l 1
 21.9660244354 474.789550278 l 0
 25.1067634323 483.508347625 32.6790648872 492.322265625 44.20703125 492.322265625 c 0
 66.2501964008 492.322265625 73.2572173571 468.878564145 75.3103848748 451.934994128 c 1
 75.7056524375 446.218039724 75.5697483813 448.608566217 75.6136053655 446.085523029 c 0
 51.6019602208 446.369839067 l 2
EndSplineSet
Fore
SplineSet
51 445 m 3
 51 464.415444558 46.0236925263 472.412018207 27.3740234375 474.837890625 c 1
 27.8304353016 485.569942673 33.751612237 492.322265625 45.20703125 492.322265625 c 3
 54.572752193 492.322265625 75.625 481.857421875 75.625 444.775390625 c 3
 75.625 399.205078125 -15.2378927954 330.428 -84.5 330 c 1
 -85 348 l 1
 -24.4033007034 350.123174069 51 407.343743613 51 445 c 3
EndSplineSet
EndChar

StartChar: tildecomb
Encoding: 771 771 100
Width: 0
VWidth: 1159
Flags: HW
HStem: 421.645 21G<-344.926 -307.255> 434.053 60<-213.463 -120.137> 471.391 59.446<-293.306 -199.999>
VStem: -344.926 273.107
AnchorPoint: "TopMark" -214 389 mark 0
AnchorPoint: "TopMark" -198.5 538 basemark 0
AnchorPoint: "Top" -210 382 mark 0
LayerCount: 2
Fore
SplineSet
-339.5 442.5 m 5
 -309.76848744 483.602179806 -289.372519077 514.836914062 -260.112304688 514.836914062 c 7
 -223.48671737 514.836914062 -176.640820598 474.051757812 -145.9921875 474.051757812 c 7
 -139.88252135 474.051757812 -113.105833786 503.845254617 -98 539 c 5
 -76 528 l 5
 -95.3698821475 488.626253369 -121.43273975 450.051757812 -143.9921875 450.051757812 c 7
 -182.81585589 450.051757812 -235.200175967 490.836914062 -263.111328125 490.836914062 c 7
 -269.765420687 490.836914062 -292 468 -320 429 c 5
 -339.5 442.5 l 5
EndSplineSet
EndChar

StartChar: uni0306
Encoding: 774 774 105
Width: 0
VWidth: 1159
Flags: HW
HStem: 436.274 54.719<-267.503 -128.241>
VStem: -330.178 28.08<532.771 549.079> -92.9023 28.081<535.635 549.079>
AnchorPoint: "TopMark" -200.5 396 mark 0
AnchorPoint: "TopMark" -202 541 basemark 0
AnchorPoint: "Top" -198.5 393 mark 0
LayerCount: 2
Fore
SplineSet
-327.801872934 549.76059283 m 5
 -304.404921542 555.106649062 l 5
 -288.505196619 486.163035455 -242.404906653 454.274 -198.026 454.274 c 4
 -153.638066948 454.274 -107.220446346 486.07117909 -90.568797407 555.219419558 c 5
 -67.2208814026 549.66328204 l 5
 -85.5282672589 471.804455359 -140.956322273 430.274 -198.026 430.274 c 4
 -255.071545838 430.274 -310.168549523 471.864609551 -327.801872934 549.76059283 c 5
EndSplineSet
EndChar

StartChar: uni0313
Encoding: 787 787 111
Width: 0
VWidth: 1159
Flags: HW
HStem: 438.94 204.12
VStem: -218.13 116.64
AnchorPoint: "TopMark" -178 410 mark 0
AnchorPoint: "TopMark" -167 631 basemark 0
AnchorPoint: "Top" -179 414 mark 0
LayerCount: 2
Fore
SplineSet
-184.110351562 467.290039062 m 1
 -198.690429688 480.25 l 1
 -171.150390625 509.41015625 -161.186523438 545.176757812 -165.48046875 553.150390625 c 0
 -171.150390625 563.6796875 -181.299804688 570.938476562 -193.01953125 577.450195312 c 0
 -195.450195312 578.799804688 -195.450195312 582.174804688 -195.450195312 585.549804688 c 3
 -195.450195312 588.673828125 -195.54296875 591.983398438 -193.830078125 592.83984375 c 0
 -180.870117188 599.3203125 -169.90625 605.44140625 -165.48046875 620.379882812 c 0
 -164.759765625 622.809570312 -161.879882812 623.620117188 -159 623.620117188 c 3
 -155.759765625 623.620117188 -153.484375 622.899414062 -152.51953125 621.190429688 c 0
 -143.844726562 605.799804688 -135.970703125 597.313476562 -122.549804688 592.83984375 c 0
 -120.120117188 592.030273438 -120.120117188 588.790039062 -120.120117188 585.549804688 c 1
 -120.120117188 578.259765625 -154.950195312 496.450195312 -184.110351562 467.290039062 c 1
EndSplineSet
EndChar

StartChar: uni0315
Encoding: 789 789 113
Width: 0
VWidth: 1159
Flags: HW
HStem: 450.494 206.751
VStem: -59.75 61<571.847 641.311>
AnchorPoint: "TopRight" -110.5 531 mark 0
LayerCount: 2
Fore
SplineSet
-49.75 655.245117188 m 5
 -25.75 648.245117188 l 5
 -36.3490608392 580.131650593 -61.0613447552 506.548641164 -106 450.494 c 5
 -126 464.494 l 5
 -81.147045283 521.264800611 -59.5887245283 586.575071265 -49.75 655.245117188 c 5
EndSplineSet
EndChar

StartChar: Circumflex
Encoding: 58020 58020 159
Width: 281
VWidth: 1159
Flags: HMW
AnchorPoint: "Top" 140 699 mark 0
LayerCount: 2
Back
SplineSet
24.95703125 749.963867188 m 1
 10.033203125 768.758789062 l 1
 121.660707748 859.400390625 l 1
 159.339292252 859.400390625 l 1
 270.966796875 768.758789062 l 1
 256.04296875 749.963867188 l 1
 150.969301498 835.400390625 l 1
 130.030698502 835.400390625 l 1
 24.95703125 749.963867188 l 1
EndSplineSet
Fore
SplineSet
279.504882812 761.361328125 m 5
 258.096679688 747.85546875 l 5
 218.13430331 780.103550111 158.237569591 835.262695312 140.5 835.262695312 c 7
 124 835.262695312 65.1910505485 781.563004193 22.9033203125 747.85546875 c 5
 1.4951171875 761.361328125 l 5
 121.845703125 859.400390625 l 5
 159.154296875 859.400390625 l 5
 279.504882812 761.361328125 l 5
EndSplineSet
EndChar

StartChar: Tilde
Encoding: 58022 58022 161
Width: 329
VWidth: 1159
Flags: HW
HStem: 741.645 21<15.0731 56.6943> 754.053 60<160.321 263.434> 791.391 59.446<72.1063 175.197>
VStem: 15.0731 301.745
AnchorPoint: "Top" 165 699 mark 0
LayerCount: 2
Fore
SplineSet
21.068359375 762.5 m 1
 53.9169921875 803.602539062 76.4521484375 834.836914062 108.780273438 834.836914062 c 3
 149.24609375 834.836914062 201.004882812 794.051757812 234.8671875 794.051757812 c 3
 241.6171875 794.051757812 271.202148438 823.845703125 287.891601562 859 c 1
 312.198242188 848 l 1
 290.797851562 808.625976562 262.001953125 770.051757812 237.077148438 770.051757812 c 3
 194.181640625 770.051757812 136.3046875 810.836914062 105.466796875 810.836914062 c 3
 98.115234375 810.836914062 73.548828125 788 42.61328125 749 c 1
 21.068359375 762.5 l 1
EndSplineSet
EndChar

StartChar: Breve
Encoding: 58023 58023 162
Width: 321
VWidth: 1159
Flags: HW
AnchorPoint: "Top" 162 699 mark 0
LayerCount: 2
Back
SplineSet
38.1226341122 847.336354943 m 1
 55.1164281835 797.493648696 106.183121713 771.731907703 159.928812321 771.444954441 c 1
 214.881410171 771.737392474 265.238494125 797.779470669 282.930036911 847.487529778 c 1
 305.570375991 839.524676762 l 1
 283.915416604 777.212509255 220.663768217 747.447265625 159.9296875 747.447265625 c 0
 99.2350016945 747.447265625 36.2751912327 777.238346961 15.38507739 839.655276533 c 1
 38.1226341122 847.336354943 l 1
EndSplineSet
Fore
SplineSet
16.7646 838.464 m 1
 39.185546875 847.797851562 l 1
 56.5046960482 796.840313722 108.208775534 771.28125 160.081054688 771.28125 c 3
 211.82024773 771.28125 263.726858266 796.733588916 281.814453125 847.797851562 c 1
 304.235 838.464 l 1
 283.3205 777.7865 221.529825 747.44775 159.9293125 747.44775 c 3
 98.3288 747.44775 36.91845 777.7865 16.7646 838.464 c 1
EndSplineSet
EndChar

StartChar: Ring
Encoding: 58026 58026 165
Width: 281
VWidth: 1159
Flags: HW
HStem: 736.972 38.3723<100.526 176.371> 868.246 38.3722<102.629 177.208>
VStem: 53.0137 39.124<783.978 858.53> 186.862 39.1243<785.059 858.629>
AnchorPoint: "Top" 132 699 mark 0
LayerCount: 2
Fore
SplineSet
139.5 868.246 m 3
 114.908 868.246 92.1377 848.208 92.1377 820.884 c 3
 92.1377 793.56 113.998 775.344 139.5 775.344 c 3
 164.092 775.344 186.862 795.382 186.862 822.706 c 3
 186.862 848.208 165.002 868.246 139.5 868.246 c 3
139.5 892.24609375 m 3
 177.926364143 892.24609375 210.862304688 861.647974831 210.862304688 822.706054688 c 3
 210.862304688 781.534478745 176.553345678 751.34375 139.5 751.34375 c 3
 101.073851661 751.34375 68.1376953125 779.159765625 68.1376953125 820.883789062 c 3
 68.1376953125 862.053714743 102.446617826 892.24609375 139.5 892.24609375 c 3
EndSplineSet
EndChar

StartChar: Uni030B
Encoding: 58027 58027 166
Width: 300
VWidth: 1159
Flags: HW
HStem: 728.472 183.528
VStem: 20.5 261.258
AnchorPoint: "Top" 87 699 mark 0
LayerCount: 2
Back
SplineSet
113.49021875 905.3187472 m 1
 132.50978125 890.6812528 l 1
 97.6389302738 845.371016532 83.867599142 822.23902917 45.9183147469 739.021003807 c 1
 24.0816852531 748.978996193 l 1
 62.0539694854 832.247457317 77.8904814909 859.061415901 113.49021875 905.3187472 c 1
253.436138188 872.045681565 m 1
 266.563861812 851.954318435 l 1
 218.7362903 820.703719044 200.024691351 802.911811577 139.98767312 735.048790539 c 1
 122.01232688 750.951209461 l 1
 181.923368159 818.671832078 204.104443997 839.812286399 253.436138188 872.045681565 c 1
EndSplineSet
Fore
SplineSet
25 751 m 5
 58 823 73.4630872483 853.843373494 112 903 c 5
 112 903 124.885137615 895.804040404 133 890 c 5
 96.5588235294 844.602644637 82.6764705882 819.840450802 44.5 737.299804688 c 5
 25 751 l 5
123 752 m 5
 188 826 202.919293402 837.916700251 252 871 c 5
 252 871 262.63458882 861.222776074 269 854 c 5
 219.667194546 821.724523775 198.903859674 801.931180178 138 733 c 5
 123 752 l 5
EndSplineSet
EndChar

StartChar: eogonek
Encoding: 281 281 253
Width: 409
VWidth: 1159
UnlinkRmOvrlpSave: 1
Flags: HW
HStem: -326 60.1279<280.116 355.674> 425 168
VStem: 53 185 193.562 69.21<-249.43 -117.14>
AnchorPoint: "Top" 209 465 basechar 0
LayerCount: 2
Fore
SplineSet
354.891601562 49.0888671875 m 1
 239.852439285 -45.2852148448 193.911132812 -152.083232485 193.911132812 -216.493164062 c 3
 193.911132812 -258.26171875 218.028320312 -281.658203125 245.12109375 -281.658203125 c 3
 275.2890625 -281.658203125 309.208984375 -267.125 329.8828125 -231.927734375 c 1
 336.829101562 -236.283203125 342.881835938 -242.000976562 346.349609375 -251.658203125 c 1
 322.953125 -288.572265625 282.64453125 -305.658203125 245.12109375 -305.658203125 c 3
 205.149414062 -305.658203125 169.911132812 -271.276367188 169.911132812 -216.493164062 c 3
 169.911132812 -136.814002492 222.928051229 -26.5104743698 347.670898438 71.1181640625 c 1
 354.891601562 49.0888671875 l 1
EndSplineSet
Refer: 4 101 N 1 0 0 1 0 0 3
Substitution2: "smcp-1" eogonek.smcp
Substitution2: "case-1" Eogonek
Substitution2: "pcap-1" eogonek.pcap
EndChar

StartChar: uni0328
Encoding: 808 808 254
Width: 0
VWidth: 1159
Flags: HW
HStem: -300 60.1279<-182.983 -105.326>
VStem: -267.438 69.209<-226.6 -119.119>
AnchorPoint: "Ogonek" -104.35 21.6582 mark 0
LayerCount: 2
Back
SplineSet
-94.4580078125 14.7470703125 m 5
 -204.970333276 -61.1485140484 -244.438476562 -154.610593938 -244.438476562 -198.834960938 c 7
 -244.438476562 -248.295016046 -210.902457682 -276 -173.228515625 -276 c 7
 -138.254838735 -276 -98.9297073022 -255.437146609 -74.9619140625 -205.634765625 c 5
 -68.0163217905 -209.990370904 -61.9636510281 -215.707565733 -58.4951171875 -225.365234375 c 5
 -85.0134339001 -276.384521708 -130.699254194 -300 -173.228515625 -300 c 7
 -223.829964835 -300 -268.438476562 -260.991395888 -268.438476562 -198.834960938 c 7
 -268.438476562 -143.077099633 -223.787596227 -43.2006349828 -101.678710938 36.7763671875 c 5
 -94.4580078125 14.7470703125 l 5
EndSplineSet
Fore
SplineSet
-94.4580078125 14.7470703125 m 1
 -215.929475209 -65.4126696377 -264.438476562 -156.125869915 -264.438476562 -210.834960938 c 3
 -264.438476562 -252.603441357 -240.321369991 -276 -213.228515625 -276 c 3
 -183.061308079 -276 -149.140670982 -261.467250311 -128.466796875 -226.26953125 c 1
 -121.521204603 -230.625136529 -115.468533841 -236.342331358 -112 -246 c 1
 -135.396934757 -282.913648659 -175.705230653 -300 -213.228515625 -300 c 3
 -253.200520455 -300 -288.438476562 -265.618520571 -288.438476562 -210.834960938 c 3
 -288.438476562 -142.237277198 -232.737422312 -47.2739706482 -101.678710938 36.7763671875 c 1
 -94.4580078125 14.7470703125 l 1
EndSplineSet
EndChar

StartChar: Aogonek
Encoding: 260 260 255
Width: 730
VWidth: 0
Flags: H
HStem: -346.802 72.7783<509.644 579.002> 245 42<247 437.657> 692 20G<358 405.73>
VStem: 360 43<632.023 712> 417.273 71.958<-253.556 -112.611>
LayerCount: 2
Back
SplineSet
247 287 m 5
 300 282 410 283 459 283 c 5
 420 383 394 443 352 545 c 13
 311 444 284 378 247 287 c 5
515.106 9.30371 m 4
 528.580338516 25.1898171388 540.25 48 535 76 c 4
 512 139 498 173 475 236 c 5
 415 246 318 252 231 245 c 13
 204.87 183.38 185 147 164 87 c 4
 152 51 176 29 247 34 c 13
 245 -10 l 5
 190 1 82 4 27 -5 c 13
 27 -5 23 20 22 34 c 5
 71 48 95 57 106 80 c 4
 198 289 276 470 344 640 c 4
 359 678 356 679 360 712 c 13
 403 712 l 13
 408.46 684.7 403 681 417 642 c 4
 489.318 423.284 532.922 291.261 632 78.1982 c 4
 640 60.9938 671.846 35.0799 702 32 c 13
 702 32 701 8 700 -4 c 5
 648.463 32.9972 584.223 32.6444 544 -14 c 4
 498.216367131 -67.0927599884 489.231445312 -140.721568606 489.231445312 -196.747070312 c 7
 489.231445312 -237.611373161 518.631004142 -274.0234375 550.14453125 -274.0234375 c 7
 569.969724697 -274.0234375 593.77495698 -267.592408263 618.200195312 -253.40234375 c 13
 618.200195312 -253.40234375 629.310038072 -263.730014861 632 -271.801757812 c 5
 605.823 -315.298757812 555.232 -346.801757812 515 -346.801757812 c 7
 465.302222486 -346.801757812 417.2734375 -298.236689929 417.2734375 -235.232421875 c 7
 417.2734375 -105.15651352 478.973157111 -33.2965417808 515.106 9.30371 c 4
610.436523438 49.7529296875 m 0
 577.730642863 135.123127787 552.987372861 194.038242113 514.919921875 288.098632812 c 1
 438.807644306 289.0458511 319.95832744 289.527677228 214 290 c 1
 173.409730411 196.635079338 149.158620388 137.268022074 109.9453125 53.4814453125 c 0
 90.9995218548 13.0002151457 99.6196581952 21.5567987619 182.5 13.44140625 c 1
 182.5 -10.8662109375 l 1
 161.119228164 -7.62235213496 131.169528325 -5.8291015625 100.969726562 -5.8291015625 c 0
 69.4262295226 -5.8291015625 37.6098802561 -7.78553854204 15 -12.0888671875 c 1
 15 12.26171875 l 1
 65.4835716934 18.9119738375 65.3375205755 12.3988655368 82.5322265625 50.4697265625 c 0
 180.731047323 267.892092545 266.37492304 469.787986479 338.458984375 643.301757812 c 0
 354.530907945 681.988535715 354.67164978 681.610709839 363.543945312 711 c 1
 384.34375 711 l 1
 393.212065647 684.008961575 392.953167161 684.937449011 407.630859375 645.073242188 c 0
 498.147817047 399.231684186 555.639338195 248.3980639 639.583007812 35.1982421875 c 0
 647.55748423 14.9446964666 652.144810613 18.5383309526 694 13.294921875 c 1
 694 -10.9169921875 l 1
 653.042623893 -4.37574276851 618.298978981 0.0762468433207 581.861480446 -10.9999993971 c 0
 475.651882215 -43.2855214661 443.765625 -178.701772972 443.765625 -236.513671875 c 0
 443.765625 -286.885202987 482.327917053 -322.888671875 515.564453125 -322.888671875 c 0
 543.461263875 -322.888671875 588.019262627 -296.291599988 612.696289062 -256.87109375 c 1
 633.0390625 -269.60546875 l 1
 604.925988953 -314.515066602 555.472542106 -346.888671875 515.564453125 -346.888671875 c 0
 466.3468694 -346.888671875 419.765625 -298.124228333 419.765625 -236.513671875 c 0
 419.765625 -186.596848782 448.662567673 -30.0205093118 573.669763668 9.99999911923 c 0
 610.254518571 21.7124487938 624.921911319 11.9425906547 610.436523438 49.7529296875 c 0
224.0625 313.920898438 m 1
 299.282233999 313.440218373 435.714634726 312.59317135 505.326171875 312.118164062 c 1
 455.676041624 446.26718325 423.239142269 533.003031157 373.83203125 669.845703125 c 1
 321.828818642 536.00248247 276.379377977 438.292366088 224.0625 313.920898438 c 1
EndSplineSet
Fore
SplineSet
224.0625 313.920898438 m 1
 299.282233999 313.440218373 435.714634726 312.59317135 505.326171875 312.118164062 c 1
 455.676041624 446.26718325 423.239142269 533.003031157 373.83203125 669.845703125 c 1
 321.828818642 536.00248247 276.379377977 438.292366088 224.0625 313.920898438 c 1
573.669921875 4 m 0
 608.875451907 20.754706532 624 13 610.436523438 49.7529296875 c 0
 578.784799397 135.519553225 552.987372861 194.038242113 514.919921875 288.098632812 c 1
 438.807644306 289.0458511 319.95832744 289.527677228 214 290 c 1
 173.409730411 196.635079338 149.158620388 137.268022074 109.9453125 53.4814453125 c 0
 90.9995218548 13.0002151457 99.6196581952 21.5567987619 182.5 13.44140625 c 1
 182.5 -10.8662109375 l 1
 137.818377155 -4.0871817851 58.3767337591 -3.83299237447 15 -12.0888671875 c 1
 15 12.26171875 l 1
 65.4835716934 18.9119738375 65.3375205755 12.3988655368 82.5322265625 50.4697265625 c 0
 180.731047323 267.892092545 266.37492304 469.787986479 338.458984375 643.301757812 c 0
 354.530907945 681.988535715 354.67164978 681.610709839 363.543945312 711 c 1
 384.34375 711 l 1
 393.212065647 684.008961575 392.953167161 684.937449011 407.630859375 645.073242188 c 0
 498.147817047 399.231684186 555.639338195 248.3980639 639.583007812 35.1982421875 c 0
 647.55748423 14.9446964666 652.144810613 18.5383309526 694 13.294921875 c 1
 694 -10.9169921875 l 1
 649.581140447 -3.82291373674 617.156269092 1.49343338988 581.861328125 -17 c 0
 481.804651436 -69.4265357834 451.765625 -180.23991221 451.765625 -236.513671875 c 3
 451.765625 -286.885202987 490.327917053 -322.888671875 523.564453125 -322.888671875 c 3
 551.461263875 -322.888671875 596.019262627 -296.291599988 620.696289062 -256.87109375 c 1
 641.0390625 -269.60546875 l 1
 612.925988953 -314.515066602 563.472542106 -346.888671875 523.564453125 -346.888671875 c 3
 474.3468694 -346.888671875 427.765625 -298.124228333 427.765625 -236.513671875 c 3
 427.765625 -187.811795171 458.004581427 -51.0464325741 573.669921875 4 c 0
EndSplineSet
Position2: "cpsp-1" dx=0 dy=0 dh=50 dv=100
Substitution2: "c2pc-1" aogonek.pcap
Substitution2: "c2sc-1" aogonek.smcp
EndChar

StartChar: Uni0328
Encoding: 58029 58029 257
Width: 0
VWidth: 1159
Flags: HW
HStem: -338.23 73.7197<-184.546 -117.498>
VStem: -275.584 71.875<-244.983 -118.496>
AnchorPoint: "Ogonek" -105.35 23.6582 mark 0
LayerCount: 2
Back
SplineSet
-72.4820474962 -254.57962156 m 1
 -62.3106021192 -260.946857926 l 1
 -90.4236730779 -305.856540744 -139.877110554 -338.23046875 -179.78515625 -338.23046875 c 0
 -229.002957863 -338.23046875 -275.583984375 -289.466350616 -275.583984375 -227.85546875 c 0
 -275.583984375 -146.795329884 -242.68943148 -45.5856863229 -113.618622433 36.1093234884 c 1
 -107.200791936 25.969725286 l 1
 -100.782961439 15.8301270836 l 1
 -223.169059504 -61.633813494 -251.583984375 -153.799518133 -251.583984375 -227.85546875 c 0
 -251.583984375 -278.227365009 -213.021983584 -314.23046875 -179.78515625 -314.23046875 c 0
 -151.888479958 -314.23046875 -107.330498646 -287.63306975 -82.6534928731 -248.212385193 c 1
 -72.4820474962 -254.57962156 l 1
EndSplineSet
Fore
SplineSet
-94.171875 20.392578125 m 1
 -196.539390649 -41.7732492336 -252 -126.872311345 -252 -228 c 3
 -252 -273.99496147 -217.716255026 -314 -180 -314 c 3
 -149.270236707 -314 -105.373423801 -286.83165398 -74.5146484375 -236.510742188 c 1
 -74.5146484375 -236.510742188 -61.7950278059 -246.838961447 -58.7158203125 -254.911132812 c 1
 -85.7705506897 -302.647325281 -138.205109564 -338.23046875 -179.78515625 -338.23046875 c 3
 -228.965068015 -338.23046875 -275.583984375 -289.420252063 -275.583984375 -227.85546875 c 3
 -275.583984375 -144.145292738 -241.514987387 -38.8975355005 -98.8711 45.1113 c 1
 -94.171875 20.392578125 l 1
EndSplineSet
EndChar

StartChar: Eogonek
Encoding: 280 280 258
Width: 672
VWidth: 0
UnlinkRmOvrlpSave: 1
Flags: HW
HStem: -347.889 73.7197<484.634 553.852> -9 35<56 102.007> 333 36<205 473.393> 657 31<48 108.489>
VStem: 124 81<87.2765 333 369 603.172> 395.766 71.875<-257.592 -149.807> 497 36<249 305.348> 538 30<537 619.889>
AnchorPoint: "Top" 330 699 basechar 0
LayerCount: 2
Fore
SplineSet
48 688 m 1xd6e0
 120.521055818 684.355725838 206.588460485 682.969176485 287.955928091 682.969176485 c 3
 429.86328558 682.969176485 557.47511282 687.186564497 574 691 c 1
 585.145145837 681.247997393 589.133414459 675.741599913 589.133414459 667.087387512 c 3
 589.133414459 650.893580795 575.168856119 623.677987617 568 537 c 1
 538 534 l 1
 527 570 546 617 510 628 c 0
 468.488636507 639.860389569 402.664140046 646.076658986 339.417525988 646.076658986 c 3
 306.677490841 646.076658986 274.628246937 644.410894684 247 641 c 0
 229 639 216 625 215 607 c 0x9ae0
 211 525.313559322 206 444.635593221 205 369 c 1
 269 371 429 371 443 372 c 0
 480 377 485 403 501 447 c 1
 535 440 l 1
 526.800908316 409.132831309 523.486685813 378.498275435 523.486685813 347.871954284 c 3
 523.486685813 314.997648821 527.305294619 282.132831309 533 249 c 1
 497 240 l 1
 477 311 484 324 443 328 c 0
 399 333 298 332 205 333 c 1
 204 235.613545816 208 147.262948207 220 81 c 0
 224 64 233 50 250 49 c 0
 295.831179232 44.5647245905 336.319436302 40.3723092792 374.696225476 40.3723092792 c 3
 414.193090286 40.3723092792 451.453436792 44.8130178498 490 58 c 0
 550.414440108 78.6680979317 560.916666667 101 601 177 c 1
 629 170 l 1
 601.909278218 96.0751847998 563.005363884 18.4683882549 538.489257812 -19.9775390625 c 0
 508.313510966 -67.2988618945 467.640625 -148.391015834 467.640625 -206.689453125 c 0
 467.640625 -242.779181534 495.826784961 -274.168945312 526.834960938 -274.168945312 c 0
 547.809960937 -274.168945312 572.993960937 -265.436945313 598.834960938 -246.168945312 c 1
 598.834960938 -246.168945312 609.943822568 -256.497164572 612.633789062 -264.569335938 c 1
 585.578932221 -312.305955472 533.145209671 -347.888671875 491.565429688 -347.888671875 c 0
 442.385016588 -347.888671875 395.765625 -303.499671875 395.765625 -247.513671875 c 0
 395.765625 -172.157942368 443.587456716 -80.3722695124 506.53125 0.1865234375 c 1
 426.116814261 0.92057786207 344.873636713 3.07020290016 269.953021447 3.07020290016 c 3xb9e0
 188.876938008 3.07020290016 115.205017511 0.552841530585 58 -9 c 1
 48 26 l 1
 101 36 124 49 124 77 c 1
 125.797958971 111.804426856 126.787753827 207.154066657 126.787753827 309.259280672 c 3xd1e0
 126.787753827 434.312117879 125.303061543 569.498316407 122 616 c 0
 121 643 116 643 43 657 c 1
 48 688 l 1xd6e0
EndSplineSet
Position2: "cpsp-1" dx=0 dy=0 dh=50 dv=100
Substitution2: "c2pc-1" eogonek.pcap
Substitution2: "c2sc-1" eogonek.smcp
EndChar

StartChar: Iogonek
Encoding: 302 302 259
Width: 341
VWidth: 0
UnlinkRmOvrlpSave: 1
Flags: HW
HStem: -346.889 73.7197<164.804 231.852> -10 40<16.125 119.789> 652 43<21.3488 120.801>
VStem: 73.7656 71.875<-253.641 -109.865> 131 90<41.0295 293.416> 137.915 75.6029<80.3904 534.592>
LayerCount: 2
Fore
SplineSet
207.177734375 3.734375 m 5xf0
 167.264648438 -46.17578125 145.640625 -131.358398438 145.640625 -195.689453125 c 7
 145.640625 -237.126953125 173.827148438 -273.168945312 204.834960938 -273.168945312 c 7
 225.810546875 -273.168945312 250.994140625 -264.435546875 276.834960938 -245.168945312 c 13
 276.834960938 -245.168945312 287.944335938 -255.497070312 290.633789062 -263.569335938 c 5
 263.579101562 -311.305664062 211.14453125 -346.888671875 169.564453125 -346.888671875 c 7
 120.384765625 -346.888671875 73.765625 -298.078125 73.765625 -236.513671875 c 7
 73.765625 -152.803710938 98.1953125 -47.5556640625 200.478515625 36.453125 c 5
 207.177734375 3.734375 l 5xf0
EndSplineSet
Refer: 34 73 N 1 0 0 1 0 0 3
Position2: "cpsp-1" dx=0 dy=0 dh=50 dv=100
Substitution2: "c2pc-1" iogonek.pcap
Substitution2: "c2sc-1" iogonek.smcp
EndChar

StartChar: iogonek
Encoding: 303 303 260
Width: 263
VWidth: 0
UnlinkRmOvrlpSave: 1
Flags: HW
HStem: -326 60.1279<121.017 198.674> -7 33<33 87 184 254> 572 102<98.589 183.411>
VStem: 36.5625 69.209<-252.6 -120.517> 89 104<581.438 664.599> 97 71<57 330>
LayerCount: 2
Fore
SplineSet
168 12.9248046875 m 5xe4
 113.924804688 -74.3896484375 105.771484375 -115.919921875 105.771484375 -196 c 7
 105.771484375 -239.865234375 131.106445312 -265.872070312 163.166015625 -265.872070312 c 7
 182.918945312 -265.872070312 206.635742188 -255.18359375 230.97265625 -231.599609375 c 5
 230.97265625 -231.599609375 242.081054688 -241.926757812 244.771484375 -250 c 5
 217.768554688 -302.788085938 172.271484375 -326 130.771484375 -326 c 7
 80.798828125 -326 36.5625 -288.154296875 36.5625 -224.834960938 c 7xf0
 36.5625 -167.208984375 66.80859375 -55.732421875 153.30078125 34.1435546875 c 5
 168 12.9248046875 l 5xe4
EndSplineSet
Refer: 8 105 N 1 0 0 1 0 0 3
Substitution2: "smcp-1" iogonek.smcp
Substitution2: "case-1" Iogonek
Substitution2: "pcap-1" iogonek.pcap
EndChar

StartChar: uogonek
Encoding: 371 371 262
Width: 506
VWidth: 0
UnlinkRmOvrlpSave: 1
Flags: HW
HStem: -324.658 60.1279<313.017 390.674> -18.7812 20G<319.052 378.615> -11 55<171 272> 338 31<291 350>
VStem: 69 76<71 327> 228.562 69.21<-251.259 -142.76> 358 65<36 52 75 331>
LayerCount: 2
Fore
SplineSet
379 -20 m 1xde
 308.413085938 -92.994140625 297.771484375 -127.711914062 297.771484375 -194.658203125 c 3
 297.771484375 -238.5234375 323.107421875 -264.530273438 355.166015625 -264.530273438 c 3
 374.918945312 -264.530273438 398.635742188 -253.841796875 422.97265625 -230.2578125 c 1
 422.97265625 -230.2578125 434.081054688 -240.584960938 436.771484375 -248.658203125 c 1
 409.767578125 -301.446289062 364.271484375 -324.658203125 322.771484375 -324.658203125 c 3
 272.798828125 -324.658203125 228.561523438 -286.8125 228.561523438 -223.493164062 c 3
 228.561523438 -173.491210938 265.803710938 -76.765625 372.30078125 1.21875 c 1
 379 -20 l 1xde
EndSplineSet
Refer: 20 117 N 1 0 0 1 0 0 3
Substitution2: "smcp-1" uogonek.smcp
Substitution2: "case-1" Uogonek
Substitution2: "pcap-1" uogonek.pcap
EndChar

